<svg id="Capa_1" data-name="Capa 1" xmlns="http://www.w3.org/2000/svg" viewBox="0 0 66.16 35.99"><defs><style>.cls-1{fill:#fff;}</style></defs><path class="cls-1" d="M19.28,33.47a1.4,1.4,0,0,1-.63.16c-.51,0-.75-.36-.75-.9a.75.75,0,0,1,.79-.86,1,1,0,0,1,.56.15l-.14.25a.72.72,0,0,0-.42-.11c-.3,0-.44.23-.44.57s.14.62.43.62a.7.7,0,0,0,.3-.07V33h-.24v-.24h.55Z"/><path class="cls-1" d="M20.66,33c0,.42-.21.65-.58.65s-.58-.23-.58-.65a.58.58,0,1,1,1.16,0m-.34,0c0-.29-.09-.4-.24-.4s-.24.11-.24.4.08.4.24.4.24-.1.24-.4"/><path class="cls-1" d="M21.21,32.49a.47.47,0,0,1,.33-.15c.29,0,.5.21.5.64s-.26.65-.54.65a.4.4,0,0,1-.36-.18l-.06.15H20.9V31.87h.33v.43Zm0,.77a.3.3,0,0,0,.23.13c.14,0,.25-.11.25-.41s-.1-.4-.25-.4a.4.4,0,0,0-.23.1Z"/><path class="cls-1" d="M22.39,33.6v-1l-.15,0v-.21h.47V33.6Zm0-1.74h.33v.3h-.33Z"/><path class="cls-1" d="M23.29,33.07a.29.29,0,0,0,.32.31.89.89,0,0,0,.36-.11l.06.23a.9.9,0,0,1-.46.13A.58.58,0,0,1,23,33c0-.38.18-.64.58-.64s.52.28.52.59v.14Zm.23-.49c-.16,0-.23.15-.23.3h.46c0-.16-.05-.3-.23-.3"/><path class="cls-1" d="M25,32.64l-.15,0a.36.36,0,0,0-.23.09v.89h-.32V32.37h.23l0,.16h0a.35.35,0,0,1,.3-.18H25a2.72,2.72,0,0,0,0,.28"/><path class="cls-1" d="M26,33.6v-.73c0-.19-.07-.27-.22-.27a.35.35,0,0,0-.21.07v.93h-.33V32.37h.22l.05.14a.53.53,0,0,1,.39-.17c.31,0,.44.19.44.5v.76Z"/><path class="cls-1" d="M27.69,33c0,.42-.22.65-.58.65s-.58-.23-.58-.65a.58.58,0,1,1,1.16,0m-.34,0c0-.29-.09-.4-.24-.4s-.24.11-.24.4.08.4.24.4.24-.1.24-.4"/><path class="cls-1" d="M29.29,32.46a.51.51,0,0,1,0-.22v-.37h.33V33.6h-.26l0-.13a.42.42,0,0,1-.33.16c-.28,0-.5-.2-.5-.64s.23-.65.53-.65a.44.44,0,0,1,.31.12m0,.19a.41.41,0,0,0-.22-.06c-.16,0-.25.11-.25.39s.09.41.25.41a.29.29,0,0,0,.22-.11Z"/><path class="cls-1" d="M30.16,33.07a.28.28,0,0,0,.32.31.89.89,0,0,0,.36-.11l.06.23a.9.9,0,0,1-.46.13.58.58,0,0,1-.61-.65c0-.38.18-.64.58-.64s.52.28.52.59v.14Zm.23-.49c-.16,0-.23.15-.23.3h.45c0-.16-.05-.3-.22-.3"/><path class="cls-1" d="M32.43,33.63c-.48,0-.73-.33-.73-.89s.25-.88.73-.88A1,1,0,0,1,33,32l-.13.26a.7.7,0,0,0-.42-.12c-.28,0-.42.21-.42.59s.14.6.42.6a.79.79,0,0,0,.45-.16l.1.27a1,1,0,0,1-.58.18"/><path class="cls-1" d="M33.24,33.6V31.87h.33v.45a1,1,0,0,1,0,.19.43.43,0,0,1,.34-.17c.36,0,.46.19.46.5v.76H34v-.73a.19.19,0,0,0,0-.08.18.18,0,0,0-.2-.19.38.38,0,0,0-.22.07v.93Z"/><path class="cls-1" d="M34.71,33.6v-1l-.14,0v-.21H35V33.6Zm0-1.74H35v.3H34.7Z"/><path class="cls-1" d="M35.34,33.27v-1.4h.32v1.39c0,.1.06.12.2.12v.23l-.18,0c-.25,0-.34-.14-.34-.36"/><path class="cls-1" d="M36.36,33.07a.28.28,0,0,0,.32.31.94.94,0,0,0,.36-.11l.06.23a1,1,0,0,1-.46.13A.57.57,0,0,1,36,33c0-.38.18-.64.57-.64s.52.28.52.59v.14Zm.23-.49c-.17,0-.23.15-.23.3h.45c0-.16-.05-.3-.22-.3"/><path class="cls-1" d="M38.84,0H0V36H39.45V0ZM.61.61H16V35.37H.61ZM38.84,35.37H16.58V.61H38.84Z"/><path class="cls-1" d="M43,22.85c0,.69.35,1,.88,1a1.65,1.65,0,0,0,.86-.28l.11.31a2,2,0,0,1-1,.3c-.75,0-1.26-.5-1.26-1.46s.43-1.42,1.19-1.42,1.11.63,1.11,1.32v.24Zm.74-1.23c-.52,0-.74.46-.74.94h1.45c0-.49-.16-.94-.71-.94"/><path class="cls-1" d="M47.24,24.12V22.44c0-.52-.16-.81-.63-.81a1,1,0,0,0-.68.31v2.18H45.5V21.34h.28l.09.33a1.22,1.22,0,0,1,.87-.38c.65,0,.94.39.94,1.08v1.75Z"/><path class="cls-1" d="M51.77,22.37v1.75h-.43V22.44c0-.52-.16-.81-.63-.81a1,1,0,0,0-.66.31v2.18h-.43V21.34h.28l.09.34a1.15,1.15,0,0,1,.84-.39.82.82,0,0,1,.82.42,1.22,1.22,0,0,1,.86-.42c.68,0,1,.38,1,1.08v1.75h-.43V22.44c0-.52-.2-.81-.67-.81a1,1,0,0,0-.66.31,1.91,1.91,0,0,1,0,.43"/><path class="cls-1" d="M55.88,24.12l-.07-.36a1.11,1.11,0,0,1-.86.41.83.83,0,0,1-.89-.85c0-.48.35-.79,1-.79h.72v-.22c0-.48-.21-.68-.63-.68a2.06,2.06,0,0,0-.84.18l-.11-.31a2.37,2.37,0,0,1,1-.21.89.89,0,0,1,1,1v1.83Zm-.12-1.29h-.65c-.47,0-.63.2-.63.48a.51.51,0,0,0,.58.55,1,1,0,0,0,.7-.34Z"/><path class="cls-1" d="M58.32,21.72a1.06,1.06,0,0,0-.36,0,.88.88,0,0,0-.62.3v2.15h-.43V21.34h.29l.08.35A.94.94,0,0,1,58,21.3a1,1,0,0,1,.35.05Z"/><path class="cls-1" d="M60.74,23.93a1.94,1.94,0,0,1-.93.24c-.7,0-1.21-.41-1.21-1.44s.52-1.44,1.21-1.44a1.83,1.83,0,0,1,.91.22l-.13.3a1.51,1.51,0,0,0-.75-.18c-.5,0-.81.4-.81,1.1s.31,1.11.81,1.11a1.51,1.51,0,0,0,.79-.23Z"/><path class="cls-1" d="M61.3,24.12V20.21h.43v1.12a1.16,1.16,0,0,1,0,.35,1.13,1.13,0,0,1,.84-.39c.68,0,1,.38,1,1.08v1.75h-.44V22.44c0-.51-.21-.81-.64-.81a1,1,0,0,0-.68.31v2.18Z"/><path class="cls-1" d="M65.87,24.12l-.07-.36a1.11,1.11,0,0,1-.86.41.83.83,0,0,1-.89-.85c0-.48.35-.79,1-.79h.72v-.22c0-.48-.21-.68-.63-.68a2.06,2.06,0,0,0-.84.18l-.11-.31a2.37,2.37,0,0,1,1-.21.88.88,0,0,1,1,1v1.83Zm-.12-1.29h-.66c-.47,0-.62.2-.62.48a.51.51,0,0,0,.58.55,1,1,0,0,0,.7-.34Z"/><path class="cls-1" d="M45.74,19.5c-2.08,0-3.2-1.38-3.2-3.84,0-2.3,1.11-3.77,3.2-3.77a4.67,4.67,0,0,1,2.52.62l-.55,1.16a3.12,3.12,0,0,0-1.81-.51c-1.23,0-1.85.86-1.85,2.49s.62,2.58,1.82,2.58a3.42,3.42,0,0,0,2-.68l.46,1.16a4.31,4.31,0,0,1-2.54.79"/><path class="cls-1" d="M49.25,19.39V11.83h1.43v2a2.27,2.27,0,0,1-.14.83,1.92,1.92,0,0,1,1.54-.74c1.54,0,2,.8,2,2.16v3.32H52.59v-3.2c0-.76-.31-1.18-1-1.18a1.63,1.63,0,0,0-1,.33v4.05Z"/><path class="cls-1" d="M55.65,19.39V15.05L55,14.92V14h2v5.37Zm0-7.56h1.45v1.31H55.6Z"/><path class="cls-1" d="M58.38,18V11.83H59.8v6.06c0,.45.27.52.86.52v1a4.29,4.29,0,0,1-.79.09c-1.09,0-1.49-.58-1.49-1.53"/><path class="cls-1" d="M62.82,17.09a1.22,1.22,0,0,0,1.38,1.33A3.61,3.61,0,0,0,65.78,18l.27,1a4.41,4.41,0,0,1-2,.52,2.49,2.49,0,0,1-2.64-2.8c0-1.66.8-2.79,2.52-2.79s2.25,1.21,2.25,2.56v.62Zm1-2.12c-.71,0-1,.64-1,1.28h2c0-.69-.21-1.28-1-1.28"/><path class="cls-1" d="M8.77,5.38a.15.15,0,0,0,.05-.21c0-.06-.1-.06-.07-.07.39-.09.6-.66.59-.88a.78.78,0,0,0,1,0,.7.7,0,0,0,0-1,.63.63,0,0,0-.72,0A.37.37,0,0,0,9.26,3a.83.83,0,0,0-.15-.47.75.75,0,0,0-.95,0,.66.66,0,0,0-.88.7,1.21,1.21,0,0,0-.59-.1.73.73,0,0,0-.39.23.57.57,0,0,0-.08.13.61.61,0,0,0-.07.34.63.63,0,0,0,.29.5,1,1,0,0,0,.6.08.41.41,0,0,0,.25-.13s0-.07.08-.07a.48.48,0,0,0,.31.49s0,0,0,0a.46.46,0,0,0,.39.39C8,5.22,8,5.32,8,5.38a1.38,1.38,0,0,1,.37-.07,1.32,1.32,0,0,1,.37.07"/><path class="cls-1" d="M9.7,6.62A1.28,1.28,0,0,1,10,5.88s0-.06,0-.08a.08.08,0,0,0,0-.07l-.25-.16h0l-.06,0a.51.51,0,0,1-.3.1H9.24A.85.85,0,0,1,9,5.6l-.13,0h0a1.39,1.39,0,0,0-.48-.1,1.43,1.43,0,0,0-.48.1h0l0,0-.14.07-.16.05H7.48a.55.55,0,0,1-.31-.1s0,0,0,0h0l-.25.17a.1.1,0,0,0,0,.07.1.1,0,0,0,0,.08,1.28,1.28,0,0,1,.28.74,1,1,0,0,1-.18.66.77.77,0,0,0,.76,1.16s.45,0,.59.27l.1.17,0,.06,0-.06.1-.17c.14-.26.55-.27.6-.27a.77.77,0,0,0,.76-1.16,1.09,1.09,0,0,1-.19-.66m-.21,0-.72.51.28.81-.69-.52-.69.52L8,7.12l-.72-.51h.88l.25-.82.25.82Z"/><path class="cls-1" d="M14.49,10c-.09-.11-.33-.06-.33-.06a.35.35,0,0,0-.22-.48.29.29,0,0,0-.26,0h0l0,0a.21.21,0,0,0-.05.13.18.18,0,0,0,.18.18.17.17,0,0,0,.1,0A.21.21,0,0,0,14,9.7a.14.14,0,0,1,.06.09c.11.32-.26.44-.26.44a1.43,1.43,0,0,1-1.3-.18L12.6,10l.13,0v0a.16.16,0,0,0,.32,0,.13.13,0,0,0,0-.09c-.1-.15-.42-.05-.42-.05a.57.57,0,0,0,0-.46.44.44,0,0,0-.51-.21A.21.21,0,0,0,12,9.3c0,.25.16.27.16.27a.12.12,0,0,0,.14-.11c0-.12-.14-.12-.14-.12.14-.24.57.15.29.5a0,0,0,0,1-.06,0,6,6,0,0,1-.87-.5c0-.14-.13-.21-.11-.25s.09,0,.13,0a3.75,3.75,0,0,0,.07-.39,1.49,1.49,0,0,0,.9.12.11.11,0,0,0,.07-.1c0-.17-.43-1.17-.44-1.52.21.1.34-.22.37-.31.28.12.38,2.7.59,2.79s.15-.13.16-.16a8.34,8.34,0,0,0,.33-2.65,7.1,7.1,0,0,0-.22-1.6c-.09-.3-.26-.91-.65-1a.28.28,0,0,0-.32.29c0,.13.09.2.05.33a1.31,1.31,0,0,0-.12.27c0,.1.06.14,0,.24s-.18.09-.38,0c.13-.06.13-.42,0-.48a.09.09,0,0,1-.06,0,.49.49,0,0,0,.08-.11.45.45,0,0,0,0-.46c.07,0,.14-.12.15-.21h0a.39.39,0,0,1,0-.19,0,0,0,1,0-.08,0c0,.09-.13,0-.1,0a0,0,0,0,0,0-.07,0,0,0,0,0-.06,0c0,.08-.13,0-.09-.05a0,0,0,0,0,0-.06.07.07,0,0,0-.07,0c0,.08-.13,0-.09,0a.06.06,0,0,0,0-.07,0,0,0,0,0-.06,0c0,.08-.07.12-.12.15s-.06.12-.05.18a.24.24,0,0,0-.29.2h0c-.13,0-.26.08-.25.2s.08.16.12.16,0-.07.06-.08.16,0,.17.11,0,.24.18.26a.35.35,0,0,0,0,.07h-.18c-.14,0-.33.11-.37.24a.37.37,0,0,0,0,.11s0,.06,0,.1l0,.06a.4.4,0,0,1-.26.12.3.3,0,0,1-.25-.12c-.14-.19,0-.51,0-.63,0-.32-.41-.13-.57,0a1.63,1.63,0,0,0-.48.42,1.37,1.37,0,0,0-.19.3l0,0a1.13,1.13,0,0,0,.34.09.55.55,0,0,0,.39-.11.09.09,0,0,1,.06,0,.09.09,0,0,1,.06,0l0,0,.06,0,0,0,.09.07h0l.09.07.08.06h0a0,0,0,0,1,0,0s0,0,0,0,0,0,0,.06a1.52,1.52,0,0,0-.22.36.51.51,0,0,0,.39.3.22.22,0,0,0,.23-.17h0a2.71,2.71,0,0,0,.2.54c-.1,0-.25.2-.17.63a3.61,3.61,0,0,1-.3-.25A.48.48,0,0,0,9.94,7a1.91,1.91,0,0,0,.17.36,1.07,1.07,0,0,1,.1.59c.11-.1.09-.39.09-.39h0s.13.2.3.24a2.32,2.32,0,0,0,.74.8c0,.1,0,.32,0,.32s-.38-.09-.56-.08h0C10,8.44,9,9.21,8.83,9.36s-.19,0-.19,0a.23.23,0,0,0-.21-.1.25.25,0,0,0-.21.1s-.1.11-.19,0-1-.83-1.77-.6c0,0-.1-.06-.13-.07A.37.37,0,0,1,6,8.61c-.08,0-.21,0-.3,0l-.12,0a1.21,1.21,0,0,1-.32-.27l0-.06a.79.79,0,0,1-.08-.16,1.1,1.1,0,0,1,0-.44,1.81,1.81,0,0,0,0-.23,1.35,1.35,0,0,0,.75-.69.28.28,0,0,0,0-.08h.07c.18,0,.31-.1.51-.08a.24.24,0,0,0,.16.15.78.78,0,0,0,.06.35l0,0a1.52,1.52,0,0,0,.11-.48s0,0,0,0a.45.45,0,0,0-.24-.35.41.41,0,0,1-.15-.07A.52.52,0,0,1,6.32,6l0-.06a1.11,1.11,0,0,0,.24-.55c.1-.13.37-.08.48-.06a.14.14,0,0,1,.09,0s0,.07.08.08a.22.22,0,0,0,.14,0,.56.56,0,0,0,0,.08.17.17,0,0,0,0,.06.9.9,0,0,0,.37-.11s0,0,0,0a.42.42,0,0,0-.22-.16c-.11,0-.13-.11-.22-.13a.38.38,0,0,0-.15,0,2.17,2.17,0,0,1-.57-.07c-.19,0-.2.12-.27.23a.34.34,0,0,1-.09.12c-.05,0-.11,0-.17.1l0-.08A.72.72,0,0,0,6,5.22a.7.7,0,0,0-.46-.35l-.08,0a0,0,0,0,1,0-.07c.07,0,.18,0,.26-.06s.12-.24,0-.26a1.14,1.14,0,0,1-.3-.08s-.12-.17-.2-.2S5.25,4,5.18,4A.27.27,0,0,0,5,4a.33.33,0,0,0-.1-.23c-.07,0-.09,0-.08.06s.09.08.1.22l0,0a.3.3,0,0,0-.1-.19A.05.05,0,0,0,4.74,4s.08.07.1.19l0,0c-.13,0-.16-.12-.19-.13s-.09,0-.06.08a.32.32,0,0,0,.18.12l0,0c-.14,0-.18-.13-.21-.13s-.09,0-.06.07.2.13.22.13a.11.11,0,0,0,0,.1c-.12,0-.32,0-.28.18s.17-.08.29,0a.39.39,0,0,0,.24.15c.05,0,.05.1.07.16a1.41,1.41,0,0,0,.18.29c.07.11.14.22.21.31a.2.2,0,0,1,0,.09A3.16,3.16,0,0,1,4.89,6c-.1.1-1.06.83-1.19,1.15a.72.72,0,0,0,0,.26c-.06,0-.19.08-.23,0s.07-.19,0-.29-.08-.06-.11,0a.32.32,0,0,0,0,.54c.17.07.2-.11.33,0s.33.29.28.5c0,0,0,0,0,0a2.85,2.85,0,0,1-.26.23c-.16.1.16.74.13,1.06,0,.13.1.11.18.31a.21.21,0,0,0-.19.08.13.13,0,0,0,0,.09.16.16,0,0,0,.16.16A.16.16,0,0,0,4.14,10v0l.13,0,.14.07a1.41,1.41,0,0,1-1.29.18s-.37-.12-.27-.44a.18.18,0,0,1,.07-.09A.26.26,0,0,0,3,9.81a.2.2,0,0,0,.11,0,.18.18,0,0,0,.18-.18.21.21,0,0,0,0-.13l0,0h0a.31.31,0,0,0-.26,0A.35.35,0,0,0,2.7,10s-.24-.05-.33.06a.1.1,0,0,0,0,.09h0a.31.31,0,0,0,0,.08.17.17,0,0,0,.11.06.13.13,0,0,0,.11-.05h0s0,0,.08,0a1.44,1.44,0,0,0,1.89-.05,3.3,3.3,0,0,1,.57-.43,3.82,3.82,0,0,0,.36.13,1.11,1.11,0,0,0,.22.71.26.26,0,0,1-.37.11.18.18,0,0,1,0-.28s.09-.09.14,0a.09.09,0,1,0,.09.09.21.21,0,0,0-.07-.2.27.27,0,0,0-.22-.06c-.2,0-.31.46.09.63,0,0,.31.15.47-.09,0,0,0,0,.06,0a1.26,1.26,0,0,0,1.37,0l.16-.09a.24.24,0,0,0,.23.23.23.23,0,0,0,.23-.24.22.22,0,0,0-.19-.22s-.15,0-.37.08c0,0-.22.15-.21.12a1.4,1.4,0,0,0,.16-.45c.32,0,.65.06,1,.06a1.13,1.13,0,0,1-.06.32s-.12,0-.12.14,0,.06.09.14a.55.55,0,0,1,.1.16s0,.09.14.09h.05c.13,0,.13-.09.13-.09a.77.77,0,0,1,.11-.16c.1-.08.09-.14.09-.14s-.12-.14-.12-.14a.87.87,0,0,1-.06-.32c.34,0,.68,0,1-.06a1.2,1.2,0,0,0,.16.45s-.22-.12-.22-.12a.43.43,0,0,0-.37-.08.23.23,0,0,0-.19.22.24.24,0,0,0,.23.24.25.25,0,0,0,.24-.23l.15.09a1.26,1.26,0,0,0,1.37,0c.07-.06.06,0,.06,0,.17.24.48.09.48.09.4-.17.28-.6.08-.63a.24.24,0,0,0-.21.06.26.26,0,0,0-.08.2.11.11,0,0,0,.1.09.09.09,0,0,0,0-.18c0-.11.14,0,.14,0a.18.18,0,0,1,0,.28.25.25,0,0,1-.36-.11,1.16,1.16,0,0,0,.22-.71l.36-.13a3,3,0,0,1,.56.43,1.44,1.44,0,0,0,1.89.05s.07,0,.08,0h0a.16.16,0,0,0,.11.05.14.14,0,0,0,.11-.06.16.16,0,0,0,0-.08h0a.13.13,0,0,0,0-.09m-10-.17a0,0,0,0,1-.06,0c-.28-.35.15-.74.28-.5,0,0-.16,0-.14.12s0,.12.15.11.2,0,.15-.27a.19.19,0,0,0-.15-.14.43.43,0,0,0-.5.21.65.65,0,0,0,0,.18.35.35,0,0,0-.14-.06A1.78,1.78,0,0,1,4,8.56a.92.92,0,0,0,.73-.69.33.33,0,0,1,.18.22c0,.07,0,.15,0,.21a.89.89,0,0,0,.29.22,4.52,4.52,0,0,0,.48.34c.05,0,.09,0,.14,0l0,0,.07.05a3.38,3.38,0,0,0-.42.33,3.46,3.46,0,0,1-1,.6m1.33.38a1.83,1.83,0,0,1-.06.19,1.23,1.23,0,0,1-.13-.49l.27.08a1.43,1.43,0,0,0-.08.22m1.06.51a.94.94,0,0,1-1-.18,2.12,2.12,0,0,1,.14-.51,7.4,7.4,0,0,0,1,.18c0,.22-.07.5-.16.51m-.56-1.1a.59.59,0,0,1,.44-.18.32.32,0,0,1,.3.31c-.28,0-.53-.08-.74-.13m.56-.36a1.29,1.29,0,0,0-.71.32l-.44-.12a1.1,1.1,0,0,1,.09-.14A1.19,1.19,0,0,1,7.2,9.08s0,.15-.28.2m.4.52c0-.34.06-.63.18-.63a.19.19,0,0,1,.15.09c.11.15.4.33.54.6-.31,0-.61,0-.87-.06m1.36.06c.13-.27.42-.45.53-.6a.19.19,0,0,1,.15-.09c.13,0,.15.29.19.63q-.41,0-.87.06m1-.78A1.19,1.19,0,0,1,11,9.34a1.1,1.1,0,0,1,.09.14l-.45.12a1.27,1.27,0,0,0-.71-.32c-.23,0-.29-.19-.27-.2m.4.38a.61.61,0,0,1,.44.18c-.21,0-.46.09-.74.13a.32.32,0,0,1,.3-.31M10,10.74c-.09,0-.14-.29-.16-.51a7.4,7.4,0,0,0,1-.18,1.85,1.85,0,0,1,.13.51.93.93,0,0,1-1,.18m1.12-.32a.78.78,0,0,1-.06-.19,1.43,1.43,0,0,0-.08-.22l.27-.08a1.23,1.23,0,0,1-.13.49"/><path class="cls-1" d="M18.23,4.47h-.4l.57-2.11h.68l.55,2.11h-.46L19.06,4h-.72Zm.41-1.75-.23.94H19l-.22-.94Z"/><path class="cls-1" d="M21.21,2.94v.3a1.18,1.18,0,0,1-.29-.05.38.38,0,0,1,.15.24c0,.37-.37.52-.63.52l-.19,0c-.05,0-.08,0-.08.08s1,0,1,.55c0,.36-.34.55-.73.55s-.64-.14-.64-.42.15-.3.4-.34c-.19,0-.38-.08-.38-.26s.12-.22.29-.23a.46.46,0,0,1-.27-.43c0-.41.38-.52.63-.52l.77,0m-.83,1.44a.23.23,0,0,0-.23.23.25.25,0,0,0,.28.23c.19,0,.31-.1.31-.25s-.12-.19-.36-.21m.33-.95c0-.19-.15-.23-.27-.23s-.28,0-.28.23.15.24.28.24a.24.24,0,0,0,.27-.24"/><path class="cls-1" d="M21.8,3.81a.35.35,0,0,0,.39.38,1,1,0,0,0,.45-.13l.08.29a1.26,1.26,0,0,1-.58.15.71.71,0,0,1-.75-.8c0-.47.23-.79.72-.79s.64.34.64.72v.18Zm.29-.6c-.21,0-.29.18-.29.36h.56c0-.19-.06-.36-.27-.36"/><path class="cls-1" d="M24,4.47V3.56c0-.23-.09-.34-.27-.34a.54.54,0,0,0-.27.09V4.47H23V2.94h.28l.06.17a.66.66,0,0,1,.49-.2c.38,0,.54.22.54.61v.95Z"/><path class="cls-1" d="M25.92,4.37a1.3,1.3,0,0,1-.53.13c-.45,0-.73-.26-.73-.8a.7.7,0,0,1,.73-.79,1.12,1.12,0,0,1,.53.12l-.11.28a.71.71,0,0,0-.38-.09c-.22,0-.35.14-.35.48s.13.49.35.49a1,1,0,0,0,.41-.11Z"/><path class="cls-1" d="M26.28,4.47V3.23l-.17,0V2.94h.58V4.47Zm0-2.16h.42v.37h-.42Z"/><path class="cls-1" d="M28,4.47l-.06-.18a.57.57,0,0,1-.45.21A.48.48,0,0,1,27,4c0-.28.21-.45.58-.45h.32V3.48c0-.2-.11-.26-.27-.26a1.25,1.25,0,0,0-.46.1L27,3a1.63,1.63,0,0,1,.6-.12c.44,0,.62.2.62.59v1Zm-.12-.67h-.25c-.17,0-.25.08-.25.2a.2.2,0,0,0,.23.22.43.43,0,0,0,.27-.1Z"/><polygon class="cls-1" points="19 7.72 18.35 6.06 18.34 6.06 18.36 7.72 17.99 7.72 17.99 5.61 18.62 5.61 19.29 7.3 19.3 7.3 19.27 5.61 19.65 5.61 19.65 7.72 19 7.72"/><path class="cls-1" d="M21,7.72l-.06-.18a.57.57,0,0,1-.45.21.48.48,0,0,1-.51-.49c0-.29.21-.45.58-.45h.32V6.73c0-.2-.11-.26-.27-.26a1.08,1.08,0,0,0-.46.1L20,6.28a1.45,1.45,0,0,1,.6-.12c.44,0,.63.2.63.59v1Zm-.12-.67h-.25c-.17,0-.25.08-.25.2a.2.2,0,0,0,.23.22.43.43,0,0,0,.27-.1Z"/><path class="cls-1" d="M22.78,7.62a1.29,1.29,0,0,1-.52.13c-.46,0-.74-.26-.74-.8a.7.7,0,0,1,.73-.79,1.09,1.09,0,0,1,.53.12l-.11.28a.71.71,0,0,0-.38-.09c-.22,0-.35.14-.35.48s.13.49.35.49a.87.87,0,0,0,.42-.12Z"/><path class="cls-1" d="M23.15,7.72V6.48l-.18,0V6.19h.58V7.72Zm0-2.16h.42v.37h-.42Z"/><path class="cls-1" d="M25.27,7c0,.52-.26.8-.72.8s-.72-.28-.72-.8a.72.72,0,1,1,1.44,0m-.42,0c0-.37-.11-.5-.3-.5s-.3.13-.3.5.1.5.3.5.3-.13.3-.5"/><path class="cls-1" d="M26.49,7.72V6.81c0-.23-.08-.34-.27-.34a.54.54,0,0,0-.27.09V7.72h-.41V6.19h.28l.07.17a.62.62,0,0,1,.48-.2c.39,0,.54.22.54.61v1Z"/><path class="cls-1" d="M28.16,7.72l-.06-.18a.57.57,0,0,1-.45.21.48.48,0,0,1-.51-.49c0-.29.21-.45.58-.45H28V6.73c0-.2-.11-.26-.27-.26a1.08,1.08,0,0,0-.46.1l-.1-.29a1.45,1.45,0,0,1,.6-.12c.44,0,.63.2.63.59v1ZM28,7.05h-.25c-.17,0-.25.08-.25.2a.2.2,0,0,0,.23.22.43.43,0,0,0,.27-.1Z"/><path class="cls-1" d="M28.76,7.31V5.56h.41V7.29c0,.13.08.15.24.15v.29l-.22,0a.38.38,0,0,1-.43-.44"/><path class="cls-1" d="M31.3,6.31a.85.85,0,0,1,0-.29V5.56h.4V7.72h-.33l0-.17a.52.52,0,0,1-.41.2c-.35,0-.62-.25-.62-.8s.28-.79.65-.79a.5.5,0,0,1,.39.15m0,.23A.52.52,0,0,0,31,6.46c-.19,0-.32.13-.32.49s.12.5.31.5a.41.41,0,0,0,.29-.13Z"/><path class="cls-1" d="M32.35,7.06a.35.35,0,0,0,.4.38,1.06,1.06,0,0,0,.45-.13l.08.29a1.26,1.26,0,0,1-.58.15.71.71,0,0,1-.76-.8c0-.47.23-.79.72-.79a.64.64,0,0,1,.65.72v.18Zm.29-.6c-.2,0-.29.18-.29.36h.56c0-.2-.06-.36-.27-.36"/><rect class="cls-1" x="18.04" y="8.86" width="0.41" height="2.11"/><path class="cls-1" d="M19.8,11v-.91c0-.23-.08-.34-.27-.34a.46.46,0,0,0-.27.09V11h-.41V9.44h.28l.07.17a.62.62,0,0,1,.48-.21c.39,0,.54.23.54.62v1Z"/><polygon class="cls-1" points="21.42 10.97 20.82 10.97 20.36 9.44 20.82 9.44 21.14 10.72 21.16 10.72 21.47 9.44 21.89 9.44 21.42 10.97"/><path class="cls-1" d="M22.41,10.31a.35.35,0,0,0,.4.38,1.06,1.06,0,0,0,.45-.13l.07.29a1.18,1.18,0,0,1-.57.15.72.72,0,0,1-.76-.8c0-.47.23-.8.72-.8a.65.65,0,0,1,.65.73v.18Zm.29-.61c-.2,0-.29.19-.29.37H23c0-.2-.06-.37-.27-.37"/><path class="cls-1" d="M24,9.84c0,.24.66.16.66.66,0,.28-.21.5-.6.5a1.07,1.07,0,0,1-.46-.11l.08-.29a.7.7,0,0,0,.36.11c.14,0,.23-.08.23-.17,0-.28-.65-.19-.65-.71,0-.22.17-.43.58-.43a1.32,1.32,0,0,1,.43.08l-.06.3a.83.83,0,0,0-.36-.08c-.14,0-.21.05-.21.14"/><path class="cls-1" d="M25.52,11c-.28,0-.45-.13-.45-.51V9.73h-.23V9.44h.23V9.17l.4-.13v.4h.41v.29h-.41v.75a.15.15,0,0,0,.16.17.6.6,0,0,0,.24-.05l.06.3a.91.91,0,0,1-.41.1"/><path class="cls-1" d="M26.28,11V9.73l-.17,0V9.44h.58V11Zm0-2.16h.42v.37h-.42Z"/><path class="cls-1" d="M28.42,9.44v.3a1.11,1.11,0,0,1-.28-.05.43.43,0,0,1,.15.24c0,.37-.37.52-.63.52l-.2,0a.09.09,0,0,0-.07.09c0,.16,1,0,1,.55,0,.35-.35.55-.73.55s-.65-.14-.65-.42.16-.3.41-.34c-.19,0-.38-.08-.38-.26s.12-.22.29-.23A.48.48,0,0,1,27,9.93a.57.57,0,0,1,.63-.53l.78,0m-.83,1.44c-.15,0-.24.09-.24.23s.12.23.29.23a.26.26,0,0,0,.3-.26c0-.13-.11-.18-.35-.2m.33-1c0-.18-.16-.22-.28-.22s-.27,0-.27.22.15.24.27.24.28,0,.28-.24"/><path class="cls-1" d="M29.6,11l-.06-.18a.56.56,0,0,1-.44.21.48.48,0,0,1-.52-.49c0-.29.21-.46.58-.46h.32V10c0-.2-.11-.26-.27-.26a1,1,0,0,0-.45.1l-.11-.29a1.49,1.49,0,0,1,.61-.13c.43,0,.62.2.62.6v1Zm-.12-.67h-.25c-.17,0-.25.08-.25.2a.2.2,0,0,0,.23.22.43.43,0,0,0,.27-.1Z"/><path class="cls-1" d="M31.42,10.86a1.13,1.13,0,0,1-.52.14c-.46,0-.74-.26-.74-.8a.71.71,0,0,1,.73-.8,1.09,1.09,0,0,1,.53.13l-.11.28a.72.72,0,0,0-.38-.1c-.21,0-.35.15-.35.49s.13.49.35.49a.87.87,0,0,0,.42-.12Z"/><path class="cls-1" d="M31.79,11V9.73l-.18,0V9.44h.58V11Zm0-2.16h.42v.37h-.42Z"/><path class="cls-1" d="M33.91,10.2c0,.52-.26.8-.72.8s-.72-.28-.72-.8a.72.72,0,1,1,1.44,0m-1.1-1,0-.24.79-.22.06.3Zm.68,1c0-.37-.11-.5-.3-.5s-.3.13-.3.5.1.5.3.5.3-.14.3-.5"/><path class="cls-1" d="M35.14,11v-.91c0-.23-.09-.34-.28-.34a.46.46,0,0,0-.27.09V11h-.41V9.44h.28l.07.17A.62.62,0,0,1,35,9.4c.39,0,.54.23.54.62v1Z"/><path class="cls-1" d="M18.55,14.18l-.28.05-.46-1.55h.46L18.6,14h0l.33-1.29h.41l-.47,1.57c-.13.44-.36.61-.67.61a.75.75,0,0,1-.43-.16l.12-.27h0a.63.63,0,0,0,.29.1c.16,0,.27-.11.32-.3Z"/><path class="cls-1" d="M21,14.25a2.56,2.56,0,0,1-.75-.12v-2h.71c.61,0,1,.25,1,1s-.3,1.11-1,1.11m-.06-1.81h-.28v1.42a1.49,1.49,0,0,0,.36,0c.28,0,.5-.16.5-.76s-.16-.7-.58-.7"/><path class="cls-1" d="M22.57,13.56a.35.35,0,0,0,.39.38,1,1,0,0,0,.45-.13l.08.29a1.22,1.22,0,0,1-.58.15.71.71,0,0,1-.75-.8c0-.47.23-.8.72-.8s.64.35.64.73v.18Zm.29-.61c-.2,0-.29.19-.29.37h.56c0-.2-.06-.37-.27-.37"/><path class="cls-1" d="M24.16,13.09c0,.24.66.16.66.66,0,.28-.21.5-.6.5a.94.94,0,0,1-.46-.12l.08-.28a.7.7,0,0,0,.36.11c.14,0,.23-.08.23-.17,0-.28-.65-.19-.65-.71,0-.22.17-.43.58-.43a1.1,1.1,0,0,1,.43.08l-.06.29a1,1,0,0,0-.36-.07c-.14,0-.21.05-.21.14"/><path class="cls-1" d="M26.05,14.22,26,14a.57.57,0,0,1-.45.21.47.47,0,0,1-.51-.49c0-.29.21-.46.58-.46h.32v-.07c0-.2-.11-.26-.27-.26a1.08,1.08,0,0,0-.46.1l-.1-.29a1.44,1.44,0,0,1,.6-.13c.43,0,.62.2.62.59v1Zm-.11-.67h-.25c-.17,0-.25.08-.25.19a.21.21,0,0,0,.23.23.47.47,0,0,0,.27-.1Z"/><path class="cls-1" d="M27.53,13a.58.58,0,0,0-.19,0,.5.5,0,0,0-.28.1v1.12h-.41V12.68h.29l0,.21h0a.42.42,0,0,1,.37-.23l.18,0Z"/><path class="cls-1" d="M28.61,13a.54.54,0,0,0-.19,0,.44.44,0,0,0-.27.1v1.12h-.41V12.68H28l.05.21h0a.39.39,0,0,1,.36-.23l.18,0Z"/><path class="cls-1" d="M30.12,13.45c0,.52-.26.8-.71.8s-.72-.28-.72-.8a.72.72,0,1,1,1.43,0m-.41,0c0-.37-.11-.5-.3-.5s-.3.13-.3.5.1.5.3.5.3-.14.3-.5"/><path class="cls-1" d="M30.4,13.81V12.06h.41v1.73c0,.13.07.14.24.14v.29a1.08,1.08,0,0,1-.22,0,.38.38,0,0,1-.43-.44"/><path class="cls-1" d="M31.29,13.81V12.06h.4v1.73c0,.13.08.14.25.14v.29a1.08,1.08,0,0,1-.22,0c-.32,0-.43-.17-.43-.44"/><path class="cls-1" d="M33.55,13.45c0,.52-.26.8-.72.8s-.72-.28-.72-.8a.72.72,0,1,1,1.44,0m-.42,0c0-.37-.11-.5-.3-.5s-.3.13-.3.5.1.5.3.5.3-.14.3-.5"/><path class="cls-1" d="M19,18l0-1h0c0,.13,0,.22-.05.28l-.17.7h-.33l-.16-.7c0-.06,0-.15-.06-.28h0l0,1H18l0-1.16h.39s.12.59.19,1h0c.07-.37.22-1,.22-1h.38L19.23,18Z"/><path class="cls-1" d="M19.49,18v-.68l-.1,0v-.14h.32V18Zm0-1.18h.23V17h-.23Z"/><path class="cls-1" d="M20.44,18v-.5c0-.13-.05-.19-.15-.19a.25.25,0,0,0-.15.06V18h-.22v-.84h.15l0,.1a.32.32,0,0,1,.26-.12c.21,0,.3.13.3.34V18Z"/><path class="cls-1" d="M20.92,18v-.68l-.1,0v-.14h.32V18Zm0-1.18h.23V17h-.23Z"/><path class="cls-1" d="M21.54,17.4c0,.13.37.09.37.37s-.12.27-.33.27a.59.59,0,0,1-.26-.06l.05-.16a.36.36,0,0,0,.2.06c.07,0,.12,0,.12-.09s-.36-.11-.36-.39c0-.13.1-.24.32-.24a.8.8,0,0,1,.24,0l0,.17a.46.46,0,0,0-.2-.05c-.08,0-.12,0-.12.08"/><path class="cls-1" d="M22.39,18c-.15,0-.24-.07-.24-.28v-.42H22v-.16h.13V17l.22-.07v.22h.22v.16h-.22v.41c0,.06,0,.1.09.1l.13,0,0,.16a.48.48,0,0,1-.23.06"/><path class="cls-1" d="M22.91,17.66a.2.2,0,0,0,.22.21.55.55,0,0,0,.25-.07l0,.16a.83.83,0,0,1-.32.08.39.39,0,0,1-.41-.44c0-.26.12-.44.39-.44a.35.35,0,0,1,.36.4v.1Zm.16-.33c-.11,0-.16.1-.16.2h.31c0-.11,0-.2-.15-.2"/><path class="cls-1" d="M24.08,17.37l-.1,0a.25.25,0,0,0-.15.06V18h-.22v-.84h.15l0,.11h0a.23.23,0,0,1,.2-.13.22.22,0,0,1,.1,0Z"/><path class="cls-1" d="M24.29,18v-.68l-.1,0v-.14h.32V18Zm0-1.18h.23V17h-.23Z"/><path class="cls-1" d="M25.47,17.6c0,.29-.14.44-.39.44s-.4-.15-.4-.44a.4.4,0,1,1,.79,0m-.23,0c0-.2-.06-.27-.16-.27s-.17.07-.17.27.06.27.17.27.16-.07.16-.27"/><path class="cls-1" d="M26.56,17.24a.61.61,0,0,1,0-.15v-.25h.22V18h-.18l0-.09a.3.3,0,0,1-.23.11c-.19,0-.34-.14-.34-.44s.16-.44.36-.44a.29.29,0,0,1,.21.08m0,.13a.3.3,0,0,0-.15,0c-.11,0-.18.07-.18.27s.07.27.17.27a.2.2,0,0,0,.16-.07Z"/><path class="cls-1" d="M27.16,17.66a.19.19,0,0,0,.21.21.52.52,0,0,0,.25-.07l0,.16a.77.77,0,0,1-.31.08.39.39,0,0,1-.42-.44c0-.26.13-.44.4-.44s.35.19.35.4v.1Zm.16-.33c-.12,0-.16.1-.16.2h.3c0-.11,0-.2-.14-.2"/><path class="cls-1" d="M28.7,18c-.32,0-.5-.22-.5-.6s.18-.59.5-.59a.79.79,0,0,1,.4.09l-.09.19a.44.44,0,0,0-.28-.09c-.19,0-.29.14-.29.39s.1.41.29.41a.52.52,0,0,0,.3-.11l.07.18a.66.66,0,0,1-.4.13"/><path class="cls-1" d="M29.28,18v-.68l-.1,0v-.14h.32V18Zm0-1.18h.23V17h-.23Z"/><path class="cls-1" d="M29.9,17.66a.2.2,0,0,0,.22.21.51.51,0,0,0,.24-.07l.05.16a.83.83,0,0,1-.32.08.39.39,0,0,1-.41-.44c0-.26.12-.44.39-.44s.35.19.35.4v.1Zm.16-.33c-.11,0-.16.1-.16.2h.31c0-.11,0-.2-.15-.2"/><path class="cls-1" d="M31.12,18v-.5c0-.13-.05-.19-.15-.19a.25.25,0,0,0-.15.06V18h-.23v-.84h.16l0,.1a.35.35,0,0,1,.27-.12c.21,0,.29.13.29.34V18Z"/><path class="cls-1" d="M32.2,18a.59.59,0,0,1-.29.08c-.25,0-.4-.14-.4-.44a.39.39,0,0,1,.4-.44.54.54,0,0,1,.29.07l-.06.15a.5.5,0,0,0-.21-.05c-.12,0-.19.08-.19.27s.07.27.19.27a.42.42,0,0,0,.23-.07Z"/><path class="cls-1" d="M32.41,18v-.68l-.09,0v-.14h.32V18Zm0-1.18h.22V17h-.22Z"/><path class="cls-1" d="M33.36,18l0-.1a.3.3,0,0,1-.25.12.27.27,0,0,1-.28-.27c0-.16.12-.25.32-.25h.18v0a.13.13,0,0,0-.15-.15.61.61,0,0,0-.25.06l-.06-.16a1,1,0,0,1,.33-.07c.24,0,.34.11.34.33V18Zm-.06-.37h-.14c-.09,0-.14.05-.14.11a.12.12,0,0,0,.13.13.28.28,0,0,0,.15-.06Z"/><path class="cls-1" d="M33.69,17.78h.23V18c0,.15-.09.21-.23.22v-.11s.05,0,.05-.12l-.05,0Z"/><polygon class="cls-1" points="18.39 19.26 18.39 20.23 18.16 20.23 18.16 19.26 17.88 19.26 17.88 19.07 18.68 19.07 18.68 19.26 18.39 19.26"/><path class="cls-1" d="M18.81,19.87c0,.13.08.2.22.2a.55.55,0,0,0,.25-.07l0,.16a.68.68,0,0,1-.32.08.38.38,0,0,1-.41-.43c0-.26.12-.44.39-.44a.35.35,0,0,1,.36.4v.1Zm.16-.34c-.11,0-.16.1-.16.2h.31c0-.1,0-.2-.15-.2"/><path class="cls-1" d="M20.18,20.17a.59.59,0,0,1-.29.08c-.25,0-.4-.15-.4-.44a.39.39,0,0,1,.4-.44.51.51,0,0,1,.28.07l-.05.15a.38.38,0,0,0-.21-.05c-.12,0-.2.08-.2.27s.07.27.2.27a.56.56,0,0,0,.23-.07Z"/><path class="cls-1" d="M20.85,20.23v-.5c0-.13-.05-.19-.15-.19a.33.33,0,0,0-.15.05v.64h-.23v-.84h.16l0,.09a.38.38,0,0,1,.27-.11c.21,0,.3.12.3.34v.52Z"/><path class="cls-1" d="M22,19.81c0,.28-.14.44-.39.44a.39.39,0,0,1-.4-.44.4.4,0,1,1,.79,0m-.23,0c0-.21-.06-.28-.16-.28s-.16.07-.16.28.05.27.16.27.16-.07.16-.27"/><path class="cls-1" d="M22.18,20V19h.22V20c0,.07.05.08.14.08v.16h-.12a.21.21,0,0,1-.24-.24"/><path class="cls-1" d="M23.44,19.81c0,.28-.14.44-.39.44a.39.39,0,0,1-.4-.44.4.4,0,1,1,.79,0m-.23,0c0-.21-.06-.28-.16-.28s-.17.07-.17.28.06.27.17.27.16-.07.16-.27"/><path class="cls-1" d="M24.37,19.39v.16l-.16,0a.26.26,0,0,1,.09.14c0,.2-.21.28-.35.28h-.11s0,0,0,.05.53,0,.53.3-.19.3-.4.3-.35-.08-.35-.23.08-.16.22-.19c-.1,0-.21,0-.21-.14s.07-.12.16-.13a.25.25,0,0,1-.15-.23c0-.23.21-.29.35-.29l.42,0m-.46.79a.12.12,0,0,0-.12.12.13.13,0,0,0,.15.13c.1,0,.17-.05.17-.14s-.06-.1-.2-.11m.19-.53c0-.1-.09-.12-.15-.12s-.15,0-.15.12a.15.15,0,0,0,.3,0"/><path class="cls-1" d="M24.46,19.26l0-.13.44-.13,0,.17Zm.13,1v-.68l-.1,0v-.14h.32v.84Z"/><path class="cls-1" d="M25.54,20.23l0-.1a.32.32,0,0,1-.25.12A.26.26,0,0,1,25,20c0-.16.11-.25.32-.25h.17v-.05c0-.1-.06-.14-.15-.14a.66.66,0,0,0-.25.06L25,19.44a.74.74,0,0,1,.33-.07c.24,0,.34.11.34.32v.54Zm-.07-.37h-.14c-.09,0-.13.05-.13.11a.11.11,0,0,0,.12.12.25.25,0,0,0,.15-.05Z"/><path class="cls-1" d="M25.86,20h.23v.25c0,.15-.08.21-.23.22v-.12s.06,0,.06-.11l-.06,0Z"/><path class="cls-1" d="M27.13,20.24c-.33,0-.51-.21-.51-.6s.18-.59.51-.59a.75.75,0,0,1,.39.1l-.09.18a.44.44,0,0,0-.28-.08c-.19,0-.29.14-.29.39s.1.41.29.41a.52.52,0,0,0,.3-.11l.07.18a.65.65,0,0,1-.39.12"/><path class="cls-1" d="M28.37,19.81c0,.28-.14.44-.39.44s-.4-.16-.4-.44a.4.4,0,1,1,.79,0m-.23,0c0-.21-.06-.28-.16-.28s-.17.07-.17.28.06.27.17.27.16-.07.16-.27"/><path class="cls-1" d="M29.06,20.23v-.5c0-.13,0-.19-.15-.19a.33.33,0,0,0-.15.05v.64h-.22v-.84h.15l0,.09a.35.35,0,0,1,.26-.11c.22,0,.3.12.3.34v.52Z"/><path class="cls-1" d="M30.23,19.81a.39.39,0,0,1-.4.44c-.25,0-.39-.16-.39-.44a.4.4,0,1,1,.79,0m-.23,0c0-.21-.06-.28-.17-.28s-.16.07-.16.28,0,.27.16.27S30,20,30,19.81"/><path class="cls-1" d="M31.07,20.17a.59.59,0,0,1-.29.08c-.25,0-.4-.15-.4-.44a.39.39,0,0,1,.4-.44.51.51,0,0,1,.28.07l0,.15a.38.38,0,0,0-.21-.05c-.12,0-.2.08-.2.27s.07.27.2.27A.56.56,0,0,0,31,20Z"/><path class="cls-1" d="M31.28,20.23v-.68l-.09,0v-.14h.32v.84Zm0-1.19h.22v.21h-.22Z"/><path class="cls-1" d="M32.45,19.71v.52h-.22v-.5c0-.13,0-.19-.15-.19a.33.33,0,0,0-.15.05v.64h-.22v-.84h.15l0,.09a.35.35,0,0,1,.25-.11.27.27,0,0,1,.26.12.33.33,0,0,1,.25-.12c.24,0,.31.12.31.34v.52h-.22v-.5c0-.13-.06-.19-.16-.19a.26.26,0,0,0-.14.05v.12"/><path class="cls-1" d="M33.22,20.23v-.68l-.09,0v-.14h.32v.84Zm0-1.19h.23v.21h-.23Z"/><path class="cls-1" d="M33.84,19.87c0,.13.08.2.22.2a.55.55,0,0,0,.25-.07l0,.16a.65.65,0,0,1-.32.08.38.38,0,0,1-.41-.43c0-.26.12-.44.39-.44a.35.35,0,0,1,.36.4v.1Zm.16-.34c-.11,0-.16.1-.16.2h.31c0-.1,0-.2-.15-.2"/><path class="cls-1" d="M35.06,20.23v-.5c0-.13-.05-.19-.15-.19a.33.33,0,0,0-.15.05v.64h-.22v-.84h.15l0,.09a.35.35,0,0,1,.26-.11c.21,0,.3.12.3.34v.52Z"/><path class="cls-1" d="M35.78,20.24c-.15,0-.24-.07-.24-.28v-.41h-.13v-.16h.13v-.15l.22-.07v.22H36v.16h-.22V20a.08.08,0,0,0,.09.09A.24.24,0,0,0,36,20l0,.17a.49.49,0,0,1-.23,0"/><path class="cls-1" d="M36.87,19.81a.39.39,0,0,1-.4.44c-.25,0-.39-.16-.39-.44a.39.39,0,0,1,.39-.44.4.4,0,0,1,.4.44m-.23,0c0-.21-.06-.28-.17-.28s-.16.07-.16.28,0,.27.16.27.17-.07.17-.27"/><path class="cls-1" d="M18.15,22.07a.19.19,0,0,0,.21.21.52.52,0,0,0,.25-.07l.05.16a.72.72,0,0,1-.32.08.39.39,0,0,1-.42-.44.38.38,0,0,1,.4-.43c.25,0,.35.18.35.4v.09Zm.16-.33c-.12,0-.16.1-.16.2h.31c0-.11,0-.2-.15-.2"/><rect class="cls-1" x="19.26" y="21.28" width="0.22" height="1.16"/><path class="cls-1" d="M20.24,22.43v-.5c0-.12,0-.18-.15-.18a.22.22,0,0,0-.14.05v.63h-.23v-.84h.16l0,.1a.34.34,0,0,1,.27-.11c.21,0,.29.12.29.33v.52Z"/><path class="cls-1" d="M21.18,22.43v-.5q0-.18-.15-.18a.25.25,0,0,0-.15.05v.63h-.23v-.84h.16l0,.1a.34.34,0,0,1,.27-.11c.21,0,.3.12.3.33v.52Z"/><path class="cls-1" d="M22.35,22c0,.29-.15.44-.4.44s-.39-.15-.39-.44a.38.38,0,0,1,.39-.43.4.4,0,0,1,.4.43m-.23,0c0-.2-.06-.27-.17-.27s-.16.07-.16.27.05.28.16.28.17-.08.17-.28"/><polygon class="cls-1" points="23 22.43 22.68 22.43 22.43 21.59 22.68 21.59 22.85 22.3 22.86 22.3 23.04 21.59 23.26 21.59 23 22.43"/><path class="cls-1" d="M23.89,22.43l0-.1a.28.28,0,0,1-.24.12.26.26,0,0,1-.28-.27c0-.15.11-.25.31-.25h.18v0c0-.11-.06-.14-.15-.14a.62.62,0,0,0-.25.05l-.06-.15a.82.82,0,0,1,.34-.07c.23,0,.34.11.34.32v.53Zm-.06-.36h-.14c-.09,0-.13,0-.13.1s0,.13.12.13a.28.28,0,0,0,.15-.06Z"/><path class="cls-1" d="M24.91,22.38a.76.76,0,0,1-.29.07c-.25,0-.4-.14-.4-.44a.38.38,0,0,1,.4-.43.54.54,0,0,1,.29.07l-.06.15a.38.38,0,0,0-.21-.05c-.12,0-.19.08-.19.26s.07.27.19.27a.48.48,0,0,0,.23-.06Z"/><path class="cls-1" d="M25.13,22.43v-.68l-.1,0v-.14h.32v.84Zm0-1.18h.23v.2h-.23Z"/><path class="cls-1" d="M26.31,22c0,.29-.14.44-.39.44s-.4-.15-.4-.44a.4.4,0,1,1,.79,0m-.6-.55,0-.13.43-.12,0,.17Zm.37.55c0-.2-.06-.27-.16-.27s-.17.07-.17.27.06.28.17.28.16-.08.16-.28"/><path class="cls-1" d="M27,22.43v-.5q0-.18-.15-.18a.25.25,0,0,0-.15.05v.63h-.22v-.84h.15l0,.1a.32.32,0,0,1,.26-.11c.22,0,.3.12.3.33v.52Z"/></svg>