<svg id="Capa_1" data-name="Capa 1" xmlns="http://www.w3.org/2000/svg" xmlns:xlink="http://www.w3.org/1999/xlink" viewBox="0 0 112.79 43.35"><defs><style>.cls-1{fill:none;}.cls-2{clip-path:url(#clip-path);}.cls-3{fill:#fff;}</style><clipPath id="clip-path"><path class="cls-1" d="M0,21.68A21.68,21.68,0,1,0,21.68,0,21.68,21.68,0,0,0,0,21.68"/></clipPath></defs><g class="cls-2"><path class="cls-3" d="M24.53,21.74h1.74A4.56,4.56,0,0,1,25,24.88L23.35,23.2h.14A.84.84,0,0,0,24,23l.61-.47a.49.49,0,0,0,.18-.54.52.52,0,0,0-.25-.28m-7.43-.28H21l-.06-.08-.2-.4-.14-.13h0a.44.44,0,0,1-.31-.13L20,20.43a.41.41,0,0,1-.12-.35l-1.49-1.49a4.58,4.58,0,0,0-1.25,2.87m7.73,3.62L23,23.2a.81.81,0,0,1-.21-.05.39.39,0,0,1-.16-.1l-.36-.36L22,22.38v3.94a4.51,4.51,0,0,0,2.87-1.24m-4.55-5h0Zm-8.82,1.39h5.36a4.87,4.87,0,0,1,1.33-3.07l-3.84-3.84a10.46,10.46,0,0,0-2.85,6.91m6.89-3.26a4.94,4.94,0,0,1,1-.76l.06-.12a.76.76,0,0,1,0-.15s0,0,0-.06V15.55a.66.66,0,0,1,0-.14h0A.52.52,0,0,1,19,15.1l-.18-.39a.91.91,0,0,1-.08-.49l.13-.88a.74.74,0,0,1,.29-.49l.06,0-.39-1.07v0a10.44,10.44,0,0,0-4.36,2.64Zm3.33,8.14V22.15l0,0a.36.36,0,0,1-.07-.1l-3,3.06A4.56,4.56,0,0,0,21.68,26.34Zm-4.59-4.6a4.56,4.56,0,0,0,1.24,3.14l3.05-3.05s-.05,0-.07-.06l0,0Zm1.46-3.35,1.29,1.3V18.38a.51.51,0,0,1-.4-.2.56.56,0,0,1-.11-.37,4.51,4.51,0,0,0-.78.58m12.6,17,1,0,.17,0,1.19-.26a1.14,1.14,0,0,1,.45,0l.45.11a.9.9,0,0,1,.43.27l1.72,2,.37-.34-3.54-3.54a16.45,16.45,0,0,1-2.19,1.81M38.3,21.46h5a21.59,21.59,0,0,0-6.22-15l-3.6,3.61A16.62,16.62,0,0,1,38.3,21.46M21.68,26.62a4.84,4.84,0,0,1-3.35-1.34l-3.85,3.84A10.48,10.48,0,0,0,19.73,32a.49.49,0,0,1,.06-.37.53.53,0,0,1,.45-.24h0l.28-.4a.52.52,0,0,1,.44-.23.47.47,0,0,1,.32.12h0a.45.45,0,0,1,.22-.19v-.44a.22.22,0,0,1,0-.08l.15-.88Zm4.24-14.48h-.06v.39a.83.83,0,0,1-.18.5l-.5.62a.77.77,0,0,1-.54.26h-.28l.29.66a.6.6,0,0,1-.22.73l-.06,0v0a.79.79,0,0,1-.22.53l-.67.67v.36a.32.32,0,0,1,0,.14l.34.14a.43.43,0,0,1,.21.23l0,.08a4.47,4.47,0,0,1,.92.68l4.13-4.13a10.72,10.72,0,0,0-2.9-1.93Zm-2,6.39-.48.53v.07a1.2,1.2,0,0,1-.07.46L23.2,20l1.61-1.61a4.45,4.45,0,0,0-.69-.52V18a.78.78,0,0,1-.19.51m8.54,2.93a10.48,10.48,0,0,0-3.13-7.19l-4.13,4.12a4.87,4.87,0,0,1,1.33,3.07ZM25,18.59l-2,2v0a.26.26,0,0,1,.08.13l.16.43a.37.37,0,0,1,.07.14h.13a.42.42,0,0,1,.26.08l.09.07h2.43A4.58,4.58,0,0,0,25,18.59M9.84,10.09,6.23,6.48A21.57,21.57,0,0,0,0,21.46H5.06A16.62,16.62,0,0,1,9.84,10.09m8.93-4.71a.28.28,0,0,1,0-.13l.38-3.11a1.23,1.23,0,0,0,0-.2V.16A21.56,21.56,0,0,0,6.43,6.28L10,9.89a16.67,16.67,0,0,1,8.73-4.51M38,21.74H32.76a10.79,10.79,0,0,1-3.2,7.67l3.78,3.77A16.29,16.29,0,0,0,38,21.74M33.48,5.5a.8.8,0,0,1-.4.39L32.8,6l-1,1.64a.69.69,0,0,1-.57.32h0l-.08.13h0a16.42,16.42,0,0,1,2.18,1.8l3.61-3.61A22.77,22.77,0,0,0,34.16,4ZM15.42,36.8a.42.42,0,0,1,.11-.15l-.31-.35a1,1,0,0,1-.21-.41l0-.21a.69.69,0,0,1,.17-.61l.26-.28a.66.66,0,0,1,.64-.18l.49.14.72-.43a.87.87,0,0,1,.47-.12l1.59.06.4-.75a.58.58,0,0,1,.59-.31L20,32.61a.33.33,0,0,1,0-.17l-.09-.11a10.83,10.83,0,0,1-5.59-3l-4.06,4.06a16.42,16.42,0,0,0,5.16,3.44l0,0M12.3,39.53l0-.07a.61.61,0,0,1,.13-.73l.88-.79a1.6,1.6,0,0,1,.32-.21l1.52-.68,0,0A16.53,16.53,0,0,1,10,33.58L6.48,37.13a21.5,21.5,0,0,0,4.86,3.6Zm26-17.79h0a16.59,16.59,0,0,1-4.76,11.64l3.54,3.55a21.66,21.66,0,0,0,6.27-15.19Zm-33,0A16.29,16.29,0,0,0,10,33.18l4.07-4.06a10.76,10.76,0,0,1-2.92-7.38Zm-.28,0H0A21.59,21.59,0,0,0,6.28,36.93l3.55-3.55A16.55,16.55,0,0,1,5.06,21.74m.29-.28h5.82a10.82,10.82,0,0,1,2.94-7.11L10,10.29A16.28,16.28,0,0,0,5.35,21.46m27.13.28H26.56a4.89,4.89,0,0,1-1.33,3.34l4.13,4.13a10.51,10.51,0,0,0,3.12-7.47M29.35,29.6a10.77,10.77,0,0,1-5.43,2.76s0,0,0,.06v.37a.24.24,0,0,0,0,.08l.25.57a.76.76,0,0,1,0,.59l-.31.67h0a.79.79,0,0,1,.49.17l.95.76a1.67,1.67,0,0,1,.25.28l.45.65,1,.16h0a.46.46,0,0,1,.33.16A16.73,16.73,0,0,0,30.2,35.5a.38.38,0,0,1,.21-.07h.2a16.61,16.61,0,0,0,2.53-2Zm-17.9-7.86a10.47,10.47,0,0,0,2.84,7.18l3.84-3.84a4.88,4.88,0,0,1-1.32-3.34Zm12.11,5.43a.87.87,0,0,1,.49-.16h.31a.48.48,0,0,1,.45.25.49.49,0,0,1,0,.52l-.29.47a.77.77,0,0,1-.47.32l-.22,0,0,0-.12.1a1,1,0,0,1,.1.21l.15.33a.86.86,0,0,1,0,.5L23.67,31l.13.23a1.05,1.05,0,0,1,.11.43v.42a10.56,10.56,0,0,0,5.24-2.67L25,25.28A4.85,4.85,0,0,1,22,26.61v1.81l.09-.08Zm-9.26-13a10.73,10.73,0,0,1,4.48-2.71.3.3,0,0,1,0-.1.71.71,0,0,1,0-.3l.76-2.28a.36.36,0,0,0,0-.1V7.87l-.11-.1a.8.8,0,0,1-.21-.53V6.82a1.41,1.41,0,0,1,.07-.41l.1-.23L19.09,6a.65.65,0,0,1-.18-.15.35.35,0,0,1-.1-.21,16.29,16.29,0,0,0-8.57,4.43ZM38,21.46a16.34,16.34,0,0,0-4.7-11.17l-3.78,3.78a10.76,10.76,0,0,1,3.21,7.39ZM30.55,9a1,1,0,0,1-.35.31l-.74.37a.75.75,0,0,1-.57,0l-.55-.19a1.28,1.28,0,0,1,0,.19v0l.17.08a.54.54,0,0,1,.31.38.53.53,0,0,1-.14.46l-1.11,1.22a.76.76,0,0,1-.53.23h-.15a11.41,11.41,0,0,1,2.45,1.73l3.78-3.78A16.32,16.32,0,0,0,31,8.33Z"/><path class="cls-3" d="M22,17.16a4.6,4.6,0,0,1,1.7.45.32.32,0,0,1,0,.09V18a.36.36,0,0,1-.09.22l-.53.58A.4.4,0,0,0,23,19l0,.15a.45.45,0,0,1,0,.23l-.39.9a.36.36,0,0,0,0,.23l0,.06-.65.65Zm2.1-3.7h.58a.32.32,0,0,0,.2-.1l.5-.62a.42.42,0,0,0,.08-.22v-.69h0A10.43,10.43,0,0,0,22,11.23v5.65a5.59,5.59,0,0,1,1.11.2A.35.35,0,0,1,23,17v-.46a.31.31,0,0,1,.09-.21l.71-.71a.36.36,0,0,0,.09-.22v-.16A.3.3,0,0,1,24,15l.16-.1a.14.14,0,0,0,0-.18l-.3-.71a.61.61,0,0,1,0-.23v-.22a.14.14,0,0,1,.14-.12m-2.38,3.69h0a4.63,4.63,0,0,0-1.86.4l-.05.27a.09.09,0,0,0,.09.12h.29a.13.13,0,0,1,.13.13v2a.2.2,0,0,1,0,.07l.29.29h.25a.22.22,0,0,1,.18.11l.34.66.29.28h.06Zm6.06-8.28L29,9.3a.3.3,0,0,0,.23,0L30,8.92a.55.55,0,0,0,.18-.16l.44-.68A16.22,16.22,0,0,0,22,5.41V11a10.85,10.85,0,0,1,4,.75H27a.33.33,0,0,0,.21-.09l1.11-1.22a.08.08,0,0,0,0-.14L28,10.1a.19.19,0,0,1-.1-.17V9.7a.93.93,0,0,0,0-.24l-.2-.52c0-.06,0-.1.07-.07M22,21.81l.05,0h0a.9.9,0,0,1,.2.14l.31.38.36.36.09,0h.51a.48.48,0,0,0,.23-.07l.61-.48c.05,0,0-.08,0-.08H24a.36.36,0,0,1-.22-.09l-.2-.21a.36.36,0,0,0-.09-.08H22Zm.18-.35H23l-.08-.1-.17-.47Zm-.46-10.22a10.69,10.69,0,0,0-2.41.34l.46,1.27a.16.16,0,0,1-.06.19l-.22.16a.32.32,0,0,0-.12.2l-.12.89a.47.47,0,0,0,0,.23l.18.4c0,.06.08.06.12,0l.31-.47a.07.07,0,0,1,.13,0l.13.23a.24.24,0,0,1,0,.22l-.18.39a.65.65,0,0,0-.06.24v1.67a4.64,4.64,0,0,1,1.79-.35Zm0-6.12V-.28a1.37,1.37,0,0,0,.28,0V5.13a16.48,16.48,0,0,1,8.82,2.72l.14-.22a.27.27,0,0,1,.2-.11h.15a.27.27,0,0,0,.19-.1l1-1.66a.55.55,0,0,1,.18-.16l.3-.12a.33.33,0,0,0,.17-.16l.82-1.83A1.57,1.57,0,0,0,34,3.26l.74-2a.12.12,0,0,0-.08-.15L25.86-1.79a.45.45,0,0,0-.23,0L19.73-.08a.17.17,0,0,0-.12.16V1.94a2.11,2.11,0,0,1,0,.25L19.2,5.31A15.66,15.66,0,0,1,21.68,5.12Zm0,.28h0a16.39,16.39,0,0,0-2.44.18s0,0,0,0l.59.29a.13.13,0,0,1,.06.17l-.2.5a.93.93,0,0,0,0,.24v.42a.3.3,0,0,0,.08.21l.15.15a.33.33,0,0,1,.09.21v.85a.93.93,0,0,1,0,.24l-.76,2.27a.22.22,0,0,0,0,.14A10.6,10.6,0,0,1,21.68,11ZM36.44,38.05l-2-2.33a.37.37,0,0,0-.2-.12l-.45-.11a.64.64,0,0,0-.24,0l-1.19.27-.25,0-1.69.09A16.56,16.56,0,0,1,22,38.36v5.15h-.28V38.37a16.51,16.51,0,0,1-6.1-1.17l-.09.11a.9.9,0,0,1-.2.14l-1.52.68-.2.13-.89.8a.17.17,0,0,0,0,.19l.12.21a.22.22,0,0,1,0,.21l-1.69,2.12a.17.17,0,0,0,0,.19l2.54,3a.32.32,0,0,0,.2.1l14.49.54a.32.32,0,0,0,.21-.08l7.93-7.28a.14.14,0,0,0,0-.18M22,38.08a16.12,16.12,0,0,0,5.12-.92H27l-1-.18a.33.33,0,0,1-.19-.12l-.48-.7a.73.73,0,0,0-.17-.18l-.94-.77a.49.49,0,0,0-.22-.08h-.28a.15.15,0,0,1-.15-.12l0-.22a.45.45,0,0,1,0-.23l.33-.72a.3.3,0,0,0,0-.23L23.56,33a.65.65,0,0,1-.06-.24v-.37a11,11,0,0,1-1.53.11ZM15.55,36l.76.86c0,.05,0,.09,0,.09h-.33a.27.27,0,0,0-.12,0,16.12,16.12,0,0,0,5.87,1.1V32.53a10.87,10.87,0,0,1-1.28-.11l.52,1.07a.14.14,0,0,1-.05.18l-.11.06a.24.24,0,0,1-.22,0l-.28-.1a.13.13,0,0,0-.17.06l-.47.88a.2.2,0,0,1-.18.11l-1.74-.07a.6.6,0,0,0-.23.06l-.78.47a.34.34,0,0,1-.22,0L15.91,35a.22.22,0,0,0-.2.06l-.27.28a.27.27,0,0,0,0,.21l0,.21a.51.51,0,0,0,.11.22M22,32.26a11,11,0,0,0,1.53-.11l0-.49a.65.65,0,0,0-.06-.24l-.14-.26a.36.36,0,0,1,0-.23l.28-1.25a.48.48,0,0,0,0-.24l-.14-.33a.92.92,0,0,0-.13-.21l-.11-.15a.12.12,0,0,1,0-.17l.38-.3a.74.74,0,0,1,.22-.1l.21,0a.31.31,0,0,0,.19-.13l.29-.46c0-.06,0-.11-.06-.11h-.31a.42.42,0,0,0-.22.08l-1.51,1.17a.32.32,0,0,0-.12.2L22,30.25Zm-.69-.67L21,31.25a.08.08,0,0,0-.14,0l-.34.49a.3.3,0,0,1-.2.1h-.12c-.07,0-.1.05-.07.11l.08.16a9.49,9.49,0,0,0,1.43.14V31.1l-.28.49c0,.06-.1.06-.13,0"/></g><path class="cls-3" d="M45.75,25.36h0a1.51,1.51,0,0,1,1.54-1.55,1.58,1.58,0,0,1,1.18.46l-.34.39a1.21,1.21,0,0,0-.84-.37,1,1,0,0,0-1,1.06h0a1,1,0,0,0,1,1.06,1.18,1.18,0,0,0,.86-.39l.34.35a1.57,1.57,0,0,1-1.22.53,1.51,1.51,0,0,1-1.52-1.54"/><path class="cls-3" d="M48.64,25.73h0a1.12,1.12,0,0,1,1.11-1.18,1.09,1.09,0,0,1,1.08,1.22.71.71,0,0,1,0,.14H49.16a.64.64,0,0,0,.65.58.84.84,0,0,0,.61-.27l.31.27a1.17,1.17,0,0,1-.93.42,1.13,1.13,0,0,1-1.16-1.17m1.68-.17c0-.34-.23-.6-.58-.6a.61.61,0,0,0-.58.6Z"/><path class="cls-3" d="M51.18,24.59h.52v.35a.82.82,0,0,1,.71-.4.77.77,0,0,1,.8.87v1.44h-.52V25.56c0-.35-.17-.55-.48-.55a.5.5,0,0,0-.51.56v1.28h-.52Z"/><path class="cls-3" d="M53.77,26.22V25h-.28v-.44h.28V24h.52v.63h.61V25h-.61v1.11a.24.24,0,0,0,.28.28.68.68,0,0,0,.32-.07v.42a.93.93,0,0,1-.47.12.58.58,0,0,1-.65-.67"/><path class="cls-3" d="M55.25,24.59h.52v.51a.81.81,0,0,1,.8-.56v.55h0c-.45,0-.77.3-.77.9v.86h-.52Z"/><path class="cls-3" d="M56.65,25.73h0a1.21,1.21,0,0,1,2.41,0h0a1.19,1.19,0,0,1-1.21,1.18,1.17,1.17,0,0,1-1.2-1.17m1.89,0h0a.7.7,0,0,0-.69-.73.68.68,0,0,0-.68.72h0a.7.7,0,0,0,.69.73.68.68,0,0,0,.68-.72"/><path class="cls-3" d="M60.41,25.72h0a1.08,1.08,0,0,1,1.05-1.17.93.93,0,0,1,.77.4V23.72h.52v3.13h-.52v-.38a.88.88,0,0,1-.77.42,1.08,1.08,0,0,1-1.05-1.17m1.83,0h0a.68.68,0,0,0-.65-.72.66.66,0,0,0-.66.72h0a.67.67,0,0,0,.66.72.68.68,0,0,0,.65-.72"/><path class="cls-3" d="M63.1,25.73h0a1.12,1.12,0,0,1,1.11-1.18,1.09,1.09,0,0,1,1.08,1.22.71.71,0,0,1,0,.14H63.62a.64.64,0,0,0,.65.58.84.84,0,0,0,.61-.27l.31.27a1.17,1.17,0,0,1-.93.42,1.13,1.13,0,0,1-1.16-1.17m1.68-.17c0-.34-.23-.6-.58-.6a.61.61,0,0,0-.58.6Z"/><rect class="cls-3" x="66.85" y="23.85" width="0.53" height="3"/><path class="cls-3" d="M67.94,24.59h.52v.35a.82.82,0,0,1,.71-.4.77.77,0,0,1,.8.87v1.44h-.52V25.56c0-.35-.17-.55-.48-.55a.5.5,0,0,0-.51.56v1.28h-.52Z"/><polygon class="cls-3" points="70.13 24.59 70.68 24.59 71.29 26.25 71.9 24.59 72.45 24.59 71.52 26.86 71.06 26.86 70.13 24.59"/><path class="cls-3" d="M72.46,25.73h0a1.12,1.12,0,0,1,1.11-1.18,1.09,1.09,0,0,1,1.08,1.22.71.71,0,0,1,0,.14H73a.64.64,0,0,0,.65.58.85.85,0,0,0,.62-.27l.3.27a1.15,1.15,0,0,1-.92.42,1.13,1.13,0,0,1-1.17-1.17m1.68-.17a.58.58,0,0,0-.57-.6.62.62,0,0,0-.59.6Z"/><path class="cls-3" d="M74.82,26.55l.23-.35a1.29,1.29,0,0,0,.74.28c.22,0,.35-.1.35-.25h0c0-.18-.24-.24-.5-.32s-.71-.23-.71-.67h0a.72.72,0,0,1,.81-.69,1.64,1.64,0,0,1,.83.25l-.21.37a1.34,1.34,0,0,0-.64-.21c-.2,0-.31.09-.31.22h0c0,.17.24.24.51.32s.7.25.7.66h0c0,.47-.37.71-.84.71a1.61,1.61,0,0,1-1-.34"/><path class="cls-3" d="M77,26.22V25h-.29v-.44H77V24h.52v.63h.6V25h-.6v1.11a.24.24,0,0,0,.28.28.74.74,0,0,0,.32-.07v.42a1,1,0,0,1-.47.12.58.58,0,0,1-.65-.67"/><path class="cls-3" d="M78.52,23.75h.56v.49h-.56Zm0,.84h.51v2.26h-.51Z"/><path class="cls-3" d="M79.57,27.27l.19-.39a1.48,1.48,0,0,0,.8.24.63.63,0,0,0,.72-.69v-.18a1,1,0,0,1-.8.42,1,1,0,0,1-1-1.06h0a1,1,0,0,1,1-1.06,1,1,0,0,1,.79.38v-.33h.52v1.79a1.2,1.2,0,0,1-.28.86,1.32,1.32,0,0,1-.93.3,1.88,1.88,0,0,1-1-.27m1.71-1.66h0a.63.63,0,0,0-.66-.62.6.6,0,0,0-.64.62h0a.61.61,0,0,0,.64.62.63.63,0,0,0,.66-.62"/><path class="cls-3" d="M83.65,26.85v-.28a.92.92,0,0,1-.73.32.72.72,0,0,1-.81-.69h0c0-.5.39-.74.92-.74a1.87,1.87,0,0,1,.63.09v0c0-.32-.2-.49-.56-.49a1.55,1.55,0,0,0-.65.15l-.14-.42a2,2,0,0,1,.86-.19.88.88,0,0,1,1,1v1.34Zm0-1a1.46,1.46,0,0,0-.51-.09c-.33,0-.52.13-.52.35h0c0,.21.19.33.43.33s.6-.19.6-.47Z"/><path class="cls-3" d="M84.49,25.73h0a1.16,1.16,0,0,1,1.17-1.18,1.12,1.12,0,0,1,.9.39l-.32.35a.75.75,0,0,0-.58-.29.69.69,0,0,0-.66.72h0a.69.69,0,0,0,.68.73.81.81,0,0,0,.59-.28l.31.3a1.13,1.13,0,0,1-.92.43,1.15,1.15,0,0,1-1.17-1.17"/><path class="cls-3" d="M86.89,23.75h.56v.49h-.56Zm0,.84h.51v2.26h-.51Z"/><path class="cls-3" d="M87.81,25.73h0A1.18,1.18,0,0,1,89,24.54a1.17,1.17,0,0,1,1.21,1.17h0A1.19,1.19,0,0,1,89,26.9a1.17,1.17,0,0,1-1.2-1.17m1.9,0h0A.7.7,0,0,0,89,25a.68.68,0,0,0-.68.72h0a.71.71,0,0,0,.69.73.69.69,0,0,0,.69-.72m-.45-2.13.47.21-.53.49h-.39Z"/><path class="cls-3" d="M90.58,24.59h.52v.35a.82.82,0,0,1,.71-.4.77.77,0,0,1,.8.87v1.44h-.52V25.56c0-.35-.17-.55-.48-.55a.5.5,0,0,0-.51.56v1.28h-.52Z"/><path class="cls-3" d="M45.88,28.13H47a1.49,1.49,0,0,1,1.59,1.49h0A1.5,1.5,0,0,1,47,31.13H45.88ZM47,30.65a1,1,0,0,0,1-1h0a1,1,0,0,0-1-1h-.59v2Z"/><path class="cls-3" d="M49,28h.55v.49H49Zm0,.84h.52v2.26H49Z"/><path class="cls-3" d="M50.05,28.87h.52v.35a.81.81,0,0,1,.71-.4.77.77,0,0,1,.8.87v1.44h-.52V29.85c0-.36-.17-.56-.48-.56a.5.5,0,0,0-.51.56v1.28h-.52Z"/><path class="cls-3" d="M53.92,31.13v-.28a.89.89,0,0,1-.73.33.73.73,0,0,1-.81-.7h0c0-.5.39-.74.92-.74a2,2,0,0,1,.62.09v0c0-.31-.19-.48-.55-.48a1.48,1.48,0,0,0-.65.14L52.58,29a2,2,0,0,1,.86-.18.87.87,0,0,1,1,.95v1.34Zm0-.95a1.52,1.52,0,0,0-.52-.09c-.32,0-.52.14-.52.36h0c0,.22.2.34.44.34s.6-.19.6-.48Zm-.22-2.3.47.21-.53.49h-.39Z"/><path class="cls-3" d="M54.88,28.87h.52v.34a.8.8,0,0,1,.69-.39.71.71,0,0,1,.67.4.91.91,0,0,1,.76-.4.76.76,0,0,1,.8.87v1.44H57.8V29.85c0-.36-.17-.56-.46-.56s-.48.2-.48.56v1.28h-.52V29.84c0-.35-.17-.55-.46-.55s-.48.22-.48.57v1.27h-.52Z"/><path class="cls-3" d="M58.78,28h.56v.49h-.56Zm0,.84h.51v2.26h-.51Z"/><path class="cls-3" d="M59.71,30h0a1.16,1.16,0,0,1,1.17-1.18,1.12,1.12,0,0,1,.9.39l-.32.35a.75.75,0,0,0-.59-.28.68.68,0,0,0-.65.72h0a.69.69,0,0,0,.68.73.81.81,0,0,0,.59-.28l.31.31a1.13,1.13,0,0,1-.93.42A1.14,1.14,0,0,1,59.71,30"/><path class="cls-3" d="M63.49,31.13v-.28a.91.91,0,0,1-.73.33.73.73,0,0,1-.81-.7h0c0-.5.39-.74.92-.74a2,2,0,0,1,.62.09v0c0-.31-.19-.48-.55-.48a1.48,1.48,0,0,0-.65.14L62.15,29a2,2,0,0,1,.86-.19.87.87,0,0,1,1,1v1.34Zm0-.95a1.52,1.52,0,0,0-.52-.09c-.32,0-.52.14-.52.35h0c0,.22.2.34.44.34s.6-.19.6-.48Z"/><path class="cls-3" d="M65.44,30h0a1.08,1.08,0,0,1,1-1.17.92.92,0,0,1,.77.4V28h.52v3.13h-.52v-.38a.89.89,0,0,1-.77.43,1.09,1.09,0,0,1-1-1.18m1.83,0h0a.68.68,0,0,0-.65-.72A.66.66,0,0,0,66,30h0a.65.65,0,1,0,1.3,0"/><path class="cls-3" d="M68.13,30h0a1.12,1.12,0,0,1,1.11-1.18A1.09,1.09,0,0,1,70.32,30a.66.66,0,0,1,0,.14H68.65a.64.64,0,0,0,.65.58.85.85,0,0,0,.62-.27l.3.27A1.19,1.19,0,0,1,68.13,30m1.68-.17a.58.58,0,0,0-.57-.59.61.61,0,0,0-.59.59Z"/><polygon class="cls-3" points="71.85 28.13 74.07 28.13 74.07 28.6 72.37 28.6 72.37 29.38 73.88 29.38 73.88 29.85 72.37 29.85 72.37 30.66 74.09 30.66 74.09 31.13 71.85 31.13 71.85 28.13"/><path class="cls-3" d="M74.32,30h0a1.17,1.17,0,0,1,1.17-1.18,1.14,1.14,0,0,1,.91.39l-.33.35a.73.73,0,0,0-.58-.28.67.67,0,0,0-.65.72h0a.69.69,0,0,0,.67.73.78.78,0,0,0,.59-.28l.31.31a1.12,1.12,0,0,1-.92.42A1.15,1.15,0,0,1,74.32,30"/><path class="cls-3" d="M76.53,30h0a1.21,1.21,0,0,1,2.41,0h0a1.21,1.21,0,0,1-2.41,0m1.89,0h0a.69.69,0,0,0-.69-.72.67.67,0,0,0-.68.72h0a.69.69,0,0,0,.69.73.68.68,0,0,0,.68-.72"/><path class="cls-3" d="M79.11,30.84l.23-.36a1.25,1.25,0,0,0,.74.28c.23,0,.36-.09.36-.24h0c0-.18-.24-.24-.51-.32s-.71-.23-.71-.66h0a.72.72,0,0,1,.81-.69,1.56,1.56,0,0,1,.83.26l-.21.37a1.23,1.23,0,0,0-.63-.22c-.21,0-.32.1-.32.23h0c0,.16.24.23.51.31s.7.26.7.66h0c0,.48-.37.71-.84.71a1.59,1.59,0,0,1-1-.33"/><path class="cls-3" d="M81.27,28h.56v.49h-.56Zm0,.84h.51v2.26H81.3Z"/><path class="cls-3" d="M82.14,30.84l.23-.36a1.22,1.22,0,0,0,.74.28c.22,0,.35-.09.35-.24h0c0-.18-.24-.24-.51-.32s-.7-.23-.7-.66h0a.72.72,0,0,1,.8-.69,1.54,1.54,0,0,1,.83.26l-.2.37a1.26,1.26,0,0,0-.64-.22c-.2,0-.32.1-.32.23h0c0,.16.25.23.51.31s.7.26.7.66h0c0,.48-.36.71-.83.71a1.57,1.57,0,0,1-1-.33"/><path class="cls-3" d="M84.35,30.51v-1.2h-.28v-.44h.28v-.62h.52v.62h.61v.44h-.61v1.11a.25.25,0,0,0,.28.29.69.69,0,0,0,.32-.08v.42a.83.83,0,0,1-.46.12.58.58,0,0,1-.66-.66"/><path class="cls-3" d="M85.64,30h0a1.12,1.12,0,0,1,1.11-1.18A1.09,1.09,0,0,1,87.83,30a.66.66,0,0,1,0,.14H86.16a.64.64,0,0,0,.65.58.85.85,0,0,0,.62-.27l.3.27A1.18,1.18,0,0,1,85.64,30m1.68-.17a.59.59,0,0,0-.58-.59.6.6,0,0,0-.58.59Z"/><path class="cls-3" d="M88.18,28.87h.52v.34a.82.82,0,0,1,.69-.39.7.7,0,0,1,.67.4.94.94,0,0,1,.77-.4.76.76,0,0,1,.79.87v1.44h-.51V29.85c0-.36-.17-.56-.46-.56s-.49.2-.49.56v1.28h-.52V29.84c0-.35-.17-.55-.45-.55a.5.5,0,0,0-.49.57v1.27h-.52Z"/><path class="cls-3" d="M93.46,31.13v-.28a.89.89,0,0,1-.73.33.72.72,0,0,1-.8-.7h0c0-.5.39-.74.91-.74a2.11,2.11,0,0,1,.63.09v0c0-.31-.2-.48-.56-.48a1.47,1.47,0,0,0-.64.14L92.12,29a2,2,0,0,1,.87-.19.88.88,0,0,1,1,1v1.34Zm0-.95a1.56,1.56,0,0,0-.52-.09c-.33,0-.52.14-.52.35h0c0,.22.19.34.44.34s.6-.19.6-.48Z"/><path class="cls-3" d="M94.24,30.84l.23-.36a1.22,1.22,0,0,0,.74.28c.22,0,.35-.09.35-.24h0c0-.18-.24-.24-.5-.32s-.71-.23-.71-.66h0a.72.72,0,0,1,.81-.69,1.56,1.56,0,0,1,.83.26l-.21.37a1.26,1.26,0,0,0-.64-.22c-.2,0-.31.1-.31.23h0c0,.16.24.23.51.31s.7.26.7.66h0c0,.48-.37.71-.84.71a1.59,1.59,0,0,1-1-.33"/><polygon class="cls-3" points="97.57 28.13 98.13 28.13 99.04 29.55 99.95 28.13 100.51 28.13 100.51 31.13 99.99 31.13 99.99 28.98 99.04 30.39 99.02 30.39 98.08 28.99 98.08 31.13 97.57 31.13 97.57 28.13"/><path class="cls-3" d="M102.44,31.13v-.28a.91.91,0,0,1-.73.33.73.73,0,0,1-.81-.7h0c0-.5.39-.74.92-.74a2,2,0,0,1,.62.09v0c0-.31-.19-.48-.55-.48a1.48,1.48,0,0,0-.65.14L101.1,29a2,2,0,0,1,.86-.19.87.87,0,0,1,1,1v1.34Zm0-.95a1.52,1.52,0,0,0-.52-.09c-.32,0-.52.14-.52.35h0c0,.22.2.34.44.34s.6-.19.6-.48Z"/><path class="cls-3" d="M103.4,28.87h.51v.51a.81.81,0,0,1,.81-.55v.54h0c-.46,0-.78.3-.78.9v.86h-.51Z"/><path class="cls-3" d="M105,28h.56v.49H105Zm0,.84h.52v2.26H105Z"/><path class="cls-3" d="M106.05,28.87h.52v.35a.81.81,0,0,1,.7-.4.78.78,0,0,1,.81.87v1.44h-.52V29.85c0-.36-.18-.56-.48-.56a.5.5,0,0,0-.51.56v1.28h-.52Z"/><path class="cls-3" d="M108.41,30h0a1.21,1.21,0,0,1,2.41,0h0a1.21,1.21,0,0,1-2.41,0m1.89,0h0a.7.7,0,0,0-.69-.72.67.67,0,0,0-.68.72h0a.69.69,0,0,0,.69.73.68.68,0,0,0,.68-.72"/><path class="cls-3" d="M111,30.84l.23-.36a1.25,1.25,0,0,0,.74.28c.23,0,.35-.09.35-.24h0c0-.18-.24-.24-.5-.32s-.71-.23-.71-.66h0a.72.72,0,0,1,.81-.69,1.56,1.56,0,0,1,.83.26l-.21.37a1.26,1.26,0,0,0-.64-.22c-.2,0-.31.1-.31.23h0c0,.16.24.23.51.31s.7.26.7.66h0c0,.48-.37.71-.84.71a1.59,1.59,0,0,1-1-.33"/><path class="cls-3" d="M45.7,34.29h0a1.09,1.09,0,0,1,1-1.18.92.92,0,0,1,.77.4V32.29H48v3.12h-.52V35a.9.9,0,0,1-.77.42,1.08,1.08,0,0,1-1-1.17m1.83,0h0a.68.68,0,0,0-.65-.73.66.66,0,0,0-.65.73h0a.65.65,0,1,0,1.3,0"/><path class="cls-3" d="M48.39,34.29h0A1.13,1.13,0,0,1,49.5,33.1a1.09,1.09,0,0,1,1.08,1.22.76.76,0,0,1,0,.15H48.91a.63.63,0,0,0,.65.57.81.81,0,0,0,.62-.27l.3.27a1.18,1.18,0,0,1-2.09-.75m1.68-.17a.59.59,0,0,0-.58-.59.6.6,0,0,0-.58.59Z"/><path class="cls-3" d="M53.17,32.39h.49l1.32,3h-.56l-.3-.72H52.7l-.31.72h-.54Zm.75,1.83L53.41,33l-.52,1.2Z"/><rect class="cls-3" x="55.29" y="32.29" width="0.52" height="3.13"/><path class="cls-3" d="M56.42,34.79V33.6h-.29v-.45h.29v-.62h.52v.62h.61v.45h-.61v1.11a.24.24,0,0,0,.28.28.76.76,0,0,0,.32-.08v.43a1,1,0,0,1-.47.11.58.58,0,0,1-.65-.66"/><path class="cls-3" d="M59.28,35.41v-.27a.92.92,0,0,1-.73.32.73.73,0,0,1-.81-.7h0c0-.5.39-.74.92-.74a1.85,1.85,0,0,1,.63.1v0c0-.31-.2-.48-.56-.48a1.72,1.72,0,0,0-.65.14l-.14-.41a2,2,0,0,1,.86-.19.87.87,0,0,1,1,1v1.34Zm0-.94a1.46,1.46,0,0,0-.51-.09c-.33,0-.52.13-.52.35h0c0,.21.19.33.43.33s.6-.19.6-.47Z"/><path class="cls-3" d="M60.06,35.12l.23-.35a1.29,1.29,0,0,0,.74.28c.22,0,.35-.1.35-.25h0c0-.17-.24-.23-.51-.31s-.7-.24-.7-.67h0a.72.72,0,0,1,.8-.69,1.54,1.54,0,0,1,.83.26l-.2.37a1.36,1.36,0,0,0-.64-.22c-.2,0-.32.1-.32.23h0c0,.16.25.23.51.32s.7.25.7.66h0c0,.47-.36.71-.83.71a1.58,1.58,0,0,1-1-.34"/><polygon class="cls-3" points="63.38 32.41 63.91 32.41 63.91 34.93 65.49 34.93 65.49 35.41 63.38 35.41 63.38 32.41"/><path class="cls-3" d="M67.19,35.41v-.27a.93.93,0,0,1-.73.32.73.73,0,0,1-.81-.7h0c0-.5.39-.74.92-.74a1.74,1.74,0,0,1,.62.1v0c0-.31-.19-.48-.55-.48a1.64,1.64,0,0,0-.65.14l-.14-.41a2,2,0,0,1,.86-.19.87.87,0,0,1,1,1v1.34Zm0-.94a1.52,1.52,0,0,0-.52-.09c-.32,0-.52.13-.52.35h0c0,.21.2.33.44.33s.6-.19.6-.47Z"/><path class="cls-3" d="M68.23,34.79V33.6H68v-.45h.28v-.62h.52v.62h.61v.45h-.61v1.11A.24.24,0,0,0,69,35a.72.72,0,0,0,.32-.08v.43a.93.93,0,0,1-.47.11.58.58,0,0,1-.65-.66"/><path class="cls-3" d="M69.72,32.31h.56v.49h-.56Zm0,.84h.52v2.26h-.52Z"/><path class="cls-3" d="M70.87,34.79V33.6h-.29v-.45h.29v-.62h.52v.62H72v.45h-.61v1.11a.24.24,0,0,0,.28.28.72.72,0,0,0,.32-.08v.43a1,1,0,0,1-.47.11.58.58,0,0,1-.65-.66"/><path class="cls-3" d="M72.32,34.59V33.15h.52v1.29c0,.35.18.55.48.55a.5.5,0,0,0,.51-.56V33.15h.52v2.26h-.52v-.35a.81.81,0,0,1-1.51-.47"/><path class="cls-3" d="M74.72,34.29h0a1.09,1.09,0,0,1,1-1.18.93.93,0,0,1,.77.4V32.29h.52v3.12h-.52V35a.91.91,0,0,1-.77.42,1.08,1.08,0,0,1-1-1.17m1.83,0h0a.68.68,0,0,0-.66-.73.67.67,0,0,0-.65.73h0a.67.67,0,0,0,.65.72.68.68,0,0,0,.66-.72"/><path class="cls-3" d="M77.41,34.29h0a1.12,1.12,0,0,1,1.1-1.18,1.1,1.1,0,0,1,1.09,1.22s0,.1,0,.15H77.92a.63.63,0,0,0,.66.57.8.8,0,0,0,.61-.27l.3.27a1.17,1.17,0,0,1-2.08-.75m1.67-.17a.58.58,0,0,0-.57-.59.61.61,0,0,0-.59.59Z"/><path class="cls-3" d="M79.76,35.12l.23-.35a1.32,1.32,0,0,0,.74.28c.23,0,.36-.1.36-.25h0c0-.17-.24-.23-.51-.31s-.71-.24-.71-.67h0a.73.73,0,0,1,.81-.69,1.56,1.56,0,0,1,.83.26l-.21.37a1.33,1.33,0,0,0-.63-.22c-.2,0-.32.1-.32.23h0c0,.16.24.23.51.32s.7.25.7.66h0c0,.47-.37.71-.84.71a1.63,1.63,0,0,1-1-.34"/><path class="cls-3" d="M51,15.56V9.93h4.51c3.6,0,6.08,2.44,6.15,5.63H59a3.32,3.32,0,0,0-3.49-3.33h-2v3.33Zm20,0v-1H65.52V12.2h6.2V9.93H63v5.63ZM88.42,9.93H85.88v5.63h2.54ZM77.58,15.56l1.09-2.65,1.08,2.65h2.56L79.88,9.85H77.53L75.1,15.56Zm-29-5.63H46v5.63h2.55Zm39.84,6H85.88v5.63h8.31V19.2H88.42Zm-6,0,2.4,5.63H82.18l-1.06-2.6h-4.9l-1.06,2.6H72.57L75,15.88h2.49l-.32.78h3.08l-.32-.78Zm-20.75,0a5.8,5.8,0,0,1-6.15,5.63H51V15.88h2.55v3.33h2A3.3,3.3,0,0,0,59,15.88Zm3.83,3.36H71.8v2.27H63V15.88h8v.93H65.52ZM48.58,21.51H46V15.88h2.55Z"/></svg>