<svg id="Capa_1" data-name="Capa 1" xmlns="http://www.w3.org/2000/svg" xmlns:xlink="http://www.w3.org/1999/xlink" viewBox="0 0 109.83 37.17"><defs><style>.cls-1{fill:none;}.cls-2{fill:#008292;}.cls-3{fill:#fbfcfd;}.cls-4{fill:#fff;}.cls-5{opacity:0.4;}.cls-6{clip-path:url(#clip-path);}.cls-7{clip-path:url(#clip-path-2);}.cls-8{opacity:0.8;}.cls-9{clip-path:url(#clip-path-3);}.cls-10{clip-path:url(#clip-path-4);}.cls-11{clip-path:url(#clip-path-5);}.cls-12{clip-path:url(#clip-path-6);}.cls-13{clip-path:url(#clip-path-7);}.cls-14{clip-path:url(#clip-path-8);}.cls-15{clip-path:url(#clip-path-9);}.cls-16{clip-path:url(#clip-path-10);}.cls-17{clip-path:url(#clip-path-11);}.cls-18{clip-path:url(#clip-path-12);}.cls-19{fill:#6f7073;}.cls-20{clip-path:url(#clip-path-13);}.cls-21{clip-path:url(#clip-path-14);}.cls-22{fill:#fcfcfc;}.cls-23{clip-path:url(#clip-path-15);}.cls-24{clip-path:url(#clip-path-16);}.cls-25{clip-path:url(#clip-path-17);}.cls-26{clip-path:url(#clip-path-18);}.cls-27{clip-path:url(#clip-path-19);}.cls-28{clip-path:url(#clip-path-20);}</style><clipPath id="clip-path"><rect class="cls-1" x="6.69" y="4.4" width="19.32" height="24.79"/></clipPath><clipPath id="clip-path-2"><rect class="cls-1" x="4.24" y="14.81" width="21.37" height="17.21"/></clipPath><clipPath id="clip-path-3"><rect class="cls-1" x="25.37" y="6.09" width="7.33" height="13.73"/></clipPath><clipPath id="clip-path-4"><rect class="cls-1" x="20.53" y="24.04" width="8.03" height="6.29"/></clipPath><clipPath id="clip-path-5"><rect class="cls-1" x="4.3" y="20.15" width="18.24" height="12.39"/></clipPath><clipPath id="clip-path-6"><rect class="cls-1" x="15.39" y="4.32" width="10.53" height="10.84"/></clipPath><clipPath id="clip-path-7"><rect class="cls-1" x="19.74" y="4.36" width="6.18" height="8.65"/></clipPath><clipPath id="clip-path-8"><rect class="cls-1" x="9.02" y="29.27" width="12.9" height="3.7"/></clipPath><clipPath id="clip-path-9"><rect class="cls-1" x="5.75" y="25.03" width="5.65" height="5.49"/></clipPath><clipPath id="clip-path-10"><rect class="cls-1" x="30.52" y="21.13" width="2.12" height="2.49"/></clipPath><clipPath id="clip-path-11"><rect class="cls-1" x="29.69" y="24.81" width="1.72" height="2.8"/></clipPath><clipPath id="clip-path-12"><rect class="cls-1" x="32.24" y="19.48" width="0.61" height="0.93"/></clipPath><clipPath id="clip-path-13"><rect class="cls-1" x="5.7" y="24.96" width="0.05" height="0.07"/></clipPath><clipPath id="clip-path-14"><rect class="cls-1" x="29.64" y="27.61" width="0.05" height="0.05"/></clipPath><clipPath id="clip-path-15"><rect class="cls-1" x="12.86" y="7.3" width="4.17" height="4.4"/></clipPath><clipPath id="clip-path-16"><rect class="cls-1" x="26.31" y="17.96" width="1.34" height="2.5"/></clipPath><clipPath id="clip-path-17"><rect class="cls-1" x="25.45" y="22.01" width="2.26" height="0.94"/></clipPath><clipPath id="clip-path-18"><rect class="cls-1" x="11.51" y="12.39" width="1.29" height="1.29"/></clipPath><clipPath id="clip-path-19"><rect class="cls-1" x="11.45" y="30.57" width="0.11" height="0.05"/></clipPath><clipPath id="clip-path-20"><rect class="cls-1" x="11.4" y="30.52" width="0.05" height="0.05"/></clipPath></defs><path class="cls-2" d="M36.78,18.61A18.3,18.3,0,1,1,18.48.32a18.3,18.3,0,0,1,18.3,18.29"/><path class="cls-3" d="M17.77,0V0h1.61V0H17.77"/><path class="cls-4" d="M17.77,0h1.61c.47.07.94.08,1.41.14a18.32,18.32,0,0,1,4.06,1,18.7,18.7,0,0,1,9.68,8,18.4,18.4,0,0,1,2.31,6.23,17.41,17.41,0,0,1,.26,4.14,18.25,18.25,0,0,1-1,5.17A18.61,18.61,0,0,1,21.32,37a18.41,18.41,0,0,1-3.63.18,17.66,17.66,0,0,1-4.45-.76,18.2,18.2,0,0,1-6.7-3.65A18.65,18.65,0,0,1,.32,22,17.4,17.4,0,0,1,0,19.53a18,18,0,0,1,1.09-7.24A18.59,18.59,0,0,1,15,.39,26.44,26.44,0,0,1,17.77,0M.43,18.58A18.13,18.13,0,1,0,18.31.47,18.17,18.17,0,0,0,.43,18.58"/><path class="cls-4" d="M18.53,33.43a14.8,14.8,0,1,1,14.8-14.75,14.78,14.78,0,0,1-14.8,14.75M8.92,29.22h0a.09.09,0,0,0,.11.05H9c.06.21.26.3.4.42a14.39,14.39,0,0,0,5.14,2.72,13.63,13.63,0,0,0,3,.53,14,14,0,0,0,3.3-.15,4.18,4.18,0,0,0,1.1-.25,2,2,0,0,0,.62-.16,3.71,3.71,0,0,0,1-.36,8.66,8.66,0,0,0,2-.92,11,11,0,0,0,1.09-.67.07.07,0,0,0,0-.1.56.56,0,0,0,.3-.14,12.94,12.94,0,0,0,1.26-1.07,8.54,8.54,0,0,0,1.36-1.46l.05-.05h0a9.89,9.89,0,0,0,1.17-1.68,4.54,4.54,0,0,0,.54-1.05,6.28,6.28,0,0,0,.62-1.4,13.83,13.83,0,0,0,.62-2.29l.11-.78.09-.93c0-.57,0-1.14,0-1.7a5.39,5.39,0,0,0-.14-1.2,11,11,0,0,0-.55-2.41,13.9,13.9,0,0,0-2.9-5,14.34,14.34,0,0,0-3.66-3c-.06,0-.13-.13-.22,0a1.74,1.74,0,0,0-.87-.5,3.38,3.38,0,0,0-.72-.34,14.39,14.39,0,0,0-4-.93,14.21,14.21,0,0,0-2.69,0,3.53,3.53,0,0,0-1,.11,14.2,14.2,0,0,0-5.34,2.11,14,14,0,0,0-3,2.65,7.94,7.94,0,0,0-1,1.37,11.67,11.67,0,0,0-1.2,2.12,3.85,3.85,0,0,0-.36,1,3.63,3.63,0,0,0-.38,1.06A13.38,13.38,0,0,0,4.25,19a.67.67,0,0,0,0,.19c-.08.07,0,.16,0,.25s.07.45,0,.68A14.23,14.23,0,0,0,5.7,25l0,.06h0a2.29,2.29,0,0,0,.1.23,12.55,12.55,0,0,0,1.46,2.27,10.87,10.87,0,0,0,1.55,1.63l.06.06"/><g class="cls-5"><g class="cls-6"><path class="cls-4" d="M6.69,10.65a7.57,7.57,0,0,1,1-1.37,14.28,14.28,0,0,1,8.38-4.76,3.53,3.53,0,0,1,1-.11c0,.09-.09.12-.15.16a4.38,4.38,0,0,0-1.15,1.2,1.78,1.78,0,0,0,.12,2.3c.11.11.07.19,0,.3a.35.35,0,0,0,.11.48.41.41,0,0,0,.56,0c.3-.32.31-.31.64,0l.08.08A9.32,9.32,0,0,1,19,11.25a9.69,9.69,0,0,0,2.26,3,4.15,4.15,0,0,0,1.66.91s.1,0,.13,0,0-.11-.07-.15l-.43-.32a9.43,9.43,0,0,1-1.8-1.77c-.51-.71-.91-1.49-1.39-2.23a10.34,10.34,0,0,0-2-2.39c-.1-.08-.13-.15,0-.25s.42-.41.63-.62.2-.13.31,0,.35.26.5.41a9.07,9.07,0,0,1,1.66,2.28,9.73,9.73,0,0,0,2.32,3,4.73,4.73,0,0,0,1.44.84c.11,0,.26.12.32,0s-.12-.14-.2-.2A11.45,11.45,0,0,1,22.52,12,21,21,0,0,1,21,9.64,10.4,10.4,0,0,0,18.78,7c-.14-.11-.1-.16,0-.21l.6-.25a.32.32,0,0,1,.4.06,4.83,4.83,0,0,1,.42.37,10.29,10.29,0,0,1,1.7,2.39,8.62,8.62,0,0,0,2.68,3.22,2.68,2.68,0,0,0,1.33.56.83.83,0,0,1,0,.15,24.71,24.71,0,0,1-.05,3.75,14.36,14.36,0,0,1-.31,2.17c-.3.05-.6.08-.9.14a13.28,13.28,0,0,0-4.81,2.14c-.18.13-.25.13-.36-.08a4.29,4.29,0,0,0-3.07-2.27,1.49,1.49,0,0,0-.67-.06c.09.13.17.23.25.33a4.87,4.87,0,0,1,.11,6.08s-.1.09-.07.15.12,0,.19,0a3.18,3.18,0,0,0,2.59-1.28,7.51,7.51,0,0,0,.6-.94,4,4,0,0,0,.6.78,7.8,7.8,0,0,0,2.78,1.66c-.06.09-.11.19-.18.28a16.61,16.61,0,0,1-2.73,2.89.33.33,0,0,1-.41.07,21.91,21.91,0,0,1-6.43-3.85A25.19,25.19,0,0,1,8.65,20,30.22,30.22,0,0,1,7,17.26l.2,0a9.13,9.13,0,0,0,3.17,0A9.77,9.77,0,0,0,16,14.25c.12-.13.13-.21,0-.35a9.22,9.22,0,0,0-1.62-1.74,7.76,7.76,0,0,0-5.12-1.9,9.49,9.49,0,0,0-2.55.39M17,10.94c0-.13-.08-.14-.13-.17a4.27,4.27,0,0,1-1.18-1.39,4.11,4.11,0,0,0-.69-1c-.15-.14-.17-.22,0-.33s.16-.22,0-.3a.88.88,0,0,1-.27-.19,1.12,1.12,0,0,0-.67-.3,1.28,1.28,0,0,0-1,.6.71.71,0,0,0-.06,1c.05.06,0,.13,0,.2s.14.26.29.14.17-.06.26,0a3.28,3.28,0,0,1,.71,1,3.74,3.74,0,0,0,.9,1.15,1.22,1.22,0,0,0,.66.35c0-.08,0-.1-.05-.13a3.69,3.69,0,0,1-1.14-1.28,5,5,0,0,0-.86-1.19c-.1-.11-.2-.18,0-.33s.24-.15.39,0a3.37,3.37,0,0,1,.67.88A3.72,3.72,0,0,0,16,11a.8.8,0,0,0,.49.2.13.13,0,0,0-.07-.12A3.64,3.64,0,0,1,15.35,10a6.21,6.21,0,0,0-1-1.34c-.05,0-.19-.1-.1-.19s.21-.18.34-.07a2.76,2.76,0,0,1,.29.3c.42.47.63,1.08,1,1.56a2.24,2.24,0,0,0,1.07.73"/></g></g><path class="cls-2" d="M32.69,16.58a4.87,4.87,0,0,1,.15,1.2c0,.56,0,1.13,0,1.7a1.8,1.8,0,0,0-.22.06c-.48.17-.46.29-.21.69a.52.52,0,0,0,.34.18c0,.26-.08.52-.11.78a1.76,1.76,0,0,0-1.7.49,1.53,1.53,0,0,0-.39.45c-.06.11-.06.2.11.21a.7.7,0,0,0,.74-.59.56.56,0,0,1,.09-.21c.15-.18.25,0,.36.07s.16.17,0,.26a.78.78,0,0,0-.33.59.82.82,0,0,0,0,.38c0,.16.22.08.33.14,0,0-.05.06-.07.06s-.23.08-.22.22a.39.39,0,0,0,.17.33c.13.09.19-.08.29-.11a6.28,6.28,0,0,1-.62,1.4.52.52,0,0,0-.64.09,1.43,1.43,0,0,0-.31.34,6.48,6.48,0,0,0-.76,2.31h0l-.05.05a8.54,8.54,0,0,1-1.36,1.46.5.5,0,0,1,.07-.27,1.76,1.76,0,0,0,.21-.9c0-.58-.1-1.16-.1-1.75a8.39,8.39,0,0,0-.29-2c0-.13-.09-.17-.23-.17a7.66,7.66,0,0,0-1.72.17,2.34,2.34,0,0,0-1.57,1.09,1.73,1.73,0,0,1-.56.55.27.27,0,0,1-.36,0,20.27,20.27,0,0,0,1.72-3.42l.37.08c.47.11.91.33,1.38.42a.46.46,0,0,0,.44-.06c.09-.09.1-.17,0-.2-.69-.17-1.34-.45-2-.65.29-.91.52-1.83.72-2.76l.14.12c.34.33.67.67,1,1,.05.05.1.12.18.07s0-.11,0-.16a1.29,1.29,0,0,0-.29-.54,2.85,2.85,0,0,1-.75-1.58.89.89,0,0,0-.06-.2,1.69,1.69,0,0,0,0-.23,24.49,24.49,0,0,0,.13-4.11,1.25,1.25,0,0,1,.4.24c.27.18.3.27.19.58a.45.45,0,0,0,.09.48c.05.06.1.12.19.11s.09-.11.11-.18a.62.62,0,0,0,0-.33,3.23,3.23,0,0,1,0-1c0-.14.06-.26.2-.31s.25,0,.35.11a.62.62,0,0,1,.14.18l.39.73c.05.1.07.24.2.25s.15-.14.21-.24a1.86,1.86,0,0,1,.1-.2.55.55,0,0,1,.65-.25.87.87,0,0,1,.36.73,7.91,7.91,0,0,0-.19.81,15.05,15.05,0,0,0-.41,2.52,4,4,0,0,1-.18,1.35c-.09.23.11.51.42.63s.23-.18.32-.28a2.73,2.73,0,0,0,.27-.47c0-.07.09-.15.06-.22s0-.27.18-.35a1.63,1.63,0,0,0,.35-.23.85.85,0,0,0,.35-.88,2.93,2.93,0,0,1-.07-.41,2.16,2.16,0,0,1,0-.84.35.35,0,0,1,.36-.27c.3,0,.41.22.57.39s.22.31.43.34"/><path class="cls-2" d="M6.69,10.65a9.49,9.49,0,0,1,2.55-.39,7.76,7.76,0,0,1,5.12,1.9A9.22,9.22,0,0,1,16,13.9c.1.14.09.22,0,.35a9.77,9.77,0,0,1-5.63,3.08,9.12,9.12,0,0,1-3.17,0l-.2,0C6.31,16.1,5.68,15,5.13,13.75a3.85,3.85,0,0,1,.36-1,11.67,11.67,0,0,1,1.2-2.12M12.8,13a.65.65,0,0,0-1.29,0,.66.66,0,0,0,.67.65A.64.64,0,0,0,12.8,13"/><g class="cls-5"><g class="cls-7"><path class="cls-4" d="M4.3,19.22a.67.67,0,0,1,0-.19,13.38,13.38,0,0,1,.5-4.22c.65,1.34,1.37,2.63,2.13,3.91a35.21,35.21,0,0,0,3.93,5.41,20.69,20.69,0,0,0,3.95,3.4,20.7,20.7,0,0,0,6,2.84,24.53,24.53,0,0,0,4.81.73,8.66,8.66,0,0,1-2,.92,19.31,19.31,0,0,1-2-.09,15.83,15.83,0,0,1-5-1.5,24.1,24.1,0,0,1-5-3.28,40.21,40.21,0,0,1-5.46-5.61C5.49,20.78,4.9,20,4.3,19.22"/></g></g><path class="cls-3" d="M25.6,31.1a24.53,24.53,0,0,1-4.81-.73,20.7,20.7,0,0,1-6-2.84,20.69,20.69,0,0,1-3.95-3.4,35.21,35.21,0,0,1-3.93-5.41c-.76-1.28-1.48-2.57-2.13-3.91a3.63,3.63,0,0,1,.38-1.06C5.68,15,6.31,16.1,7,17.26A30.22,30.22,0,0,0,8.65,20a25.19,25.19,0,0,0,4.44,5.27,21.91,21.91,0,0,0,6.43,3.85.33.33,0,0,0,.41-.07,16.61,16.61,0,0,0,2.73-2.89c.07-.09.12-.19.18-.28a17,17,0,0,0,2.76-6.69,14.36,14.36,0,0,0,.31-2.17A24.71,24.71,0,0,0,26,13.3l0-.15,0-.14a2.25,2.25,0,0,0,0-.26,28.48,28.48,0,0,0-.45-3.32,33,33,0,0,0-1-3.8,1.74,1.74,0,0,1,.87.5,32.27,32.27,0,0,1,1.28,7.49,24.49,24.49,0,0,1-.13,4.11,1.69,1.69,0,0,1,0,.23c-.06.43-.13.86-.2,1.29-.2.93-.43,1.85-.72,2.76,0,.13-.09.27-.14.41a21,21,0,0,1-1.71,3.42,18.6,18.6,0,0,1-2.53,3l-.68.62a21.82,21.82,0,0,0,6.19.86.07.07,0,0,1,0,.1,11,11,0,0,1-1.09.67"/><g class="cls-8"><g class="cls-9"><path class="cls-4" d="M26.65,13.62a32.27,32.27,0,0,0-1.28-7.49c.09-.09.16,0,.22,0a14.34,14.34,0,0,1,3.66,3,13.9,13.9,0,0,1,2.9,5,10.39,10.39,0,0,1,.54,2.41c-.21,0-.31-.2-.43-.34s-.27-.41-.57-.39a.35.35,0,0,0-.36.27,2.16,2.16,0,0,0,0,.84,2.93,2.93,0,0,0,.07.41.85.85,0,0,1-.35.88,1.63,1.63,0,0,1-.35.23c-.15.08-.27.14-.18.35s0,.15-.06.22a2.32,2.32,0,0,1-.27.46c-.09.11-.06.38-.32.29s-.51-.4-.42-.64a3.87,3.87,0,0,0,.18-1.34,15.05,15.05,0,0,1,.41-2.52,7.91,7.91,0,0,1,.19-.81.87.87,0,0,0-.36-.73.55.55,0,0,0-.65.25,1.86,1.86,0,0,0-.1.2c-.06.1-.08.25-.21.24s-.15-.15-.2-.25l-.39-.73a.62.62,0,0,0-.14-.18c-.1-.09-.21-.17-.35-.11s-.18.17-.2.31a3.23,3.23,0,0,0,0,1,.62.62,0,0,1,0,.33c0,.07,0,.17-.11.18s-.14,0-.19-.11a.45.45,0,0,1-.09-.48c.11-.31.08-.4-.19-.58a1.25,1.25,0,0,0-.4-.24"/></g></g><g class="cls-8"><g class="cls-10"><path class="cls-4" d="M26.72,30.33a22.17,22.17,0,0,1-6.19-.85l.68-.63a18.19,18.19,0,0,0,2.53-3,.26.26,0,0,0,.35,0,1.64,1.64,0,0,0,.56-.55,2.34,2.34,0,0,1,1.57-1.09A7.66,7.66,0,0,1,27.94,24c.14,0,.2,0,.23.17a8.39,8.39,0,0,1,.29,2c0,.59.11,1.17.1,1.75a1.76,1.76,0,0,1-.21.9.5.5,0,0,0-.07.27A12.94,12.94,0,0,1,27,30.19a.56.56,0,0,1-.3.14"/></g></g><g class="cls-5"><g class="cls-11"><path class="cls-4" d="M5.7,25a14.23,14.23,0,0,1-1.4-4.82l.18.15c.78,1,1.58,2,2.39,2.93C7.55,24,8.23,24.84,9,25.6a27.09,27.09,0,0,0,2.93,2.63,20.3,20.3,0,0,0,5.85,3.23,18,18,0,0,0,4.81.92,2,2,0,0,1-.62.16c-1.06,0-2.12,0-3.18-.1A25.89,25.89,0,0,1,15.58,32a19,19,0,0,1-4-1.35.13.13,0,0,0-.11-.05h0l0-.05h0a.23.23,0,0,0-.11-.11,13.2,13.2,0,0,1-1.56-1.33C9,28.34,8.3,27.55,7.58,26.79c-.53-.58-1.1-1.12-1.65-1.67A.21.21,0,0,0,5.75,25h0s0-.1,0-.06"/></g></g><g class="cls-8"><g class="cls-12"><path class="cls-4" d="M25.91,13l0,.14a2.68,2.68,0,0,1-1.34-.56,8.62,8.62,0,0,1-2.68-3.22A10.29,10.29,0,0,0,20.21,7a4.83,4.83,0,0,0-.42-.37.32.32,0,0,0-.4-.06l-.6.25c-.1,0-.15.1,0,.21A10.4,10.4,0,0,1,21,9.64,21,21,0,0,0,22.52,12a11.45,11.45,0,0,0,1.85,1.7c.08.06.25.1.2.2s-.21,0-.32,0a4.73,4.73,0,0,1-1.44-.84,9.73,9.73,0,0,1-2.32-3,9.07,9.07,0,0,0-1.66-2.28c-.15-.15-.33-.27-.5-.41s-.21-.08-.31,0L17.39,8c-.1.1-.07.17,0,.25a10.34,10.34,0,0,1,2,2.39c.48.74.88,1.52,1.39,2.23a9.43,9.43,0,0,0,1.8,1.77L23,15c.06,0,.11.08.07.15s-.09,0-.13,0a4.12,4.12,0,0,1-1.66-.92,9.53,9.53,0,0,1-2.26-3,9.5,9.5,0,0,0-1.75-2.38l-.08-.08c-.33-.3-.34-.31-.64,0a.41.41,0,0,1-.56,0,.35.35,0,0,1-.11-.48c0-.11.08-.19,0-.3a1.77,1.77,0,0,1-.13-2.3,4.38,4.38,0,0,1,1.15-1.2c.06,0,.15-.07.15-.16a14.21,14.21,0,0,1,2.69,0s0,.06,0,.07c.4.26.66.69,1.15.85s.39.34.11.62-.47.23-.69.41l.6.64a13.59,13.59,0,0,1,1.52,2.11,11.41,11.41,0,0,0,2.24,3,6.2,6.2,0,0,0,1.22.94"/></g></g><g class="cls-5"><g class="cls-13"><path class="cls-4" d="M25.91,13a6.2,6.2,0,0,1-1.22-.94,11.41,11.41,0,0,1-2.24-3A13.59,13.59,0,0,0,20.93,7l-.6-.64c.22-.18.5-.22.69-.41s.26-.5-.11-.62-.75-.59-1.15-.85c0,0,0,0,0-.07a14.39,14.39,0,0,1,4,.93,3.38,3.38,0,0,1,.72.34,35.25,35.25,0,0,1,1,3.8c.2,1.1.36,2.2.45,3.32,0,.08,0,.17,0,.26"/></g></g><path class="cls-3" d="M22.54,32.38a18,18,0,0,1-4.81-.92,20.3,20.3,0,0,1-5.85-3.23A27.09,27.09,0,0,1,9,25.6c-.72-.76-1.4-1.56-2.08-2.36-.81-1-1.61-1.95-2.39-2.93a1.37,1.37,0,0,0-.18-.16c0-.23-.08-.45,0-.68,0-.08,0-.18,0-.25.6.78,1.19,1.56,1.81,2.32a40.21,40.21,0,0,0,5.46,5.61,24.1,24.1,0,0,0,5,3.28,15.83,15.83,0,0,0,5,1.5,16.9,16.9,0,0,0,2,.09,3.71,3.71,0,0,1-1,.36"/><g class="cls-5"><g class="cls-14"><path class="cls-4" d="M11.56,30.62a19,19,0,0,0,4,1.35,25.89,25.89,0,0,0,3.16.47c1.06.11,2.12.09,3.17.1a4,4,0,0,1-1.09.25,14,14,0,0,1-3.3.15,13.63,13.63,0,0,1-3-.53,14.39,14.39,0,0,1-5.14-2.72c-.15-.12-.34-.21-.4-.42.35.21.7.43,1.06.62a6.4,6.4,0,0,0,1.32.63h0l0,.05h0s.06.05.11.05"/></g></g><g class="cls-8"><g class="cls-15"><path class="cls-4" d="M11.4,30.52a6.4,6.4,0,0,1-1.32-.63c-.36-.19-.71-.41-1.06-.62H9s-.06-.05-.11-.05h0l-.06-.06a10.87,10.87,0,0,1-1.55-1.63,12.55,12.55,0,0,1-1.46-2.27,2.29,2.29,0,0,1-.1-.23.21.21,0,0,1,.18.09c.55.55,1.12,1.09,1.65,1.67.72.76,1.41,1.55,2.15,2.29a13.3,13.3,0,0,0,1.57,1.33.27.27,0,0,1,.1.11"/></g></g><g class="cls-8"><g class="cls-16"><path class="cls-4" d="M32,23.48c-.1,0-.16.2-.29.11a.39.39,0,0,1-.17-.33c0-.14.11-.18.22-.22s0,0,.07-.06-.29,0-.33-.14a.82.82,0,0,1,0-.38.76.76,0,0,1,.33-.59c.15-.09.1-.18,0-.26s-.21-.25-.36-.07a.5.5,0,0,0-.09.21.69.69,0,0,1-.74.58c-.17,0-.17-.09-.11-.2a1.53,1.53,0,0,1,.39-.45,1.76,1.76,0,0,1,1.7-.49A13.83,13.83,0,0,1,32,23.48"/></g></g><g class="cls-8"><g class="cls-17"><path class="cls-4" d="M29.69,27.61a6.5,6.5,0,0,1,.76-2.3,1.69,1.69,0,0,1,.31-.35.53.53,0,0,1,.64-.08,4.54,4.54,0,0,1-.54,1.05,10.3,10.3,0,0,1-1.17,1.68"/></g></g><g class="cls-8"><g class="cls-18"><path class="cls-4" d="M32.75,20.41a.52.52,0,0,1-.34-.18c-.25-.4-.27-.52.21-.69a1.8,1.8,0,0,1,.22-.06l-.09.93"/></g></g><path class="cls-19" d="M8.91,29.22c.05,0,.09,0,.11.05a.09.09,0,0,1-.11-.05"/><g class="cls-8"><g class="cls-20"><path class="cls-4" d="M5.7,25c.08,0,0,0,0,.06l0-.06"/></g></g><path class="cls-19" d="M8.86,29.16l.06.06-.06-.06"/><g class="cls-8"><g class="cls-21"><path class="cls-4" d="M29.64,27.66l.05-.05-.05.05"/></g></g><path class="cls-22" d="M33.86,11.91h0l0,0h0l0,0"/><path class="cls-22" d="M33.39,12.82s0,0-.06,0,0,0,0,0l0,0"/><path class="cls-22" d="M9.68,5.3s.05.07,0,.08-.07,0-.1,0l.06-.06"/><path class="cls-22" d="M8.37,5.26s0,0,0-.06l0,0,0,0"/><path class="cls-2" d="M25.6,19.22a17,17,0,0,1-2.76,6.69,7.8,7.8,0,0,1-2.78-1.66,3.63,3.63,0,0,1-.59-.78,8.92,8.92,0,0,1-.61.94,3.18,3.18,0,0,1-2.59,1.28c-.07,0-.15,0-.19,0s0-.11.07-.15A4.87,4.87,0,0,0,16,19.42c-.08-.1-.16-.2-.25-.33a1.65,1.65,0,0,1,.67.06,4.31,4.31,0,0,1,3.07,2.27c.11.21.18.21.36.08a13.45,13.45,0,0,1,4.81-2.14c.3-.06.6-.09.9-.14"/><g class="cls-8"><g class="cls-23"><path class="cls-4" d="M17,10.94A2.24,2.24,0,0,1,16,10.21c-.41-.48-.62-1.09-1-1.56a2.76,2.76,0,0,0-.29-.3c-.13-.11-.26,0-.34.07s.05.14.1.19a6.21,6.21,0,0,1,1,1.34,3.64,3.64,0,0,0,1.07,1.17.13.13,0,0,1,.07.12A.8.8,0,0,1,16,11a3.72,3.72,0,0,1-1.15-1.4,3.37,3.37,0,0,0-.67-.88c-.15-.14-.25-.12-.39,0s-.06.22,0,.33a5,5,0,0,1,.86,1.19,3.69,3.69,0,0,0,1.14,1.28s.07,0,.05.13a1.22,1.22,0,0,1-.66-.35,3.74,3.74,0,0,1-.9-1.15,3.28,3.28,0,0,0-.71-1c-.09-.08-.15-.11-.26,0s-.27.06-.29-.14,0-.14,0-.2a.71.71,0,0,1,.06-1,1.28,1.28,0,0,1,1-.6,1.12,1.12,0,0,1,.67.3.88.88,0,0,0,.27.19c.17.08.18.2,0,.3s-.18.19,0,.33a4.11,4.11,0,0,1,.69,1,4.27,4.27,0,0,0,1.18,1.39c.05,0,.12,0,.13.17"/></g></g><g class="cls-8"><g class="cls-24"><path class="cls-4" d="M26.31,19.25c.07-.43.14-.86.2-1.29a.76.76,0,0,1,.06.2,2.85,2.85,0,0,0,.75,1.58,1.29,1.29,0,0,1,.29.54s.08.12,0,.16-.13,0-.18-.07c-.33-.33-.66-.67-1-1l-.14-.12"/></g></g><g class="cls-8"><g class="cls-25"><path class="cls-4" d="M25.45,22.42c0-.14.09-.28.14-.41.68.2,1.33.48,2,.64.13,0,.12.12,0,.21a.46.46,0,0,1-.44.06c-.47-.09-.91-.31-1.38-.42a2.45,2.45,0,0,0-.37-.08"/></g></g><g class="cls-5"><g class="cls-26"><path class="cls-4" d="M12.8,13a.64.64,0,0,1-.62.65.66.66,0,0,1-.67-.65.65.65,0,0,1,1.29,0"/></g></g><g class="cls-8"><g class="cls-27"><path class="cls-4" d="M11.56,30.62c-.05,0-.09,0-.11-.05a.13.13,0,0,1,.11.05"/></g></g><g class="cls-8"><g class="cls-28"><path class="cls-4" d="M11.45,30.57l0-.05,0,.05"/></g></g><path class="cls-4" d="M9,32.32a.28.28,0,0,1,.4-.09.27.27,0,0,1,.05.41.28.28,0,0,1-.4.09A.29.29,0,0,1,9,32.32"/><polygon class="cls-4" points="12.35 32.66 11.31 34.8 10.88 34.59 11.93 32.45 12.35 32.66"/><path class="cls-4" d="M13.1,35.5a1.07,1.07,0,0,1-.36-.08c-.59-.23-.68-.8-.44-1.43.32-.84.93-1,1.37-.82a.62.62,0,0,1,.29.18l-.22.34a.42.42,0,0,0-.19-.13c-.25-.09-.56,0-.77.58s-.08.82.19.93a1.2,1.2,0,0,0,.23,0Z"/><path class="cls-4" d="M15.36,35.28c.05-.22.1-.53.17-.77h0c-.1.23-.24.5-.33.67l-.4.78-.33-.08V35c0-.2,0-.5,0-.76h0c-.07.24-.15.53-.22.76l-.24.8-.4-.1.74-2.28.49.12,0,.89c0,.3,0,.58,0,.85h0c.1-.25.22-.5.35-.77l.39-.8.49.12-.42,2.35-.41-.1Z"/><polygon class="cls-4" points="16.63 33.92 17.1 33.98 16.88 35.96 17.5 36.02 17.46 36.41 16.36 36.29 16.63 33.92"/><path class="cls-4" d="M20,34l.15,1.54c0,.35.16.45.28.43s.22-.11.19-.47L20.49,34l.48,0,.14,1.46c.06.61-.14,1-.61,1s-.74-.27-.8-.86l-.15-1.47Z"/><path class="cls-4" d="M22.22,35.54l0,.56-.45.1V33.76l.56-.13,1,2.22-.45.11-.22-.51Zm.31-.43-.19-.47c-.05-.14-.14-.36-.2-.51h0c0,.16,0,.41,0,.55l0,.5Z"/><path class="cls-4" d="M25,35.27a.89.89,0,0,1-.33.17c-.59.21-1-.17-1.26-.81-.29-.85.08-1.35.53-1.5a.69.69,0,0,1,.34-.05l.05.39a.72.72,0,0,0-.23,0c-.25.09-.41.38-.22.94s.47.68.75.58a.93.93,0,0,0,.2-.1Z"/><path class="cls-4" d="M24.5,32.86l.43-.2.38.81h0a.59.59,0,0,1,.07-.2.58.58,0,0,1,.19-.16c.3-.14.53,0,.72.44l.45,1-.43.2-.45-.94c-.07-.16-.17-.28-.3-.22a.2.2,0,0,0-.09.23.38.38,0,0,0,0,.13l.46,1-.43.2Z"/><path class="cls-4" d="M28.19,32.48a.29.29,0,0,1,0-.41.28.28,0,0,1,.41.08.28.28,0,1,1-.44.33"/><rect class="cls-4" x="3.24" y="26.71" width="2.34" height="0.45" transform="translate(-13 5.91) rotate(-30.33)"/><path class="cls-4" d="M5,25.68l-2.12,1-.18-.38.69-.71c.13-.14.36-.37.51-.51h0c-.22.12-.58.31-1,.5l-.47.21-.16-.36,2.12-1,.18.38L4,25.49a5.18,5.18,0,0,1-.54.51h0c.21-.11.53-.28,1-.47l.48-.22Z"/><path class="cls-4" d="M3.84,24.12a.87.87,0,0,0,0-.39c-.07-.21-.21-.27-.35-.22s-.21.18-.27.4a.81.81,0,0,1-.48.63.67.67,0,0,1-.89-.49.71.71,0,0,1,0-.37l.39-.06a.57.57,0,0,0,0,.31.25.25,0,0,0,.32.2c.13-.05.18-.13.24-.42a.78.78,0,0,1,.51-.62.7.7,0,0,1,.91.52,1.15,1.15,0,0,1,.06.45Z"/><polygon class="cls-4" points="1.89 22.67 1.98 23.07 1.57 23.16 1.29 21.91 1.7 21.82 1.79 22.23 3.66 21.8 3.77 22.25 1.89 22.67"/><rect class="cls-4" x="1.16" y="20.73" width="2.34" height="0.45" transform="translate(-2.89 0.53) rotate(-7.98)"/><polygon class="cls-4" points="1.46 19.88 1.49 20.29 1.07 20.32 0.99 19.04 1.41 19.01 1.44 19.43 3.35 19.32 3.38 19.77 1.46 19.88"/><path class="cls-4" d="M1,18l1.52.08c.34,0,.45-.08.46-.2s-.08-.23-.44-.25L1,17.53l0-.46,1.44.08c.6,0,.91.27.89.72s-.37.66-1,.63L1,18.43Z"/><polygon class="cls-4" points="1.61 16.12 1.54 16.53 1.13 16.46 1.33 15.19 1.75 15.26 1.68 15.67 3.58 15.98 3.5 16.43 1.61 16.12"/><path class="cls-4" d="M2.91,13.6c.85.23,1.11.63,1,1.06s-.74.56-1.36.39S1.47,14.49,1.6,14s.79-.53,1.31-.39m-.23,1c.51.14.8.11.85-.06s-.27-.35-.73-.48S2,13.92,2,14.12s.21.35.7.48"/><path class="cls-4" d="M2.38,11.9a2.08,2.08,0,0,1,.15-.44A1,1,0,0,1,3,11a1.22,1.22,0,0,1,1,.12,1.3,1.3,0,0,1,.76.71,1,1,0,0,1-.09.74c-.06.13-.14.26-.18.33Zm2,.4a.21.21,0,0,0,0-.07c.09-.19,0-.46-.61-.73s-.76-.21-.87,0a.32.32,0,0,0,0,.09Z"/><polygon class="cls-4" points="4.91 9.85 4.63 10.3 5.17 10.63 5.49 10.11 5.83 10.32 5.28 11.22 3.27 10.01 3.8 9.14 4.14 9.35 3.85 9.83 4.31 10.11 4.59 9.65 4.91 9.85"/><path class="cls-4" d="M7.19,8.49A.85.85,0,0,1,7,8.8c-.38.46-.94.37-1.45-.05-.68-.56-.63-1.16-.34-1.51A.59.59,0,0,1,5.45,7l.25.3a.42.42,0,0,0-.17.13c-.16.2-.14.52.31.89s.73.33.91.12a.77.77,0,0,0,.11-.19Z"/><polygon class="cls-4" points="6.13 6.28 7.8 7.91 7.49 8.23 5.81 6.6 6.13 6.28"/><polygon class="cls-4" points="8.26 6.1 7.86 6.45 8.28 6.93 8.73 6.53 8.99 6.83 8.2 7.52 6.66 5.76 7.42 5.09 7.68 5.39 7.26 5.76 7.61 6.17 8.02 5.81 8.26 6.1"/><path class="cls-4" d="M9.33,6.55,8,4.63l.34-.24.82.55c.16.11.43.29.59.42h0c-.15-.2-.41-.51-.65-.87l-.3-.42.33-.23,1.33,1.92L10.13,6l-.8-.53c-.18-.12-.43-.3-.6-.44h0c.14.19.36.48.63.86l.3.44Z"/><path class="cls-4" d="M11.9,4.94a.77.77,0,0,1-.28.21c-.53.29-1,0-1.33-.6-.41-.77-.15-1.31.25-1.52a.69.69,0,0,1,.31-.1L11,3.3a.82.82,0,0,0-.2.06c-.23.13-.33.43,0,.94s.55.59.79.46a.94.94,0,0,0,.18-.14Z"/><rect class="cls-4" x="11.79" y="2.48" width="0.45" height="2.34" transform="translate(-0.46 5.1) rotate(-23.51)"/><path class="cls-4" d="M13.38,3.8l.07.54L13,4.47l-.25-2.38.52-.17L14.46,4l-.41.14-.27-.48Zm.25-.46L13.4,2.9c-.06-.13-.17-.34-.23-.48h0c0,.16.07.4.08.54l.08.49Z"/><path class="cls-4" d="M14.69,3.47a1.06,1.06,0,0,0,.4,0c.21,0,.28-.18.25-.33s-.15-.23-.37-.31a.77.77,0,0,1-.57-.54A.66.66,0,0,1,15,1.47a1,1,0,0,1,.38,0v.4a.52.52,0,0,0-.31,0,.25.25,0,0,0-.23.3c0,.13.12.19.4.28a.76.76,0,0,1,.55.57.7.7,0,0,1-.6.85,1.2,1.2,0,0,1-.46,0Z"/><path class="cls-4" d="M18.4,2.63c0-.22,0-.52,0-.77h0l-.12.73-.17.84h-.32l-.23-.81a6.68,6.68,0,0,1-.17-.73h0c0,.25,0,.55,0,.78V3.5l-.39,0L17,1.17l.48,0,.22.84c.08.29.15.55.2.81h0c0-.26.06-.53.11-.82l.15-.86.48,0,.24,2.33-.4,0Z"/><path class="cls-4" d="M19.75,3l-.15.52-.44,0,.71-2.28.54.05.25,2.37-.44,0L20.16,3Zm.4-.32,0-.49c0-.15,0-.38,0-.54h0c0,.15-.09.39-.13.52l-.13.48Z"/><path class="cls-4" d="M21.5,1.39a2.27,2.27,0,0,1,.5.06.92.92,0,0,1,.57.29.59.59,0,0,1,.08.52.62.62,0,0,1-.47.5h0a.56.56,0,0,1,.19.51,4.3,4.3,0,0,0,0,.66l-.46-.1a3.39,3.39,0,0,1,0-.57c0-.29,0-.39-.19-.42h-.06l-.19.91L21,3.65Zm.24,1.09.08,0a.33.33,0,0,0,.38-.3c0-.19,0-.34-.21-.39a.22.22,0,0,0-.11,0Z"/><rect class="cls-4" x="22.14" y="2.76" width="2.34" height="0.45" transform="translate(13.69 24.44) rotate(-73.14)"/><path class="cls-4" d="M23.71,4.34l.89-2.16.38.15v1c0,.19,0,.51,0,.72h0c.08-.24.2-.62.37-1l.19-.48.37.15L25,4.87l-.38-.16v-1A6.15,6.15,0,0,1,24.67,3h0c-.08.22-.2.56-.38,1l-.2.49Z"/><path class="cls-4" d="M26.05,4.81l-.35.42L25.31,5,26.9,3.22l.47.27-.75,2.26-.38-.22L26.41,5Zm.5-.12.17-.46c.05-.14.14-.36.2-.5h0l-.34.43-.31.38Z"/><path class="cls-4" d="M27.17,5.56a.91.91,0,0,0,.26.3c.18.12.33.09.42,0s.06-.27,0-.49a.8.8,0,0,1,0-.79.68.68,0,0,1,1-.13.86.86,0,0,1,.25.28L28.8,5a.49.49,0,0,0-.19-.24.26.26,0,0,0-.38,0c-.08.12-.06.21.05.49a.75.75,0,0,1,0,.79.71.71,0,0,1-1,.13,1.14,1.14,0,0,1-.31-.34Z"/><path class="cls-4" d="M28.86,7.48l.62-.65.62-1.4.35.33-.27.52c-.07.14-.16.29-.25.44h0c.14-.11.29-.2.43-.3l.48-.3.34.33-1.36.67-.63.66Z"/><polygon class="cls-4" points="32.07 7.46 32.35 7.82 30.81 9.03 31.18 9.5 30.88 9.73 30.23 8.91 32.07 7.46"/><rect class="cls-4" x="31.04" y="9.39" width="2.34" height="0.45" transform="translate(0.04 19.37) rotate(-33.49)"/><path class="cls-4" d="M33,11.79l.68-.37h0c-.24.08-.53.15-.71.19l-.84.21L32,11.52l.64-.55c.15-.12.38-.31.59-.46h0l-.71.33-.74.34-.18-.35,2.16-.92.22.42-.67.56-.65.52h0a7.59,7.59,0,0,1,.8-.24l.84-.23.22.43-2,1.19-.19-.36Z"/><path class="cls-4" d="M32.68,13l2.21-.77.13.39-.74.65-.57.46h0l1-.4.49-.17.13.38-2.21.77L33,13.9l.72-.63a5.46,5.46,0,0,1,.59-.46h0c-.22.08-.55.22-1,.37l-.5.18Z"/><path class="cls-4" d="M34.75,15.89c-.87.18-1.28-.05-1.37-.48s.39-.84,1-1,1.21,0,1.32.5-.45.84-1,1m-.26-1c-.52.11-.76.26-.72.44s.39.19.86.09.75-.23.7-.43-.35-.21-.84-.1"/><polygon class="cls-4" points="35.94 16.31 35.99 16.76 34.05 16.97 34.11 17.57 33.73 17.61 33.61 16.56 35.94 16.31"/><path class="cls-4" d="M35,19.28c-.89,0-1.25-.3-1.25-.75s.56-.74,1.2-.74,1.19.24,1.2.76-.62.73-1.15.73m0-1c-.53,0-.8.1-.8.29s.35.26.82.26.78-.07.78-.28-.3-.28-.8-.27m1.69.81-.39-.42v-.32l.4.28Z"/><path class="cls-4" d="M33.65,21a1.48,1.48,0,0,1,0-.49.81.81,0,0,1,.3-.59,1.28,1.28,0,0,1,1-.2c.84.1,1.14.63,1.09,1.12a1,1,0,0,1-.11.37l-.38-.12a.73.73,0,0,0,.08-.26c0-.31-.15-.58-.76-.64s-.78.13-.81.34v.09l.57.06,0-.2.37,0-.07.62Z"/><polygon class="cls-4" points="35.69 22.37 33.4 21.9 33.49 21.46 35.78 21.92 35.69 22.37"/><path class="cls-4" d="M33,23.52a1,1,0,0,1,0-.35c.17-.58.72-.71,1.36-.53.85.25,1,.82.91,1.25a.63.63,0,0,1-.14.29L34.82,24a.48.48,0,0,0,.1-.19c.07-.25-.07-.53-.63-.7s-.81,0-.88.26a.58.58,0,0,0,0,.22Z"/><path class="cls-4" d="M33.17,24.47l-.45-.3.17-.41,2,1.36-.21.51-2.33-.48.17-.41.53.12Zm.18.48.48.12.52.13h0c-.14-.08-.35-.2-.46-.28l-.42-.26Z"/><path class="cls-4" d="M32.56,25.67a.92.92,0,0,0-.26.29c-.1.19-.06.34.08.41s.27,0,.48-.08a.78.78,0,0,1,.78-.08.67.67,0,0,1,.25,1,.7.7,0,0,1-.25.28l-.31-.25a.51.51,0,0,0,.22-.22.26.26,0,0,0-.08-.37c-.12-.07-.22,0-.47.11a.76.76,0,0,1-.79.05.71.71,0,0,1-.26-1,1.1,1.1,0,0,1,.3-.35Z"/><rect class="cls-4" x="40.37" y="0.45" width="3.38" height="17.38"/><path class="cls-4" d="M55.09,17.57a6.87,6.87,0,0,1-2.63.41C48,18,45.91,14.32,45.91,9.4c0-6.55,3.64-9.1,7-9.1a4.65,4.65,0,0,1,2.34.46L54.71,3.6a3.43,3.43,0,0,0-1.58-.34c-1.9,0-3.63,1.65-3.63,6,0,4.15,1.57,5.77,3.63,5.77a6,6,0,0,0,1.63-.25Z"/><path class="cls-4" d="M67.57,11.75c-.08-1.65-.21-3.9-.15-5.75h-.08c-.31,1.85-.77,4-1.11,5.33l-1.5,6.22H62.34l-1.45-6.11c-.33-1.4-.8-3.56-1-5.44h-.08c0,1.88-.16,4.07-.26,5.8l-.28,6H56.3L57.57.45h3.55l1.4,6.29c.49,2.2.93,4.13,1.23,6.09h.06c.25-1.94.64-3.89,1.11-6.09L66.28.45h3.56L70.9,17.83h-3Z"/><polygon class="cls-4" points="73.37 0.45 76.75 0.45 76.75 14.97 81.21 14.97 81.21 17.83 73.37 17.83 73.37 0.45"/><rect class="cls-4" x="40.47" y="20.39" width="0.62" height="5.39"/><path class="cls-4" d="M42,22.91c0-.46,0-.69,0-1h.53l0,.46h0a1,1,0,0,1,.89-.53c.54,0,.94.4.94,1.34v2.6h-.62v-2.5c0-.45-.09-.92-.54-.92-.25,0-.5.22-.58.63a1.89,1.89,0,0,0,0,.35v2.44H42Z"/><path class="cls-4" d="M45.14,25.14a1.34,1.34,0,0,0,.63.2.53.53,0,0,0,.57-.56c0-.3-.11-.5-.5-.76s-.78-.66-.78-1.11a1,1,0,0,1,1.07-1.07,1.38,1.38,0,0,1,.69.2l-.16.47a.92.92,0,0,0-.52-.17.47.47,0,0,0-.5.49c0,.26.1.4.48.67a1.42,1.42,0,0,1,.8,1.17,1.08,1.08,0,0,1-1.16,1.15A1.3,1.3,0,0,1,45,25.6Z"/><path class="cls-4" d="M48.31,20.88v1h.74v.47h-.74v2.29c0,.51.18.64.41.64l.25,0,0,.47a1.38,1.38,0,0,1-.46.06.76.76,0,0,1-.6-.23,1.35,1.35,0,0,1-.24-1V22.38h-.47v-.47h.47v-.85Z"/><path class="cls-4" d="M50.26,20.91a.36.36,0,0,1-.38.4.36.36,0,0,1-.35-.4.37.37,0,0,1,.36-.4.36.36,0,0,1,.37.4m-.66,1h.61v3.87H49.6Z"/><path class="cls-4" d="M51.82,20.88v1h.74v.47h-.74v2.29c0,.51.18.64.41.64l.25,0,0,.47a1.38,1.38,0,0,1-.46.06.76.76,0,0,1-.6-.23,1.35,1.35,0,0,1-.24-1V22.38h-.47v-.47h.47v-.85Z"/><path class="cls-4" d="M55.42,24.72c0,.43,0,.77,0,1.06h-.54l0-.41h0a1,1,0,0,1-.83.47c-.68,0-.94-.53-.94-1.49V21.91h.62v2.35c0,.61.09,1.06.52,1.06a.6.6,0,0,0,.55-.51,2,2,0,0,0,0-.35V21.91h.61Z"/><path class="cls-4" d="M57,20.88v1h.74v.47H57v2.29c0,.51.18.64.41.64l.25,0,0,.47a1.38,1.38,0,0,1-.46.06.76.76,0,0,1-.6-.23,1.35,1.35,0,0,1-.24-1V22.38H56v-.47h.47v-.85Z"/><path class="cls-4" d="M60.65,23.84c0,1.5-.7,2-1.29,2s-1.26-.63-1.26-2,.63-2,1.3-2,1.25.65,1.25,2m-1.93,0c0,.64.11,1.51.67,1.51s.63-.91.63-1.51-.1-1.5-.65-1.5-.65.91-.65,1.5"/><path class="cls-4" d="M64.91,20.24v4.61c0,.26,0,.7,0,.93h-.53l0-.49h0a.88.88,0,0,1-.8.55c-.66,0-1.13-.71-1.13-2s.57-2,1.17-2a.75.75,0,0,1,.7.47h0V20.24Zm-.6,3.14a2.35,2.35,0,0,0,0-.26c0-.4-.28-.75-.58-.75-.51,0-.68.71-.68,1.49s.2,1.47.65,1.47c.19,0,.46-.11.59-.67a.9.9,0,0,0,0-.25Z"/><path class="cls-4" d="M66.21,23.9c0,1.18.47,1.44.92,1.44a1.28,1.28,0,0,0,.64-.16l.09.46a1.83,1.83,0,0,1-.84.18c-.93,0-1.41-.76-1.41-1.94s.53-2,1.3-2S68,22.67,68,23.55c0,.15,0,.25,0,.35Zm1.21-.46c0-.77-.28-1.12-.57-1.12s-.61.59-.63,1.12Z"/><path class="cls-4" d="M72.33,25.68a1.7,1.7,0,0,1-.77.14c-1,0-1.8-.84-1.8-2.67,0-2.13,1-2.81,1.9-2.81a1.23,1.23,0,0,1,.67.14L72.2,21a1.31,1.31,0,0,0-.55-.11c-.57,0-1.24.56-1.24,2.21s.6,2.19,1.26,2.19a1.42,1.42,0,0,0,.57-.12Z"/><path class="cls-4" d="M73.56,20.91a.37.37,0,0,1-.38.4.36.36,0,0,1-.35-.4.37.37,0,0,1,.36-.4.37.37,0,0,1,.37.4m-.67,1h.62v3.87h-.62Z"/><path class="cls-4" d="M74.8,23.9c0,1.18.47,1.44.91,1.44a1.25,1.25,0,0,0,.64-.16l.1.46a1.87,1.87,0,0,1-.85.18c-.92,0-1.4-.76-1.4-1.94s.52-2,1.3-2,1.1.83,1.1,1.71c0,.15,0,.25,0,.35ZM76,23.44c0-.77-.28-1.12-.58-1.12s-.6.59-.63,1.12Z"/><path class="cls-4" d="M77.26,22.91c0-.46,0-.69,0-1h.54l0,.46h0a1,1,0,0,1,.88-.53c.54,0,.94.4.94,1.34v2.6H79v-2.5c0-.45-.08-.92-.53-.92-.26,0-.51.22-.59.63a3.49,3.49,0,0,0,0,.35v2.44h-.62Z"/><path class="cls-4" d="M82.39,25.68a1.35,1.35,0,0,1-.64.14c-.85,0-1.42-.68-1.42-1.95s.56-2,1.53-2a1.36,1.36,0,0,1,.55.12l-.12.5a1,1,0,0,0-.44-.1c-.62,0-.9.74-.9,1.5s.34,1.44.91,1.44a1.1,1.1,0,0,0,.45-.1Z"/><path class="cls-4" d="M83.58,20.91a.36.36,0,0,1-.38.4.4.4,0,0,1,0-.8.36.36,0,0,1,.37.4m-.66,1h.61v3.87h-.61Z"/><path class="cls-4" d="M85.91,25.78l0-.41h0a.88.88,0,0,1-.77.47,1,1,0,0,1-.92-1.1c0-1,.78-1.4,1.65-1.41v-.12c0-.52-.13-.88-.61-.88a1.16,1.16,0,0,0-.64.2l-.14-.43a1.66,1.66,0,0,1,.9-.26c.78,0,1.11.51,1.11,1.39V24.9a6.19,6.19,0,0,0,0,.88Zm-.08-2c-.32,0-1.07,0-1.07.89,0,.51.26.69.47.69s.51-.2.58-.58a.9.9,0,0,0,0-.22Z"/><path class="cls-4" d="M87.19,25.14a1.34,1.34,0,0,0,.63.2.53.53,0,0,0,.57-.56c0-.3-.11-.5-.5-.76s-.78-.66-.78-1.11a1,1,0,0,1,1.07-1.07,1.38,1.38,0,0,1,.69.2l-.16.47a.92.92,0,0,0-.52-.17.47.47,0,0,0-.5.49c0,.26.1.4.48.67a1.42,1.42,0,0,1,.8,1.17,1.08,1.08,0,0,1-1.16,1.15A1.3,1.3,0,0,1,87,25.6Z"/><path class="cls-4" d="M94.17,23.46c0-.71-.08-1.51,0-2.11h0c-.12.6-.27,1.24-.44,1.87L93,25.74H92.6L92,23.32c-.18-.69-.34-1.35-.44-2h0c0,.63,0,1.38-.06,2.15l-.11,2.28h-.55l.32-5.39h.67l.63,2.46c.18.71.32,1.24.43,1.85h0c.11-.61.23-1.12.4-1.85l.61-2.46h.69l.31,5.39h-.57Z"/><path class="cls-4" d="M97.18,25.78l0-.41h0a.88.88,0,0,1-.77.47,1,1,0,0,1-.92-1.1c0-1,.77-1.4,1.65-1.41v-.12c0-.52-.13-.88-.62-.88a1.16,1.16,0,0,0-.64.2l-.14-.43a1.67,1.67,0,0,1,.91-.26c.77,0,1.11.51,1.11,1.39V24.9a6.19,6.19,0,0,0,0,.88Zm-.09-2c-.32,0-1.06,0-1.06.89,0,.51.25.69.47.69s.5-.2.58-.58a1.77,1.77,0,0,0,0-.22Z"/><path class="cls-4" d="M98.55,22.91c0-.33,0-.72,0-1h.55l0,.6h0a1,1,0,0,1,.82-.67h.13v.63h-.13a.85.85,0,0,0-.75.81c0,.11,0,.23,0,.35v2.15h-.62Z"/><path class="cls-4" d="M101.21,20.91a.37.37,0,1,1-.73,0,.37.37,0,0,1,.36-.4.37.37,0,0,1,.37.4m-.67,1h.62v3.87h-.62Z"/><path class="cls-4" d="M102,22.91c0-.46,0-.69,0-1h.54l0,.46h0a1,1,0,0,1,.88-.53c.54,0,.94.4.94,1.34v2.6h-.62v-2.5c0-.45-.08-.92-.53-.92-.26,0-.51.22-.59.63a3.49,3.49,0,0,0,0,.35v2.44H102Z"/><path class="cls-4" d="M106.78,25.78l0-.41h0a.88.88,0,0,1-.77.47,1,1,0,0,1-.92-1.1c0-1,.78-1.4,1.65-1.41v-.12c0-.52-.13-.88-.62-.88a1.18,1.18,0,0,0-.64.2l-.13-.43a1.66,1.66,0,0,1,.9-.26c.77,0,1.11.51,1.11,1.39V24.9a6.19,6.19,0,0,0,0,.88Zm-.09-2c-.32,0-1.06,0-1.06.89,0,.51.25.69.47.69s.5-.2.58-.58a1.77,1.77,0,0,0,0-.22Z"/><path class="cls-4" d="M108.06,25.14a1.34,1.34,0,0,0,.62.2.53.53,0,0,0,.57-.56c0-.3-.1-.5-.5-.76s-.77-.66-.77-1.11A1,1,0,0,1,109,21.84a1.39,1.39,0,0,1,.7.2l-.17.47a.87.87,0,0,0-.51-.17.47.47,0,0,0-.5.49c0,.26.09.4.47.67a1.42,1.42,0,0,1,.8,1.17,1.07,1.07,0,0,1-1.15,1.15,1.3,1.3,0,0,1-.77-.22Z"/><path class="cls-4" d="M40.74,29.48l.51,2.22c.07.3.11.56.16.8h0c0-.22.1-.51.16-.79l.46-2.23h.61L42,32a7.14,7.14,0,0,1-1,2.5,2.06,2.06,0,0,1-.7.59l-.22-.53a1.71,1.71,0,0,0,.54-.49,2.27,2.27,0,0,0,.35-.64.42.42,0,0,0,0-.19.76.76,0,0,0,0-.15l-1-3.57Z"/><polygon class="cls-4" points="44.49 27.96 45.1 27.96 45.1 32.83 46.62 32.83 46.62 33.35 44.49 33.35 44.49 27.96"/><path class="cls-4" d="M47.85,28.48a.36.36,0,0,1-.37.4.36.36,0,0,1-.35-.4.37.37,0,0,1,.36-.4.36.36,0,0,1,.36.4m-.66,1h.62v3.87h-.62Z"/><path class="cls-4" d="M48.66,30.48c0-.46,0-.69,0-1h.54l0,.48h0a1,1,0,0,1,.87-.55.81.81,0,0,1,.81.6h0a1.12,1.12,0,0,1,.38-.44.91.91,0,0,1,.54-.16c.52,0,.93.39.93,1.37v2.57h-.61V30.92c0-.5-.07-1-.55-1-.25,0-.48.22-.56.58a1.83,1.83,0,0,0,0,.35v2.49H50.4V30.81c0-.43-.08-.88-.53-.88-.25,0-.5.22-.58.63a3.25,3.25,0,0,0,0,.33v2.46h-.61Z"/><path class="cls-4" d="M53.62,30.48c0-.46,0-.69,0-1h.53l0,.46h0a1,1,0,0,1,.89-.53c.53,0,.93.4.93,1.34v2.6h-.61v-2.5c0-.45-.09-.92-.54-.92-.25,0-.5.22-.58.63a1.83,1.83,0,0,0,0,.35v2.44h-.61Z"/><path class="cls-4" d="M59.23,31.41c0,1.5-.7,2-1.29,2s-1.25-.63-1.25-2,.63-2,1.29-2,1.25.65,1.25,2m-1.93,0c0,.64.12,1.51.67,1.51s.64-.91.64-1.51-.11-1.5-.65-1.5-.66.91-.66,1.5"/><rect class="cls-4" x="59.92" y="27.81" width="0.62" height="5.53"/><path class="cls-4" d="M63.82,31.41c0,1.5-.7,2-1.29,2s-1.25-.63-1.25-2,.63-2,1.29-2,1.25.65,1.25,2m-1.93,0c0,.64.11,1.51.67,1.51s.64-.91.64-1.51-.11-1.5-.65-1.5-.66.91-.66,1.5m1.6-3.52L62.65,29h-.41l.62-1.08Z"/><path class="cls-4" d="M66.87,29.48c0,.27,0,.61,0,1.2v2.17c0,1-.13,1.4-.38,1.68a1.36,1.36,0,0,1-1,.42,1.75,1.75,0,0,1-.85-.2l.14-.48a1.58,1.58,0,0,0,.72.17c.49,0,.79-.3.79-1.18v-.39h0a.8.8,0,0,1-.75.47c-.68,0-1.13-.78-1.13-1.91,0-1.43.65-2,1.21-2a.77.77,0,0,1,.72.51h0l0-.44Zm-.64,1.33a.86.86,0,0,0,0-.28c-.07-.26-.21-.59-.56-.59s-.69.6-.69,1.46.32,1.44.69,1.44c.19,0,.43-.09.55-.56a1.08,1.08,0,0,0,0-.35Z"/><path class="cls-4" d="M68.36,28.48a.36.36,0,0,1-.38.4.36.36,0,0,1-.35-.4.37.37,0,0,1,.36-.4.36.36,0,0,1,.37.4m-.66,1h.61v3.87H67.7Z"/><path class="cls-4" d="M71.05,33.25a1.28,1.28,0,0,1-.64.15c-.84,0-1.41-.68-1.41-2,0-1.11.56-2,1.53-2a1.31,1.31,0,0,1,.54.12l-.12.51a1,1,0,0,0-.44-.11c-.62,0-.9.74-.9,1.5s.35,1.44.92,1.44a1.09,1.09,0,0,0,.44-.1Z"/><path class="cls-4" d="M73.13,33.35l0-.41h0a.86.86,0,0,1-.77.47,1,1,0,0,1-.92-1.1c0-1,.78-1.4,1.65-1.41v-.12c0-.52-.13-.88-.62-.88a1.18,1.18,0,0,0-.64.2l-.13-.43a1.66,1.66,0,0,1,.9-.26c.78,0,1.11.52,1.11,1.39v1.67a6.19,6.19,0,0,0,0,.88Zm-.09-2c-.32,0-1.06,0-1.06.89,0,.51.26.69.47.69a.62.62,0,0,0,.58-.58,1.62,1.62,0,0,0,0-.22Z"/><path class="cls-4" d="M74.41,32.71a1.24,1.24,0,0,0,.63.2.52.52,0,0,0,.56-.56c0-.3-.1-.5-.49-.76s-.78-.66-.78-1.11a1,1,0,0,1,1.06-1.07,1.39,1.39,0,0,1,.7.2l-.17.47a.87.87,0,0,0-.51-.17.47.47,0,0,0-.5.49c0,.26.09.4.48.67a1.44,1.44,0,0,1,.8,1.17A1.09,1.09,0,0,1,75,33.4a1.3,1.3,0,0,1-.77-.23Z"/><rect class="cls-4" x="77.89" y="31.02" width="1.75" height="0.48"/><path class="cls-4" d="M82.22,28v3.61c0,1,.32,1.3.74,1.3s.74-.35.74-1.3V28h.62v3.52c0,1.4-.58,1.93-1.38,1.93s-1.33-.53-1.33-1.86V28Z"/><path class="cls-4" d="M85.83,31.73l-.36,1.62h-.59L86.11,28h.68L88,33.35h-.61L87,31.73Zm1.11-.49-.28-1.37c-.08-.38-.15-.83-.22-1.23h0c-.06.41-.14.87-.21,1.23l-.29,1.37Z"/><path class="cls-4" d="M90.86,33.25a1.72,1.72,0,0,1-.77.15c-1.06,0-1.81-.85-1.81-2.68,0-2.13,1.06-2.81,1.9-2.81a1.3,1.3,0,0,1,.68.14l-.14.52a1.1,1.1,0,0,0-.54-.12c-.58,0-1.25.56-1.25,2.21s.61,2.19,1.26,2.19a1.27,1.27,0,0,0,.57-.12Z"/><path class="cls-4" d="M91.42,27.81H92v2.08h0a1.44,1.44,0,0,1,.32-.33.94.94,0,0,1,.52-.15c.49,0,.91.4.91,1.37v2.57h-.62v-2.5c0-.47-.1-.92-.52-.92s-.5.21-.6.62a2.83,2.83,0,0,0,0,.3v2.5h-.62Z"/></svg>