<svg id="Capa_1" data-name="Capa 1" xmlns="http://www.w3.org/2000/svg" viewBox="0 0 189.16 42.01"><defs><style>.cls-1,.cls-2{fill:#fff;}.cls-2{fill-rule:evenodd;}.cls-3{fill:#008292;}</style></defs><rect class="cls-1" x="37.02" y="22.27" width="152.14" height="0.13"/><path class="cls-2" d="M48.55,10.43v5a5.51,5.51,0,0,1-.36,2.12,2.22,2.22,0,0,1-1,1.11,2.76,2.76,0,0,1-1.4.32,3.63,3.63,0,0,1-1.26-.22,2.18,2.18,0,0,1-1-.77,2.62,2.62,0,0,1-.43-1.53V10c0-.2,0-.35,0-.44s-.05-.16-.11-.17l-.56-.11c-.08,0-.12-.08-.11-.19s0-.08.09-.1a.43.43,0,0,1,.19,0l.49,0a5.35,5.35,0,0,0,.58,0c.34,0,.6,0,.78,0l.45,0c.25,0,.38,0,.38.18s-.16.19-.49.21a.74.74,0,0,0-.45.16c-.13.1-.2.36-.2.8v6.49a1.87,1.87,0,0,0,.3,1.11,1.63,1.63,0,0,0,.71.6,1.81,1.81,0,0,0,.83.18,2,2,0,0,0,1-.25,2,2,0,0,0,.79-.86A3.57,3.57,0,0,0,48.11,16V10.59a2.31,2.31,0,0,0-.14-1,.55.55,0,0,0-.49-.27,1.65,1.65,0,0,1-.34,0,.17.17,0,0,1-.09-.18c0-.13.09-.19.28-.21l.33,0a5.55,5.55,0,0,0,.57,0c.34,0,.57,0,.72,0l.33,0q.22,0,.21.21a.14.14,0,0,1-.13.15L49,9.35a.41.41,0,0,0-.33.25,2,2,0,0,0-.09.83"/><path class="cls-2" d="M51.75,13.64v4.3a.63.63,0,0,0,.08.38.51.51,0,0,0,.36.17,4.51,4.51,0,0,1,.48.08.12.12,0,0,1,.1.14c0,.1-.08.16-.22.15l-.3,0c-.17,0-.51,0-1,0a5.34,5.34,0,0,0-.71,0l-.28,0c-.19,0-.29-.06-.28-.18s.08-.16.22-.19a.76.76,0,0,0,.51-.2,1.08,1.08,0,0,0,.11-.62V13.2c0-.21,0-.35-.08-.4a.62.62,0,0,0-.38-.1c-.23,0-.34,0-.32-.14s.1-.15.3-.24a4,4,0,0,0,.89-.53,1.19,1.19,0,0,1,.35-.25c.06,0,.1.07.11.19,0,.41,0,.67,0,.78s0,.14.06.13a1,1,0,0,0,.42-.26,5.59,5.59,0,0,1,.7-.49,1.94,1.94,0,0,1,1-.25,1.76,1.76,0,0,1,1.2.42,1.8,1.8,0,0,1,.58,1.36v4.33a1.07,1.07,0,0,0,.1.55.41.41,0,0,0,.34.19.92.92,0,0,1,.37.07.15.15,0,0,1,.1.15.18.18,0,0,1-.22.15l-.27,0a8.63,8.63,0,0,0-.89,0,6.28,6.28,0,0,0-.77,0l-.31,0c-.16,0-.24-.05-.23-.17s.1-.17.3-.2a.79.79,0,0,0,.43-.16.51.51,0,0,0,.11-.41V13.54a1.26,1.26,0,0,0-.36-1,1.25,1.25,0,0,0-.92-.34,1.78,1.78,0,0,0-1.11.41,1.31,1.31,0,0,0-.52,1"/><path class="cls-2" d="M58,17.76V13.18a.45.45,0,0,0-.12-.38,1.19,1.19,0,0,0-.53-.2c-.09,0-.14-.07-.14-.15s.13-.17.45-.29a3.74,3.74,0,0,0,.81-.41,1.39,1.39,0,0,1,.35-.21q.12,0,.12.15v6a1.15,1.15,0,0,0,.07.52q.09.2.48.27c.28.05.41.12.39.22s-.06.16-.23.16l-.37,0a7.44,7.44,0,0,0-.82,0,8,8,0,0,0-.85,0l-.32,0a.17.17,0,0,1-.19-.17c0-.1.07-.17.26-.21a.9.9,0,0,0,.54-.19.77.77,0,0,0,.1-.53m-.1-8A.87.87,0,0,1,58,9.13a.53.53,0,0,1,.4-.19.5.5,0,0,1,.41.19.87.87,0,0,1,.17.59.93.93,0,0,1-.17.61.52.52,0,0,1-.41.18.55.55,0,0,1-.4-.18.93.93,0,0,1-.17-.61"/><path class="cls-2" d="M63,16.82s.07,0,.11-.11.1-.28.2-.59.24-.78.46-1.44.4-1.26.5-1.59a3,3,0,0,0,.14-.62.35.35,0,0,0-.12-.34,1.58,1.58,0,0,0-.57-.11.21.21,0,0,1-.2-.19c0-.14.09-.2.31-.19l.8.07.7-.07c.23,0,.34,0,.33.14a.2.2,0,0,1,0,.13.49.49,0,0,1-.22.11.58.58,0,0,0-.41.36c-.09.2-.19.49-.31.86s-.38,1.08-.59,1.74-.41,1.29-.6,1.91S63.15,18,63,18.4c0,.16-.07.29-.1.4a.17.17,0,0,1-.18.16c-.09,0-.16-.06-.2-.19s-.1-.35-.17-.63c-.17-.57-.34-1.15-.52-1.74s-.33-1.15-.49-1.68-.29-1-.4-1.36a10.69,10.69,0,0,0-.35-1,.43.43,0,0,0-.34-.3c-.19,0-.28-.09-.3-.2a.15.15,0,0,1,.1-.14.46.46,0,0,1,.21,0l.42,0,.57,0,.44,0,.45,0a.7.7,0,0,1,.28,0,.15.15,0,0,1,0,.15c0,.08-.12.14-.36.19a.92.92,0,0,0-.35.14.23.23,0,0,0-.09.19,1.05,1.05,0,0,0,0,.18c0,.09.08.28.16.57l.38,1.37c.19.72.34,1.25.43,1.59s.16.55.2.64.07.13.1.12"/><path class="cls-2" d="M69.79,15H66.92c-.25,0-.37.11-.36.28a4.29,4.29,0,0,0,.52,2.24,1.54,1.54,0,0,0,1.33.83,1.4,1.4,0,0,0,.84-.25,1.61,1.61,0,0,0,.54-.64c.08-.19.14-.32.17-.41s.08-.13.12-.12.11,0,.11.18A1.85,1.85,0,0,1,68.25,19a2.41,2.41,0,0,1-2-1,4.34,4.34,0,0,1-.72-2.58,5.58,5.58,0,0,1,.39-2.17,3,3,0,0,1,1-1.29,2.23,2.23,0,0,1,1.29-.42,1.76,1.76,0,0,1,1.41.65A2.8,2.8,0,0,1,70.16,14a3.72,3.72,0,0,1,0,.83c0,.11-.15.16-.33.14M66.6,14.2a.27.27,0,0,0,.09.28,1.49,1.49,0,0,0,.59.06,4.15,4.15,0,0,0,1.8-.22.45.45,0,0,0,.16-.23,1.81,1.81,0,0,0,.05-.47A2.17,2.17,0,0,0,69,12.36a1,1,0,0,0-.85-.44,1.29,1.29,0,0,0-1.07.66,3,3,0,0,0-.43,1.62"/><path class="cls-2" d="M71.77,17.64V13.4a.76.76,0,0,0-.14-.55.62.62,0,0,0-.47-.12c-.11,0-.16,0-.16-.13a.23.23,0,0,1,.16-.2l.38-.15a1.55,1.55,0,0,0,.51-.37l.24-.26a.25.25,0,0,1,.17-.08c.08,0,.12.13.13.35s0,.43,0,.65,0,.33.07.35.16-.14.25-.35a2.52,2.52,0,0,1,.43-.65,1.09,1.09,0,0,1,.81-.35.72.72,0,0,1,.6.28,1.19,1.19,0,0,1,.21.75,1.14,1.14,0,0,1-.14.62.47.47,0,0,1-.44.24.47.47,0,0,1-.43-.18.78.78,0,0,1-.12-.44,2,2,0,0,0,0-.35c0-.11-.07-.16-.14-.17a.71.71,0,0,0-.56.41,3,3,0,0,0-.31.85,3.23,3.23,0,0,0-.1.68v3.26a1.88,1.88,0,0,0,.08.73c.06.14.23.23.48.27s.52.11.52.2-.1.18-.36.17l-.3,0a8.56,8.56,0,0,0-.91,0,5.94,5.94,0,0,0-.73,0l-.27,0c-.21,0-.31-.05-.3-.19s.13-.17.33-.18a.56.56,0,0,0,.43-.18,1.4,1.4,0,0,0,.09-.67"/><path class="cls-2" d="M75.16,13.42a1.84,1.84,0,0,1,.33-1.1,1.91,1.91,0,0,1,.8-.6,2.89,2.89,0,0,1,1-.18,2.48,2.48,0,0,1,1.17.25s.07.1.08.23,0,.35,0,.64,0,.48,0,.62-.06.2-.14.2-.12-.06-.17-.19-.11-.35-.22-.64a1.41,1.41,0,0,0-.33-.53.83.83,0,0,0-.56-.21,1.24,1.24,0,0,0-.84.31,1.06,1.06,0,0,0-.34.77,1.22,1.22,0,0,0,.48.92,8.79,8.79,0,0,0,1,.71,4.23,4.23,0,0,1,1,.83,1.91,1.91,0,0,1,.47,1.3,2.17,2.17,0,0,1-.63,1.64,2.39,2.39,0,0,1-1.7.59,3.82,3.82,0,0,1-.76-.06l-.47-.12c-.08,0-.14-.09-.17-.25a5.63,5.63,0,0,1,0-1,4.08,4.08,0,0,1,0-.76c0-.12.07-.17.13-.16s.12.05.15.17.11.37.23.73a1.94,1.94,0,0,0,.44.79,1,1,0,0,0,.71.31,1.17,1.17,0,0,0,.88-.35,1.29,1.29,0,0,0,.33-.9,1.53,1.53,0,0,0-.46-1.13,4.61,4.61,0,0,0-1-.71,3.9,3.9,0,0,1-1-.78,2,2,0,0,1-.46-1.32"/><path class="cls-2" d="M80.53,17.76V13.18a.45.45,0,0,0-.12-.38,1.19,1.19,0,0,0-.54-.2.17.17,0,0,1-.14-.15c0-.07.13-.17.46-.29a3.74,3.74,0,0,0,.81-.41,1.42,1.42,0,0,1,.34-.21c.08,0,.13.05.13.15v6a1.15,1.15,0,0,0,.07.52q.08.2.48.27c.28.05.41.12.39.22s-.07.16-.24.16l-.36,0a7.66,7.66,0,0,0-.83,0,8,8,0,0,0-.85,0l-.32,0a.17.17,0,0,1-.19-.17q0-.15.27-.21a.86.86,0,0,0,.53-.19.76.76,0,0,0,.11-.53m-.11-8a.92.92,0,0,1,.18-.59.51.51,0,0,1,.4-.19.52.52,0,0,1,.41.19.92.92,0,0,1,.17.59,1,1,0,0,1-.17.61.54.54,0,0,1-.41.18.53.53,0,0,1-.4-.18,1,1,0,0,1-.18-.61"/><path class="cls-2" d="M86.88,11.89V9.05a.32.32,0,0,0-.09-.26.8.8,0,0,0-.36-.13c-.24,0-.35-.08-.33-.17s.06-.16.22-.2c.41-.15.71-.27.89-.36l.37-.18a.32.32,0,0,1,.16-.06c.05,0,.08,0,.08.22v9.76a2.42,2.42,0,0,0,0,.48c0,.09.05.12.09.12a.36.36,0,0,0,.3-.19,3,3,0,0,0,.18-.36c0-.11.09-.18.15-.19s.15.1.14.33a.7.7,0,0,1-.12.52,1.6,1.6,0,0,1-.52.3l-.6.24-.18,0c-.14,0-.23-.07-.25-.24L87,18.35c0-.1,0-.16-.11-.18a.55.55,0,0,0-.21.21,1.78,1.78,0,0,1-.45.37,1.66,1.66,0,0,1-.85.21,2,2,0,0,1-1.8-1A5.17,5.17,0,0,1,83,15.31a5.33,5.33,0,0,1,.32-1.85,3.58,3.58,0,0,1,.91-1.4,2.1,2.1,0,0,1,1.41-.55,1.57,1.57,0,0,1,.85.23,1.75,1.75,0,0,0,.36.22s.06,0,.06-.07m0,5.41V13.43a1.74,1.74,0,0,0-.35-1.1,1.12,1.12,0,0,0-.92-.44,1.06,1.06,0,0,0-.71.29,2.21,2.21,0,0,0-.63,1,6,6,0,0,0-.27,1.9,5.75,5.75,0,0,0,.4,2.48,1.28,1.28,0,0,0,1.23.8,1.5,1.5,0,0,0,.84-.25,1,1,0,0,0,.41-.81"/><path class="cls-2" d="M93.8,12.61v5a.62.62,0,0,0,.11.37.38.38,0,0,0,.32.19.46.46,0,0,0,.4-.18,1,1,0,0,0,.16-.34c0-.11.09-.17.16-.18s.13.06.13.22a1.3,1.3,0,0,1-.12.46,1.58,1.58,0,0,1-.4.54,1.1,1.1,0,0,1-.73.26.7.7,0,0,1-.62-.28,1.6,1.6,0,0,1-.23-.52c0-.17-.08-.26-.15-.28a1.06,1.06,0,0,0-.38.3,3.11,3.11,0,0,1-.68.55,2.19,2.19,0,0,1-1.09.3,1.05,1.05,0,0,1-.81-.35,1.55,1.55,0,0,1-.33-1,1.51,1.51,0,0,1,.37-1,7.45,7.45,0,0,1,1.27-1.09l1.06-.75a2.53,2.53,0,0,0,.49-.44.71.71,0,0,0,.13-.43V13a1.61,1.61,0,0,0-.16-.85.55.55,0,0,0-.5-.23,1.23,1.23,0,0,0-1,.43,2.84,2.84,0,0,0-.49,1.08,1.29,1.29,0,0,1-.32.55.87.87,0,0,1-.62.26c-.24,0-.35-.1-.33-.34a1.32,1.32,0,0,1,.18-.66,3.13,3.13,0,0,1,.71-.86,3.28,3.28,0,0,1,1.06-.63,3.52,3.52,0,0,1,1.15-.2,1.48,1.48,0,0,1,1,.22,1.11,1.11,0,0,1,.26.86m-.94,4.19V15.08c0-.15,0-.21-.13-.2a.16.16,0,0,0-.13,0,1.68,1.68,0,0,0-.26.15,6.42,6.42,0,0,0-1.27,1.09,2,2,0,0,0-.5,1.25,1,1,0,0,0,.23.69.75.75,0,0,0,.56.23,1.64,1.64,0,0,0,1-.53,1.42,1.42,0,0,0,.36-.45,1.27,1.27,0,0,0,.11-.54"/><path class="cls-2" d="M99.05,11.89V9.05A.36.36,0,0,0,99,8.79a.8.8,0,0,0-.37-.13c-.23,0-.34-.08-.33-.17s.06-.16.22-.2a9,9,0,0,0,.9-.36l.37-.18a.29.29,0,0,1,.16-.06s.07,0,.08.22v9.76a2.42,2.42,0,0,0,0,.48c0,.09,0,.12.09.12a.36.36,0,0,0,.3-.19,2,2,0,0,0,.17-.36c0-.11.1-.18.16-.19s.14.1.14.33a.75.75,0,0,1-.12.52,1.6,1.6,0,0,1-.52.3l-.6.24-.19,0c-.14,0-.22-.07-.25-.24l-.06-.37c0-.1,0-.16-.11-.18s-.12.08-.22.21a1.55,1.55,0,0,1-.44.37,1.7,1.7,0,0,1-.86.21,2,2,0,0,1-1.8-1,5.17,5.17,0,0,1-.57-2.64,5.33,5.33,0,0,1,.32-1.85,3.48,3.48,0,0,1,.91-1.4,2.06,2.06,0,0,1,1.41-.55,1.5,1.5,0,0,1,.84.23A2.57,2.57,0,0,0,99,12s.07,0,.07-.07m0,5.41V13.43a1.75,1.75,0,0,0-.36-1.1,1.11,1.11,0,0,0-1.63-.15,2.29,2.29,0,0,0-.62,1,5.68,5.68,0,0,0-.27,1.9,5.75,5.75,0,0,0,.4,2.48,1.28,1.28,0,0,0,1.22.8,1.51,1.51,0,0,0,.85-.25,1,1,0,0,0,.41-.81"/><path class="cls-2" d="M107.69,15.32h-1.8a.3.3,0,0,0-.28.12,2.27,2.27,0,0,0-.23.7c-.12.46-.2.82-.26,1.08s-.1.43-.12.55a1.78,1.78,0,0,0,0,.28.33.33,0,0,0,.08.25.61.61,0,0,0,.37.17l.36.06a.16.16,0,0,1,.14.16c0,.12-.09.18-.26.17l-1-.06a4.64,4.64,0,0,0-.67,0l-.2,0a.16.16,0,0,1-.18-.17.19.19,0,0,1,.13-.18,1.72,1.72,0,0,0,.26-.1.37.37,0,0,0,.22-.25c.3-.88.57-1.82.84-2.82s.53-2,.79-3.06.53-2.06.8-3.06a2,2,0,0,1,.12-.35.19.19,0,0,1,.18-.12.17.17,0,0,1,.16.09,1,1,0,0,1,.1.29l.72,2.59c.24.83.49,1.73.76,2.7l1,3.45a1.76,1.76,0,0,0,.16.39.53.53,0,0,0,.23.22l.32.09c.09,0,.15.09.15.16s-.1.13-.33.13a3.59,3.59,0,0,1-.47,0,3.43,3.43,0,0,0-.48,0l-1.11.06c-.16,0-.25-.05-.27-.17s.15-.2.41-.21a.47.47,0,0,0,.29-.07.42.42,0,0,0,.12-.32,3.22,3.22,0,0,0-.12-.53c-.08-.3-.2-.78-.38-1.45a2.34,2.34,0,0,0-.22-.64.32.32,0,0,0-.3-.15m-1-4.08s-.09,0-.12.09a3,3,0,0,0-.12.43L106,13.67c-.11.44-.18.74-.22.9s0,.25,0,.27,0,.07.14.09.37,0,.8,0h.78a.88.88,0,0,0,.3,0,.09.09,0,0,0,0-.09c0-.09-.09-.41-.24-.94s-.36-1.31-.62-2.33c-.06-.23-.13-.33-.22-.31"/><path class="cls-2" d="M112.13,12.26V17a1.36,1.36,0,0,0,.36,1,1.33,1.33,0,0,0,.92.34,1.83,1.83,0,0,0,1.12-.41,1.35,1.35,0,0,0,.51-1V12.64a.68.68,0,0,0-.07-.39.48.48,0,0,0-.37-.16,3.73,3.73,0,0,1-.41-.05.15.15,0,0,1-.1-.18c0-.12.08-.19.26-.21h1.4a.24.24,0,0,1,.17.06.47.47,0,0,1,.06.3V17.3a1.47,1.47,0,0,0,.07.57.32.32,0,0,0,.29.17,1,1,0,0,1,.34.06.1.1,0,0,1,.08.12c0,.08-.09.16-.29.24q-.56.21-.87.36a1.81,1.81,0,0,1-.37.15s0,0-.07-.06a1.06,1.06,0,0,1,0-.39,4.55,4.55,0,0,0,0-.52q0-.11-.09-.09a1,1,0,0,0-.37.25,3.32,3.32,0,0,1-.65.47,2.07,2.07,0,0,1-1,.25,2,2,0,0,1-1.21-.34,1.69,1.69,0,0,1-.58-1.35V12.56a.43.43,0,0,0-.09-.34.55.55,0,0,0-.35-.13c-.29,0-.42-.09-.4-.22s.1-.2.33-.22h1.2c.11,0,.19,0,.21.1a1.52,1.52,0,0,1,0,.51"/><path class="cls-2" d="M117.29,13.42a1.84,1.84,0,0,1,.33-1.1,1.91,1.91,0,0,1,.8-.6,2.89,2.89,0,0,1,1-.18,2.48,2.48,0,0,1,1.17.25s.07.1.08.23,0,.35,0,.64,0,.48,0,.62-.06.2-.14.2-.12-.06-.17-.19-.11-.35-.22-.64a1.41,1.41,0,0,0-.33-.53.83.83,0,0,0-.56-.21,1.24,1.24,0,0,0-.84.31,1.06,1.06,0,0,0-.34.77,1.22,1.22,0,0,0,.48.92,8.79,8.79,0,0,0,1,.71,4.23,4.23,0,0,1,1,.83,1.91,1.91,0,0,1,.47,1.3,2.17,2.17,0,0,1-.63,1.64,2.39,2.39,0,0,1-1.7.59,3.82,3.82,0,0,1-.76-.06l-.47-.12c-.08,0-.14-.09-.17-.25a5.63,5.63,0,0,1,0-1,4.08,4.08,0,0,1,0-.76c0-.12.07-.17.13-.16s.12.05.15.17.11.37.23.73a1.94,1.94,0,0,0,.44.79,1,1,0,0,0,.71.31,1.17,1.17,0,0,0,.88-.35,1.29,1.29,0,0,0,.33-.9,1.53,1.53,0,0,0-.46-1.13,4.61,4.61,0,0,0-1-.71,3.9,3.9,0,0,1-1-.78,2,2,0,0,1-.46-1.32"/><path class="cls-2" d="M123.34,12.53V17.7a.8.8,0,0,0,.13.51.44.44,0,0,0,.34.11.59.59,0,0,0,.46-.23,2.61,2.61,0,0,0,.27-.44c.07-.14.15-.22.23-.23s.14,0,.14.12a1.84,1.84,0,0,1-.1.4,3.68,3.68,0,0,1-.26.57.9.9,0,0,1-.42.38,1.62,1.62,0,0,1-.57.09,1.13,1.13,0,0,1-.84-.3,1.45,1.45,0,0,1-.31-1.05V12.38c0-.12-.06-.2-.17-.22a.89.89,0,0,0-.33,0,.42.42,0,0,1-.18,0s-.07-.07-.08-.16a.66.66,0,0,1,.16-.26,6.29,6.29,0,0,0,.44-.57,10.41,10.41,0,0,0,.69-1.14l.15-.3c0-.05.06-.08.11-.08a.11.11,0,0,1,.11.07,1.08,1.08,0,0,1,0,.32v1.4c0,.24.1.35.32.34h.62c.27,0,.4.06.39.24a.23.23,0,0,1-.08.22.59.59,0,0,1-.34.07h-.7a.18.18,0,0,0-.16.06.35.35,0,0,0,0,.22"/><path class="cls-2" d="M126.06,17.64V13.4a.76.76,0,0,0-.13-.55.63.63,0,0,0-.48-.12c-.1,0-.15,0-.15-.13a.21.21,0,0,1,.15-.2l.39-.15a1.55,1.55,0,0,0,.51-.37l.23-.26a.27.27,0,0,1,.17-.08c.08,0,.12.13.13.35s0,.43,0,.65,0,.33.07.35.15-.14.25-.35a2.52,2.52,0,0,1,.43-.65,1.05,1.05,0,0,1,.8-.35.72.72,0,0,1,.6.28,1.26,1.26,0,0,1,.22.75,1.24,1.24,0,0,1-.14.62.47.47,0,0,1-.44.24.51.51,0,0,1-.44-.18.78.78,0,0,1-.11-.44,1.89,1.89,0,0,0,0-.35c0-.11-.06-.16-.14-.17a.7.7,0,0,0-.55.41,3,3,0,0,0-.32.85,4.08,4.08,0,0,0-.1.68v3.26a1.67,1.67,0,0,0,.09.73q.09.21.48.27c.34,0,.51.11.51.2s-.1.18-.36.17l-.29,0a8.83,8.83,0,0,0-.91,0,5.94,5.94,0,0,0-.73,0l-.27,0c-.21,0-.31-.05-.3-.19s.12-.17.33-.18a.55.55,0,0,0,.42-.18,1.28,1.28,0,0,0,.09-.67"/><path class="cls-2" d="M134.19,12.61v5a.7.7,0,0,0,.11.37.41.41,0,0,0,.33.19A.49.49,0,0,0,135,18a1.31,1.31,0,0,0,.16-.34c0-.11.09-.17.16-.18s.12.06.12.22a1.3,1.3,0,0,1-.12.46,1.46,1.46,0,0,1-.4.54,1.1,1.1,0,0,1-.73.26.71.71,0,0,1-.62-.28,1.57,1.57,0,0,1-.22-.52c0-.17-.09-.26-.16-.28a1.05,1.05,0,0,0-.37.3,3.68,3.68,0,0,1-.68.55,2.22,2.22,0,0,1-1.09.3,1.05,1.05,0,0,1-.81-.35,1.5,1.5,0,0,1-.34-1,1.56,1.56,0,0,1,.37-1,7.6,7.6,0,0,1,1.28-1.09l1-.75a2.67,2.67,0,0,0,.5-.44.7.7,0,0,0,.12-.43V13a1.61,1.61,0,0,0-.16-.85.54.54,0,0,0-.5-.23,1.21,1.21,0,0,0-1,.43,2.85,2.85,0,0,0-.5,1.08,1.26,1.26,0,0,1-.31.55.87.87,0,0,1-.63.26c-.23,0-.34-.1-.33-.34a1.56,1.56,0,0,1,.18-.66,3.33,3.33,0,0,1,.71-.86,3.28,3.28,0,0,1,1.06-.63,3.62,3.62,0,0,1,1.15-.2,1.48,1.48,0,0,1,1,.22,1.07,1.07,0,0,1,.26.86m-.94,4.19V15.08c0-.15,0-.21-.12-.2a.18.18,0,0,0-.14,0,1.32,1.32,0,0,0-.25.15,6.5,6.5,0,0,0-1.28,1.09A2,2,0,0,0,131,17.4a1,1,0,0,0,.22.69.77.77,0,0,0,.56.23,1.61,1.61,0,0,0,1-.53,1.63,1.63,0,0,0,.37-.45,1.27,1.27,0,0,0,.1-.54"/><path class="cls-2" d="M136.54,17.8V9.05a.32.32,0,0,0-.08-.26.78.78,0,0,0-.37-.13c-.24,0-.35-.08-.33-.17s.06-.16.22-.2q.61-.22.9-.36l.36-.18a.35.35,0,0,1,.16-.06s.08,0,.08.22v10c0,.19.05.31.16.36a2.37,2.37,0,0,0,.54.18l.22.06a.12.12,0,0,1,.08.12.17.17,0,0,1-.17.19l-.33,0c-.16,0-.48,0-.95,0a8.3,8.3,0,0,0-.87,0l-.34,0a.19.19,0,0,1-.12,0,.21.21,0,0,1-.07-.15.27.27,0,0,1,.25-.18,1,1,0,0,0,.55-.2.67.67,0,0,0,.11-.46"/><path class="cls-2" d="M145.94,11.89V9.05a.32.32,0,0,0-.08-.26.85.85,0,0,0-.37-.13c-.23,0-.34-.08-.33-.17s.06-.16.22-.2q.62-.22.9-.36l.37-.18a.29.29,0,0,1,.15-.06s.08,0,.08.22v9.76a1.69,1.69,0,0,0,0,.48c0,.09.05.12.09.12a.37.37,0,0,0,.3-.19,2,2,0,0,0,.17-.36c.05-.11.1-.18.15-.19s.15.1.14.33a.76.76,0,0,1-.11.52,1.56,1.56,0,0,1-.53.3l-.59.24-.19,0c-.14,0-.22-.07-.25-.24l-.06-.37c0-.1,0-.16-.11-.18s-.12.08-.22.21a1.48,1.48,0,0,1-.45.37,1.63,1.63,0,0,1-.85.21,2,2,0,0,1-1.8-1,5.17,5.17,0,0,1-.58-2.64,5.11,5.11,0,0,1,.33-1.85,3.38,3.38,0,0,1,.91-1.4,2.06,2.06,0,0,1,1.41-.55,1.5,1.5,0,0,1,.84.23,1.75,1.75,0,0,0,.36.22c.05,0,.07,0,.06-.07m0,5.41V13.43a1.69,1.69,0,0,0-.35-1.1,1.11,1.11,0,0,0-1.63-.15,2.3,2.3,0,0,0-.63,1,5.71,5.71,0,0,0-.26,1.9,5.75,5.75,0,0,0,.4,2.48,1.28,1.28,0,0,0,1.22.8,1.46,1.46,0,0,0,.84-.25.93.93,0,0,0,.41-.81"/><path class="cls-2" d="M152.3,15h-2.86c-.25,0-.37.11-.36.28a4.39,4.39,0,0,0,.51,2.24,1.57,1.57,0,0,0,1.34.83,1.44,1.44,0,0,0,.84-.25,1.68,1.68,0,0,0,.53-.64,4.37,4.37,0,0,0,.18-.41c0-.08.07-.13.12-.12s.11,0,.11.18a1.92,1.92,0,0,1-.5,1.32,2,2,0,0,1-1.44.58,2.41,2.41,0,0,1-2-1,4.27,4.27,0,0,1-.72-2.58,5.58,5.58,0,0,1,.39-2.17,3,3,0,0,1,1-1.29,2.21,2.21,0,0,1,1.29-.42,1.78,1.78,0,0,1,1.41.65,2.8,2.8,0,0,1,.56,1.82,3,3,0,0,1-.05.83c0,.11-.15.16-.33.14m-3.19-.78c0,.14,0,.23.1.28a1.49,1.49,0,0,0,.59.06,4.19,4.19,0,0,0,1.8-.22.45.45,0,0,0,.16-.23,1.89,1.89,0,0,0,0-.47,2.1,2.1,0,0,0-.33-1.26,1,1,0,0,0-.85-.44,1.27,1.27,0,0,0-1.07.66,3,3,0,0,0-.44,1.62"/><path class="cls-2" d="M157.82,13.73a10.38,10.38,0,0,0,.36,2.94,3.38,3.38,0,0,0,.91,1.55,1.79,1.79,0,0,0,1.17.46,1.47,1.47,0,0,0,1.18-.59,3.61,3.61,0,0,0,.56-1.4q.1-.59.15-.81c0-.15.09-.22.16-.21a.18.18,0,0,1,.17.06.71.71,0,0,1,.07.38l0,2a.8.8,0,0,1,0,.31.46.46,0,0,1-.16.18,2.33,2.33,0,0,1-.84.34,4.92,4.92,0,0,1-1.13.14,3.32,3.32,0,0,1-2-.61,4.13,4.13,0,0,1-1.34-1.76,7.09,7.09,0,0,1-.5-2.76A7.31,7.31,0,0,1,157,11.2a4.08,4.08,0,0,1,1.31-1.79,3.21,3.21,0,0,1,2-.65,4.45,4.45,0,0,1,1.24.18,2.08,2.08,0,0,1,.67.29s.06.07.08.14a2.45,2.45,0,0,1,0,.46c0,.23,0,.6,0,1.1a4.25,4.25,0,0,1,0,.63c0,.09-.05.12-.12.11s-.12,0-.17-.12a4.36,4.36,0,0,1-.24-.65c-.37-1.17-.94-1.76-1.72-1.77a1.6,1.6,0,0,0-1.05.44,3.3,3.3,0,0,0-.88,1.45,8.58,8.58,0,0,0-.37,2.71"/><path class="cls-2" d="M165.06,13.61v4.2a.59.59,0,0,0,.15.43.85.85,0,0,0,.53.22.62.62,0,0,1,.28.08.16.16,0,0,1,.06.14c0,.1-.08.15-.22.15l-.3,0c-.17,0-.51,0-1,0a5.64,5.64,0,0,0-.72,0l-.35,0c-.13,0-.2-.06-.2-.19s.07-.15.22-.18a.67.67,0,0,0,.5-.21.94.94,0,0,0,.12-.61V9.05a.32.32,0,0,0-.08-.26.85.85,0,0,0-.37-.13c-.23,0-.34-.08-.33-.17s.06-.16.22-.2q.62-.22.9-.36l.37-.18a.29.29,0,0,1,.15-.06c.05,0,.08.06.08.22V12.5a.1.1,0,0,0,.11.11,1.7,1.7,0,0,0,.34-.26,3.14,3.14,0,0,1,.67-.49,2.06,2.06,0,0,1,.95-.26,1.82,1.82,0,0,1,1.2.43,1.8,1.8,0,0,1,.58,1.36v4.33c0,.48.15.73.49.74s.43.09.42.22-.09.15-.22.15l-.37,0c-.21,0-.47,0-.79,0a6.28,6.28,0,0,0-.77,0l-.31,0c-.16,0-.24,0-.23-.17s.1-.19.29-.2a.79.79,0,0,0,.44-.16.53.53,0,0,0,.11-.41V13.51a1.26,1.26,0,0,0-.36-1,1.25,1.25,0,0,0-.92-.34,1.78,1.78,0,0,0-1.11.41,1.31,1.31,0,0,0-.52,1"/><path class="cls-2" d="M171.28,17.76V13.18a.49.49,0,0,0-.13-.38,1.14,1.14,0,0,0-.53-.2.16.16,0,0,1-.14-.15c0-.07.13-.17.45-.29a3.86,3.86,0,0,0,.82-.41,1.24,1.24,0,0,1,.34-.21q.12,0,.12.15v6a1.31,1.31,0,0,0,.07.52q.09.2.48.27c.28.05.41.12.39.22s-.06.16-.23.16l-.37,0a7.44,7.44,0,0,0-.82,0,8,8,0,0,0-.85,0l-.32,0a.17.17,0,0,1-.19-.17c0-.1.07-.17.26-.21a.9.9,0,0,0,.54-.19.81.81,0,0,0,.11-.53m-.11-8a.87.87,0,0,1,.17-.59.53.53,0,0,1,.41-.19.5.5,0,0,1,.4.19.87.87,0,0,1,.17.59.93.93,0,0,1-.17.61.52.52,0,0,1-.4.18.55.55,0,0,1-.41-.18.93.93,0,0,1-.17-.61"/><path class="cls-2" d="M174.73,17.8V9.05a.36.36,0,0,0-.09-.26.7.7,0,0,0-.37-.13c-.23,0-.34-.08-.32-.17s.06-.16.21-.2a9,9,0,0,0,.9-.36l.37-.18a.29.29,0,0,1,.16-.06s.07,0,.08.22v10a.35.35,0,0,0,.15.36,2.5,2.5,0,0,0,.55.18l.21.06a.12.12,0,0,1,.09.12c0,.12-.06.18-.17.19l-.33,0q-.25,0-1,0a8.2,8.2,0,0,0-.86,0l-.34,0a.22.22,0,0,1-.13,0,.18.18,0,0,1-.06-.15c0-.1.1-.16.25-.18a1,1,0,0,0,.54-.2.62.62,0,0,0,.12-.46"/><path class="cls-2" d="M181.37,15h-2.86c-.25,0-.37.11-.36.28a4.39,4.39,0,0,0,.51,2.24,1.57,1.57,0,0,0,1.34.83,1.44,1.44,0,0,0,.84-.25,1.68,1.68,0,0,0,.53-.64,4.37,4.37,0,0,0,.18-.41c0-.08.07-.13.12-.12s.11,0,.11.18a1.88,1.88,0,0,1-.51,1.32,1.91,1.91,0,0,1-1.43.58,2.43,2.43,0,0,1-2-1,4.27,4.27,0,0,1-.71-2.58,5.58,5.58,0,0,1,.39-2.17,3,3,0,0,1,1-1.29,2.21,2.21,0,0,1,1.29-.42,1.78,1.78,0,0,1,1.41.65,2.8,2.8,0,0,1,.56,1.82,3,3,0,0,1-.05.83c0,.11-.15.16-.33.14m-3.19-.78c0,.14,0,.23.1.28a1.46,1.46,0,0,0,.59.06,4.22,4.22,0,0,0,1.8-.22.39.39,0,0,0,.15-.23,1.45,1.45,0,0,0,.05-.47,2.17,2.17,0,0,0-.33-1.26,1,1,0,0,0-.86-.44,1.27,1.27,0,0,0-1.06.66,3,3,0,0,0-.44,1.62"/><path class="cls-2" d="M61.91,30.43a4.64,4.64,0,0,1,.43-1.95A5,5,0,0,1,63.43,27a4.89,4.89,0,0,1,1.45-1,3.69,3.69,0,0,1,1.54-.35,1,1,0,0,1,.43.05.13.13,0,0,1,.07.15,7.42,7.42,0,0,1-.39,1.54,1.15,1.15,0,0,1-.07.22.13.13,0,0,1-.13.08.13.13,0,0,1-.14-.12s0-.18,0-.39,0-.42.07-.63a3.73,3.73,0,0,0,0-.44c0-.13,0-.2-.19-.21a2.5,2.5,0,0,0-1.06.34,4.72,4.72,0,0,0-1.13.93,5,5,0,0,0-.9,1.48,5.26,5.26,0,0,0-.37,2A2.77,2.77,0,0,0,63,32a.84.84,0,0,0,.76.47,1.23,1.23,0,0,0,.81-.3,2,2,0,0,0,.58-.79l.28-.66a2.31,2.31,0,0,1,.14-.28.11.11,0,0,1,.11-.05.1.1,0,0,1,.11.11,4.23,4.23,0,0,1-.14.62l-.33,1.19s-.13.09-.33.15a4.44,4.44,0,0,1-.66.18,2.64,2.64,0,0,1-.63.09,1.51,1.51,0,0,1-1.3-.62,2.77,2.77,0,0,1-.44-1.66"/><path class="cls-2" d="M66.43,30.83a3.86,3.86,0,0,1,.33-1.55A3.66,3.66,0,0,1,67.62,28a1.8,1.8,0,0,1,1.2-.52,1.13,1.13,0,0,1,1,.51,2.46,2.46,0,0,1,.35,1.38,4.22,4.22,0,0,1-.33,1.54A3.68,3.68,0,0,1,69,32.19a1.81,1.81,0,0,1-1.2.52,1.14,1.14,0,0,1-1-.51,2.37,2.37,0,0,1-.35-1.37m.58.39a1.78,1.78,0,0,0,.2.94.61.61,0,0,0,.55.29.94.94,0,0,0,.65-.35,3.3,3.3,0,0,0,.59-.87,6.8,6.8,0,0,0,.42-1.12,5,5,0,0,0,.16-1.1c0-.84-.27-1.26-.76-1.25a1,1,0,0,0-.65.36,3.29,3.29,0,0,0-.58.87,5.6,5.6,0,0,0-.42,1.12A4.13,4.13,0,0,0,67,31.22"/><path class="cls-2" d="M71.15,32.54h-.51l.65-1.86c.22-.65.39-1.17.51-1.57a4.94,4.94,0,0,0,.19-.8c0-.14,0-.22-.18-.22s-.41.23-.74.7a3.88,3.88,0,0,0-.29.45c0,.07-.07.1-.12.09s-.07,0-.07-.07a.92.92,0,0,1,.16-.36,4.11,4.11,0,0,1,.4-.59,3.15,3.15,0,0,1,.53-.56.88.88,0,0,1,.55-.24.4.4,0,0,1,.34.14.51.51,0,0,1,.1.36,2.71,2.71,0,0,1-.1.64c-.07.25-.14.48-.22.72a5.82,5.82,0,0,0-.17.6l0,0a8,8,0,0,1,.42-.71,7.41,7.41,0,0,1,.63-.81,3.91,3.91,0,0,1,.75-.68,1.43,1.43,0,0,1,.78-.28.56.56,0,0,1,.41.15.62.62,0,0,1,.15.44,1.64,1.64,0,0,1-.06.42c0,.14-.11.35-.22.63s-.26.67-.46,1.18l-.35.93c-.07.2-.11.34-.13.42a1,1,0,0,0,0,.19c0,.12,0,.17.13.17s.37-.16.65-.52a3.77,3.77,0,0,0,.4-.62c.06-.12.1-.17.14-.17s.07,0,.07.1a1.25,1.25,0,0,1-.16.38,5.86,5.86,0,0,1-.41.6,3.69,3.69,0,0,1-.54.57.87.87,0,0,1-.52.24.39.39,0,0,1-.35-.15.51.51,0,0,1-.09-.35,2.36,2.36,0,0,1,.11-.66,7.29,7.29,0,0,1,.3-.9l.51-1.25c.12-.31.2-.54.25-.7a1.34,1.34,0,0,0,.07-.39c0-.21-.09-.31-.23-.31a1.7,1.7,0,0,0-1,.65,9.66,9.66,0,0,0-1.22,1.75c-.1.19-.21.42-.34.68l-.34.76c-.1.24-.17.43-.21.55a.57.57,0,0,1-.08.2.12.12,0,0,1-.11,0"/><path class="cls-2" d="M76,30.83a4,4,0,0,1,.34-1.55A3.53,3.53,0,0,1,77.18,28a1.76,1.76,0,0,1,1.2-.52,1.12,1.12,0,0,1,1,.51,2.39,2.39,0,0,1,.35,1.38,3.85,3.85,0,0,1-.33,1.54,3.53,3.53,0,0,1-.86,1.25,1.81,1.81,0,0,1-1.2.52,1.13,1.13,0,0,1-1-.51A2.37,2.37,0,0,1,76,30.83m.58.39a1.88,1.88,0,0,0,.2.94.62.62,0,0,0,.56.29A1,1,0,0,0,78,32.1a3.29,3.29,0,0,0,.58-.87A5.38,5.38,0,0,0,79,30.11a4.06,4.06,0,0,0,.16-1.1c0-.84-.26-1.26-.75-1.25a1,1,0,0,0-.65.36,3.29,3.29,0,0,0-.58.87,5.6,5.6,0,0,0-.42,1.12,4.61,4.61,0,0,0-.17,1.11"/><path class="cls-2" d="M80.17,31a3.86,3.86,0,0,1,.41-1.75,3.55,3.55,0,0,1,1-1.24,2.08,2.08,0,0,1,1.26-.47,1,1,0,0,1,.67.19.66.66,0,0,1,.24.52.45.45,0,0,1-.14.31.49.49,0,0,1-.35.14.32.32,0,0,1-.25-.12.89.89,0,0,1-.15-.44.62.62,0,0,0,0-.25.26.26,0,0,0-.21-.1,1.17,1.17,0,0,0-.73.42,3.47,3.47,0,0,0-.7,1.13A4.52,4.52,0,0,0,80.85,31a1.41,1.41,0,0,0,.24.85.73.73,0,0,0,.62.32,1,1,0,0,0,.62-.28,3,3,0,0,0,.55-.63c.16-.26.25-.44.29-.52s.07-.13.1-.13.09,0,.1.11a1.24,1.24,0,0,1-.13.41,3.62,3.62,0,0,1-.43.71,2.76,2.76,0,0,1-.63.6,1.51,1.51,0,0,1-.8.25,1.07,1.07,0,0,1-.88-.43A2,2,0,0,1,80.17,31"/><path class="cls-2" d="M85.54,28.84l-.9,2.53a2.55,2.55,0,0,0-.1.29,1.76,1.76,0,0,0,0,.19c0,.08,0,.12.13.13s.15-.05.26-.17a6.17,6.17,0,0,0,.46-.68,3.49,3.49,0,0,0,.17-.34c0-.07.07-.11.12-.11a.07.07,0,0,1,.08.07,1.28,1.28,0,0,1-.14.38c-.1.19-.23.41-.38.64a4.25,4.25,0,0,1-.51.59.85.85,0,0,1-.55.26.26.26,0,0,1-.25-.14.53.53,0,0,1-.08-.31,3.63,3.63,0,0,1,.26-1l.72-2c.09-.25.16-.44.19-.57a.7.7,0,0,0,0-.29c0-.09,0-.14-.11-.14a.32.32,0,0,0-.19.09,2.51,2.51,0,0,0-.31.35,4.66,4.66,0,0,0-.33.49,2,2,0,0,1-.13.24.1.1,0,0,1-.1.07.06.06,0,0,1-.07-.07A1,1,0,0,1,84,29c.1-.18.23-.37.38-.59a3.64,3.64,0,0,1,.56-.63.77.77,0,0,1,.51-.22c.22,0,.34.14.34.43a2.24,2.24,0,0,1,0,.37c0,.16-.09.34-.15.53m-.06-2.48a.88.88,0,0,1,.17-.5.45.45,0,0,1,.36-.22.23.23,0,0,1,.2.11.44.44,0,0,1,.07.26.89.89,0,0,1-.16.49.49.49,0,0,1-.37.23.24.24,0,0,1-.2-.11.53.53,0,0,1-.07-.26"/><path class="cls-2" d="M86.67,32.54h-.51a5.56,5.56,0,0,1,.21-.66c.1-.31.23-.65.37-1s.28-.76.41-1.13.25-.69.34-.95a2.5,2.5,0,0,0,.14-.51.15.15,0,0,0-.17-.17s-.11,0-.2.08a3.2,3.2,0,0,0-.34.36,4.32,4.32,0,0,0-.43.6c-.06.12-.12.18-.16.18s-.07,0-.07-.07a1,1,0,0,1,.18-.38,5.63,5.63,0,0,1,.44-.61,3.08,3.08,0,0,1,.56-.53,1,1,0,0,1,.55-.21.31.31,0,0,1,.33.36,1.61,1.61,0,0,1,0,.34c0,.14-.09.33-.17.59s-.2.62-.36,1.07l0,0c.23-.36.48-.72.74-1.08a5.29,5.29,0,0,1,.8-.92,1.31,1.31,0,0,1,.83-.38.45.45,0,0,1,.37.18.9.9,0,0,1,.16.55,3.46,3.46,0,0,1-.09.51c0,.21-.12.43-.19.65l-.21.59,0,0c.09-.17.23-.39.4-.66a8.78,8.78,0,0,1,.61-.83,4.29,4.29,0,0,1,.7-.71,1.15,1.15,0,0,1,.71-.3.55.55,0,0,1,.45.18.68.68,0,0,1,.15.45A2.87,2.87,0,0,1,93,29c-.14.37-.29.76-.46,1.16s-.33.76-.46,1.08a2.85,2.85,0,0,0-.21.61q0,.18.15.18a.55.55,0,0,0,.34-.17,2.64,2.64,0,0,0,.4-.45c.17-.23.29-.41.36-.52s.11-.18.14-.18.07,0,.07.08a1,1,0,0,1-.16.39,5.23,5.23,0,0,1-.47.67,3.09,3.09,0,0,1-.59.57.94.94,0,0,1-.55.19.34.34,0,0,1-.28-.12.39.39,0,0,1-.1-.29,3.17,3.17,0,0,1,.21-.89c.13-.36.29-.74.46-1.13s.33-.77.46-1.1a2.82,2.82,0,0,0,.21-.79.27.27,0,0,0-.27-.28q-.31,0-.81.57a8.8,8.8,0,0,0-1,1.47,14,14,0,0,0-1,2c-.07.18-.12.31-.15.37s-.05.09-.08.09h-.62c.45-1.19.8-2.13,1-2.81a5.07,5.07,0,0,0,.36-1.4c0-.2-.08-.3-.25-.31a1.08,1.08,0,0,0-.59.39,8.37,8.37,0,0,0-.78,1,14,14,0,0,0-.79,1.32A10.33,10.33,0,0,0,87,32.1c-.07.19-.12.31-.15.37a.15.15,0,0,1-.14.07"/><path class="cls-2" d="M95.69,28.84l-.91,2.53-.09.29a.81.81,0,0,0,0,.19c0,.08,0,.12.13.13s.16-.05.26-.17a5,5,0,0,0,.46-.68,2.36,2.36,0,0,0,.18-.34c0-.07.07-.11.11-.11s.09,0,.09.07a1.14,1.14,0,0,1-.15.38,5.69,5.69,0,0,1-.37.64,4.25,4.25,0,0,1-.51.59.85.85,0,0,1-.55.26.29.29,0,0,1-.26-.14.62.62,0,0,1-.07-.31,3.54,3.54,0,0,1,.25-1l.73-2c.09-.25.16-.44.19-.57a.92.92,0,0,0,0-.29c0-.09,0-.14-.12-.14a.3.3,0,0,0-.18.09,2,2,0,0,0-.31.35,3.47,3.47,0,0,0-.33.49l-.13.24a.1.1,0,0,1-.1.07s-.07,0-.07-.07A1,1,0,0,1,94.1,29a5.68,5.68,0,0,1,.38-.59,3.63,3.63,0,0,1,.55-.63.81.81,0,0,1,.52-.22c.22,0,.33.14.34.43a2.24,2.24,0,0,1,0,.37c0,.16-.09.34-.15.53m-.06-2.48a.88.88,0,0,1,.17-.5.45.45,0,0,1,.36-.22.23.23,0,0,1,.2.11.53.53,0,0,1,.07.26.89.89,0,0,1-.16.49.49.49,0,0,1-.37.23.23.23,0,0,1-.2-.11.53.53,0,0,1-.07-.26"/><path class="cls-2" d="M99.85,28.41a1.6,1.6,0,0,1-.66,1.35,4.34,4.34,0,0,1-2.14.67,3,3,0,0,0-.09.69c0,.69.23,1,.65,1s.88-.32,1.36-1c.12-.16.19-.28.23-.34s.06-.1.1-.1.08,0,.08.1a1.35,1.35,0,0,1-.2.43,4.56,4.56,0,0,1-.55.71,2.41,2.41,0,0,1-.61.47,1.57,1.57,0,0,1-.7.21c-.68,0-1-.52-1-1.58A4,4,0,0,1,97.75,28a1.93,1.93,0,0,1,1.18-.49.89.89,0,0,1,.71.29,1,1,0,0,1,.21.61m-1-.71a1,1,0,0,0-.64.28,2.92,2.92,0,0,0-.66.85,4.89,4.89,0,0,0-.49,1.39,3.09,3.09,0,0,0,1.51-.61,1.82,1.82,0,0,0,.57-.85,1.6,1.6,0,0,0,.09-.61.53.53,0,0,0-.09-.32.36.36,0,0,0-.29-.13"/><path class="cls-2" d="M100.39,32.54h-.5l.64-1.86c.23-.65.4-1.17.52-1.57a3.74,3.74,0,0,0,.18-.8c0-.14,0-.22-.17-.22s-.41.23-.74.7a3.88,3.88,0,0,0-.29.45q-.06.11-.12.09s-.08,0-.08-.07a1.43,1.43,0,0,1,.16-.36,6.88,6.88,0,0,1,.4-.59,3.61,3.61,0,0,1,.54-.56.86.86,0,0,1,.55-.24.42.42,0,0,1,.34.14.57.57,0,0,1,.1.36,2.32,2.32,0,0,1-.11.64c-.06.25-.14.48-.21.72a4.06,4.06,0,0,0-.17.6l0,0a5,5,0,0,1,.42-.71,7.41,7.41,0,0,1,.63-.81,3.91,3.91,0,0,1,.75-.68,1.38,1.38,0,0,1,.78-.28.54.54,0,0,1,.4.15.67.67,0,0,1,.16.44,1.64,1.64,0,0,1-.06.42c0,.14-.11.35-.22.63s-.26.67-.47,1.18-.27.72-.34.93-.12.34-.14.42a.8.8,0,0,0,0,.19c0,.12,0,.17.13.17s.36-.16.64-.52a4.08,4.08,0,0,0,.41-.62c0-.12.1-.17.13-.17a.09.09,0,0,1,.08.1,1.4,1.4,0,0,1-.17.38,3.78,3.78,0,0,1-.41.6,3.65,3.65,0,0,1-.53.57.89.89,0,0,1-.53.24.37.37,0,0,1-.34-.15.58.58,0,0,1-.1-.35,2.8,2.8,0,0,1,.11-.66c.08-.28.18-.57.31-.9l.5-1.25c.12-.31.21-.54.26-.7a1.34,1.34,0,0,0,.07-.39c0-.21-.09-.31-.24-.31s-.57.23-1,.65a9.18,9.18,0,0,0-1.22,1.75c-.1.19-.22.42-.34.68s-.24.52-.34.76-.17.43-.21.55a.88.88,0,0,1-.08.2s-.06,0-.12,0"/><path class="cls-2" d="M106.42,27.93h-.67l.07-.26h.7l.47-1.42a.21.21,0,0,1,.12-.17,1.63,1.63,0,0,1,.42,0h.13s0,0,0,0a.68.68,0,0,1,0,.2c0,.09-.07.25-.14.46s-.17.52-.29.91H108l-.08.26h-.84q-.44,1.37-.72,2.16c-.19.53-.32.93-.41,1.19a2,2,0,0,0-.14.52c0,.12.06.17.14.17a.35.35,0,0,0,.22-.13c.08-.09.2-.24.35-.44a4.83,4.83,0,0,0,.34-.51c0-.11.11-.16.16-.16a.07.07,0,0,1,.07.08,1.24,1.24,0,0,1-.16.37,7.26,7.26,0,0,1-.41.61,4.19,4.19,0,0,1-.53.57.9.9,0,0,1-.53.26c-.23,0-.34-.15-.34-.42a3.19,3.19,0,0,1,.11-.69c.07-.28.2-.71.39-1.27s.44-1.33.77-2.31"/><path class="cls-2" d="M107.61,30.83a4,4,0,0,1,.34-1.55,3.53,3.53,0,0,1,.86-1.25,1.76,1.76,0,0,1,1.2-.52,1.11,1.11,0,0,1,1,.51,2.38,2.38,0,0,1,.36,1.38,4,4,0,0,1-.34,1.54,3.53,3.53,0,0,1-.86,1.25,1.81,1.81,0,0,1-1.2.52,1.14,1.14,0,0,1-1-.51,2.45,2.45,0,0,1-.36-1.37m.59.39a1.79,1.79,0,0,0,.19.94.63.63,0,0,0,.56.29.94.94,0,0,0,.65-.35,3.29,3.29,0,0,0,.58-.87,5.38,5.38,0,0,0,.42-1.12,4.54,4.54,0,0,0,.17-1.1c0-.84-.27-1.26-.76-1.25a1,1,0,0,0-.65.36,3.29,3.29,0,0,0-.58.87,5.6,5.6,0,0,0-.42,1.12,4.13,4.13,0,0,0-.16,1.11"/><path class="cls-2" d="M116.05,32.06l0,0c.12-.16.31-.43.56-.81a10,10,0,0,0,.72-1.2,2.84,2.84,0,0,0,.35-1.18,1.3,1.3,0,0,0-.11-.43,1.31,1.31,0,0,1-.1-.45.57.57,0,0,1,.09-.34.29.29,0,0,1,.25-.13.3.3,0,0,1,.29.18,1.22,1.22,0,0,1,.08.48,3.08,3.08,0,0,1-.24,1.08,8,8,0,0,1-.81,1.54c-.38.61-.9,1.35-1.57,2.23-.27.38-.52.69-.72.93a3.45,3.45,0,0,1-.72.67,1.21,1.21,0,0,1-.6.18.52.52,0,0,1-.43-.21.76.76,0,0,1-.14-.48.43.43,0,0,1,.1-.29.3.3,0,0,1,.25-.14.23.23,0,0,1,.22.11,1,1,0,0,1,.12.39.2.2,0,0,0,.09.16.3.3,0,0,0,.16.05.74.74,0,0,0,.43-.2,3.64,3.64,0,0,0,.34-.33,2.77,2.77,0,0,0,.47-.74,3.44,3.44,0,0,0,.28-.93,6.51,6.51,0,0,0,.06-.72c0-.29,0-.63,0-1,0-.72,0-1.25,0-1.6a2.19,2.19,0,0,0-.11-.68c0-.1-.12-.15-.2-.14a.33.33,0,0,0-.24.15,2.93,2.93,0,0,0-.26.42,3,3,0,0,0-.22.49c0,.12-.1.18-.16.18s-.09,0-.09-.13a1.18,1.18,0,0,1,.1-.31,4.79,4.79,0,0,1,.28-.55,2.73,2.73,0,0,1,.4-.53.62.62,0,0,1,.44-.23c.24,0,.41.13.52.41a4.49,4.49,0,0,1,.16,1.44c0,.39,0,.73,0,1s0,.58,0,.84,0,.53,0,.81"/><path class="cls-2" d="M124.49,32.07,123,26.59h0c-.36,1.1-.65,2-.87,2.68s-.39,1.21-.5,1.58-.19.63-.23.79a.86.86,0,0,0,0,.28.27.27,0,0,0,.12.27,1,1,0,0,0,.47.12c.08,0,.12,0,.14.14s-.05.12-.15.12l-.38,0-.54,0-.48,0c-.12,0-.25,0-.37,0s-.12,0-.12-.13,0-.12.13-.13a1.59,1.59,0,0,0,.49-.1.6.6,0,0,0,.25-.27,5.16,5.16,0,0,0,.21-.59c.52-1.57.91-2.78,1.2-3.61a8.78,8.78,0,0,0,.42-1.47.16.16,0,0,0,0-.16,1.28,1.28,0,0,0-.29-.1c-.12,0-.18-.07-.18-.13s0-.13.13-.13l.6,0,.55,0s.06,0,.09.15l.18.71c.08.35.22.89.42,1.61s.46,1.67.81,2.87h0q.67-2.18,1-3.39a11.3,11.3,0,0,0,.36-1.34.31.31,0,0,0-.07-.24A.58.58,0,0,0,126,26c-.17,0-.26-.06-.25-.14s0-.11.16-.12l.87,0,.37,0,.25,0a.11.11,0,0,1,.12.12.09.09,0,0,1-.08.09l-.19.05a.67.67,0,0,0-.33.18,1.28,1.28,0,0,0-.25.49c-.43,1.34-.77,2.41-1,3.2s-.42,1.39-.53,1.79-.2.65-.25.77-.1.18-.15.17-.08,0-.1-.11-.06-.22-.11-.43"/><path class="cls-2" d="M131.12,27.73l-1.05,3.14c-.09.3-.16.52-.19.64a1,1,0,0,0,0,.26c0,.11,0,.16.12.16s.12-.06.23-.18a4,4,0,0,0,.43-.59,2.92,2.92,0,0,0,.23-.41c0-.08.06-.12.11-.12a.08.08,0,0,1,.07.09,1.29,1.29,0,0,1-.16.43,5.84,5.84,0,0,1-.42.65,3.49,3.49,0,0,1-.54.6,1,1,0,0,1-.56.26c-.12,0-.2,0-.23-.12a.54.54,0,0,1-.06-.27,2.94,2.94,0,0,1,.16-.76c.1-.32.26-.8.48-1.42l0,0-.44.65c-.19.28-.41.57-.65.86a5.27,5.27,0,0,1-.74.75,1.21,1.21,0,0,1-.7.33.59.59,0,0,1-.52-.27,1.36,1.36,0,0,1-.15-.69,3.68,3.68,0,0,1,.33-1.43,5.57,5.57,0,0,1,.81-1.32,4.74,4.74,0,0,1,1.06-1,2,2,0,0,1,1.05-.38,1.17,1.17,0,0,1,.71.26l.11-.26a.12.12,0,0,1,.05-.08.17.17,0,0,1,.13,0h.31c.07,0,.11,0,.11.07a.62.62,0,0,1,0,.16m-3.94,3.87a.66.66,0,0,0,.08.34.29.29,0,0,0,.25.14,1.4,1.4,0,0,0,.77-.49,8.58,8.58,0,0,0,.9-1.13,9.81,9.81,0,0,0,.76-1.26,2.63,2.63,0,0,0,.32-.9c0-.33-.18-.5-.5-.5a1.38,1.38,0,0,0-.86.43,5.29,5.29,0,0,0-.84,1,7.41,7.41,0,0,0-.63,1.26,3.44,3.44,0,0,0-.25,1.07"/><path class="cls-2" d="M132.69,27.93H132l.08-.26h.7l.47-1.42a.22.22,0,0,1,.11-.17,1.79,1.79,0,0,1,.43,0h.13a.05.05,0,0,1,0,0,.68.68,0,0,1,0,.2c0,.09-.07.25-.14.46s-.17.52-.29.91h.81l-.07.26h-.84q-.44,1.37-.72,2.16l-.42,1.19a1.86,1.86,0,0,0-.13.52c0,.12.06.17.14.17a.31.31,0,0,0,.21-.13,4.52,4.52,0,0,0,.36-.44,4.83,4.83,0,0,0,.34-.51c.05-.11.11-.16.16-.16a.07.07,0,0,1,.07.08,1.24,1.24,0,0,1-.16.37,7.26,7.26,0,0,1-.41.61,3.69,3.69,0,0,1-.54.57.85.85,0,0,1-.52.26c-.23,0-.34-.15-.34-.42a2.67,2.67,0,0,1,.11-.69c.07-.28.2-.71.38-1.27s.45-1.33.78-2.31"/><path class="cls-2" d="M137.25,30.22l0,0c-.22.32-.48.67-.78,1a6.55,6.55,0,0,1-.95.95,1.6,1.6,0,0,1-.92.42c-.3,0-.45-.17-.46-.5a3.44,3.44,0,0,1,.21-.91c.13-.38.28-.77.46-1.19l.45-1.1a2.2,2.2,0,0,0,.21-.65c0-.09,0-.13-.1-.14a.52.52,0,0,0-.33.19,3.26,3.26,0,0,0-.36.43c-.18.25-.3.43-.37.54s-.12.16-.15.16-.1,0-.1-.09a1.64,1.64,0,0,1,.17-.33,7.13,7.13,0,0,1,.43-.62,4,4,0,0,1,.55-.6,1,1,0,0,1,.55-.26c.27,0,.4.14.4.47a3.23,3.23,0,0,1-.21.77c-.13.36-.28.75-.46,1.17s-.32.8-.45,1.15a2.28,2.28,0,0,0-.21.72q0,.23.21.21a1.6,1.6,0,0,0,.84-.5,7.11,7.11,0,0,0,1.19-1.43,9.9,9.9,0,0,0,1.06-2.26.16.16,0,0,1,.09-.14.44.44,0,0,1,.26,0,.73.73,0,0,1,.25,0s.06.05,0,.08a3.18,3.18,0,0,1-.14.44c-.09.25-.21.56-.34.93s-.28.74-.41,1.13-.26.72-.35,1a2.63,2.63,0,0,0-.14.59c0,.1,0,.16.12.16s.13,0,.25-.14a4.52,4.52,0,0,0,.46-.51c.16-.23.27-.4.32-.49s.1-.15.14-.15.09,0,.09.1a1,1,0,0,1-.16.35,5.38,5.38,0,0,1-.43.6,3.36,3.36,0,0,1-.56.57,1,1,0,0,1-.59.25.31.31,0,0,1-.25-.11.47.47,0,0,1-.08-.26,3.18,3.18,0,0,1,.16-.84c.11-.34.24-.73.4-1.17"/><path class="cls-2" d="M139.86,32.52h-.52c.06-.26.16-.6.27-1s.23-.87.35-1.32.23-.86.31-1.2a4.82,4.82,0,0,0,.13-.63c0-.11,0-.16-.1-.16s-.33.2-.57.58a2.56,2.56,0,0,0-.23.49.14.14,0,0,1-.14.12c-.06,0-.09,0-.1-.1a1,1,0,0,1,.13-.32,4.92,4.92,0,0,1,.32-.57,3.07,3.07,0,0,1,.45-.54.73.73,0,0,1,.5-.24c.28,0,.42.15.43.46a3.26,3.26,0,0,1-.11.58L140.65,30l0,0a10.06,10.06,0,0,1,1.06-1.92q.45-.55.78-.54a.3.3,0,0,1,.28.15.77.77,0,0,1,.08.4,1.32,1.32,0,0,1-.21.74c-.13.18-.26.28-.4.28S142,29,142,28.84a.66.66,0,0,1,.09-.29.46.46,0,0,0,.08-.27c0-.1,0-.16-.12-.17s-.22.17-.43.49a13.53,13.53,0,0,0-.72,1.38,23.24,23.24,0,0,0-.83,2.2c-.05.14-.09.24-.11.28a.14.14,0,0,1-.11.06"/><path class="cls-2" d="M147.23,27.73l-1,3.14a5.56,5.56,0,0,0-.19.64,1.25,1.25,0,0,0,0,.26c0,.11,0,.16.12.16s.12-.06.23-.18a4,4,0,0,0,.43-.59,2.12,2.12,0,0,0,.23-.41c0-.08.06-.12.11-.12s.08,0,.07.09a1.09,1.09,0,0,1-.16.43,5.66,5.66,0,0,1-.41.65,3.53,3.53,0,0,1-.55.6,1,1,0,0,1-.55.26c-.12,0-.2,0-.24-.12a.45.45,0,0,1-.05-.27,2.83,2.83,0,0,1,.15-.76l.48-1.42,0,0-.44.65c-.19.28-.41.57-.65.86a4.79,4.79,0,0,1-.74.75,1.21,1.21,0,0,1-.7.33.59.59,0,0,1-.52-.27,1.27,1.27,0,0,1-.14-.69,3.49,3.49,0,0,1,.32-1.43,5.3,5.3,0,0,1,.82-1.32,4.5,4.5,0,0,1,1.05-1,2,2,0,0,1,1-.38,1.17,1.17,0,0,1,.71.26l.11-.26a.12.12,0,0,1,.05-.08.17.17,0,0,1,.13,0h.31c.07,0,.11,0,.11.07a.62.62,0,0,1,0,.16m-3.94,3.87a.66.66,0,0,0,.08.34.3.3,0,0,0,.26.14,1.42,1.42,0,0,0,.76-.49,9.5,9.5,0,0,0,.91-1.13,10.94,10.94,0,0,0,.75-1.26,2.63,2.63,0,0,0,.32-.9c0-.33-.18-.5-.5-.5a1.38,1.38,0,0,0-.86.43,5.26,5.26,0,0,0-.83,1,8.31,8.31,0,0,0-.64,1.26,3.44,3.44,0,0,0-.25,1.07"/><path class="cls-2" d="M147.59,32.07a5.48,5.48,0,0,1,.17-.95q.17-.66.39-1.5c.16-.56.32-1.11.47-1.65s.29-1,.4-1.41a3.71,3.71,0,0,0,.16-.76.2.2,0,0,0-.05-.17.34.34,0,0,0-.24-.09.62.62,0,0,1-.2,0,.09.09,0,0,1,0-.1c0-.07.13-.11.32-.11a2,2,0,0,0,.6-.1,1.71,1.71,0,0,0,.36-.18.7.7,0,0,1,.17-.09c.05,0,.08,0,.07.09a1,1,0,0,1-.06.2c0,.11-.09.25-.14.42-.32,1.12-.58,2.05-.79,2.77s-.37,1.31-.49,1.73l-.27.95-.12.44a2.06,2.06,0,0,0,0,.21c0,.16.05.24.14.24a.31.31,0,0,0,.24-.12,4,4,0,0,0,.38-.54,4.14,4.14,0,0,0,.3-.56c.06-.13.1-.2.15-.2s.07,0,.07.1a1.51,1.51,0,0,1-.14.38,5.24,5.24,0,0,1-.37.67,3.19,3.19,0,0,1-.51.63.92.92,0,0,1-.57.29.33.33,0,0,1-.3-.16.87.87,0,0,1-.08-.39"/><path class="cls-2" d="M153.57,28.41a1.6,1.6,0,0,1-.66,1.35,4.34,4.34,0,0,1-2.14.67,3,3,0,0,0-.09.69c0,.69.23,1,.65,1s.88-.32,1.36-1c.12-.16.19-.28.23-.34s.06-.1.1-.1.08,0,.08.1a1.35,1.35,0,0,1-.2.43,4.56,4.56,0,0,1-.55.71,2.41,2.41,0,0,1-.61.47,1.57,1.57,0,0,1-.7.21c-.68,0-1-.52-1-1.58A4,4,0,0,1,151.47,28a1.93,1.93,0,0,1,1.18-.49.89.89,0,0,1,.71.29,1,1,0,0,1,.21.61m-1-.71A1,1,0,0,0,152,28a2.92,2.92,0,0,0-.66.85,4.89,4.89,0,0,0-.49,1.39,3.09,3.09,0,0,0,1.51-.61,1.82,1.82,0,0,0,.57-.85,1.6,1.6,0,0,0,.09-.61.53.53,0,0,0-.09-.32.36.36,0,0,0-.29-.13"/><path class="cls-2" d="M155.24,27.5a.92.92,0,0,1,.36.11,3.37,3.37,0,0,1,.4.23,4.23,4.23,0,0,0,.42.22.93.93,0,0,0,.41.11c.16,0,.27,0,.31-.08a1.86,1.86,0,0,0,.2-.3,1,1,0,0,1,.18-.22.38.38,0,0,1,.24-.11l.09,0s0,.05.05.1a.59.59,0,0,1-.27.42l-.54.46a8.47,8.47,0,0,0-.65.73l-.87,1c-.34.42-.77.9-1.29,1.46l0,0,.28,0,.3,0a2.48,2.48,0,0,1,.67.12,2.34,2.34,0,0,0,.64.12c.39,0,.58-.23.57-.67,0-.21,0-.36,0-.44s0-.09.08-.09.05,0,.09.11a1.44,1.44,0,0,1,0,.45,1.42,1.42,0,0,1-.37,1,1.13,1.13,0,0,1-.86.38,1,1,0,0,1-.46-.1,2.14,2.14,0,0,1-.38-.23,2.85,2.85,0,0,0-.33-.23.63.63,0,0,0-.34-.1.35.35,0,0,0-.25.1,1.11,1.11,0,0,0-.19.23l-.18.23a.28.28,0,0,1-.18.1.16.16,0,0,1-.18-.18.54.54,0,0,1,.25-.4,1.91,1.91,0,0,1,.56-.25,1.46,1.46,0,0,0,.27-.34l.62-.86c.26-.34.56-.71.9-1.1a10.22,10.22,0,0,1,1.11-1.07l0,0a1.88,1.88,0,0,1-.61.14,3.19,3.19,0,0,1-.77-.15,2.07,2.07,0,0,0-.61-.15q-.52,0-.54.78a1.87,1.87,0,0,1,0,.28.06.06,0,0,1-.08.05c-.07,0-.11-.07-.1-.2a2.38,2.38,0,0,1,.09-.74,1.55,1.55,0,0,1,.32-.64.84.84,0,0,1,.63-.27"/><path class="cls-2" d="M162.15,27.73l-1.05,3.14c-.1.3-.16.52-.19.64a1,1,0,0,0,0,.26c0,.11,0,.16.12.16s.12-.06.23-.18a4,4,0,0,0,.43-.59,2.92,2.92,0,0,0,.23-.41c0-.08.06-.12.11-.12a.08.08,0,0,1,.07.09,1.29,1.29,0,0,1-.16.43,5.84,5.84,0,0,1-.42.65,4,4,0,0,1-.54.6,1,1,0,0,1-.56.26c-.12,0-.2,0-.23-.12a.54.54,0,0,1-.06-.27,2.57,2.57,0,0,1,.16-.76c.1-.32.26-.8.48-1.42l0,0-.44.65c-.2.28-.41.57-.65.86a5.27,5.27,0,0,1-.74.75,1.23,1.23,0,0,1-.7.33.58.58,0,0,1-.52-.27,1.36,1.36,0,0,1-.15-.69,3.68,3.68,0,0,1,.33-1.43,5.57,5.57,0,0,1,.81-1.32,4.53,4.53,0,0,1,1.06-1,2,2,0,0,1,1.05-.38,1.19,1.19,0,0,1,.71.26l.11-.26a.12.12,0,0,1,0-.08.16.16,0,0,1,.13,0h.31c.07,0,.11,0,.11.07a.62.62,0,0,1,0,.16m-3.94,3.87a.66.66,0,0,0,.08.34.29.29,0,0,0,.25.14,1.4,1.4,0,0,0,.77-.49,8.58,8.58,0,0,0,.9-1.13A11.1,11.1,0,0,0,161,29.2a2.63,2.63,0,0,0,.32-.9c0-.33-.18-.5-.5-.5a1.35,1.35,0,0,0-.86.43,5.29,5.29,0,0,0-.84,1,7.41,7.41,0,0,0-.63,1.26,3.44,3.44,0,0,0-.25,1.07"/><path class="cls-1" d="M28.56,39.72H19.15a2.2,2.2,0,0,0-1.9.8s0,0-.05,0a2.08,2.08,0,0,0-1.8-.8H6.28c-2.75,0-5.86-2.61-5.82-5.14V.49a0,0,0,0,1,0,0H34.25a0,0,0,0,1,0,0v34.1c0,2.54-3,5.13-5.72,5.13"/><path class="cls-1" d="M25.68,35.14H17.41a0,0,0,0,1,0,0V19.94a0,0,0,0,1,0,0H29.24a0,0,0,0,1,0,0V31.55a3.59,3.59,0,0,1-3.59,3.59"/><path class="cls-1" d="M20.58,21.2c.13,0,.28,0,.34.12s0,.05,0,.05a.45.45,0,0,0-.2.1l-.26.17c-.19.11-.3.05-.19-.32v0a1.08,1.08,0,0,1,.33-.1"/><path class="cls-1" d="M27,24.18h0l-.12.06-.36.2a1.8,1.8,0,0,0-.65.59.84.84,0,0,0-.08.38,1.7,1.7,0,0,0,0,.28c0,.18,0,.26-.36.26a3.25,3.25,0,0,1-.67.21h-.14a.05.05,0,0,1,0-.08,1.14,1.14,0,0,1,.65-.3.46.46,0,0,0,.38-.45c0-1,.18-2.37,1.43-2.06.23.06.52.46.73.81a4.71,4.71,0,0,1,.25.45.79.79,0,0,1,0,.12s0,0,0,0,0,0,0,0h0a1.52,1.52,0,0,0-.62-.39l-.27-.09-.08,0Z"/><path class="cls-1" d="M22.5,25.33c.07-.25-.13-.44-.4-.65l-.2-.16-.19-.17a.72.72,0,0,1-.23-.4.61.61,0,0,1,.35-.6c.19-.14.35-.25.28-.5v0c.28-.74,1.45.34,1,.69s-.87.87-.65,1.11a1.94,1.94,0,0,1,.55.95.12.12,0,0,1-.06.11.05.05,0,0,1-.05,0l0,0a0,0,0,0,1,0,0,1.5,1.5,0,0,0-1.22,0h0c-.12-.09-.16-.18-.06-.24a.94.94,0,0,1,.36-.09l.45,0,.16,0h.05Z"/><path class="cls-1" d="M21.36,22.1h0l.07,0,.08,0,0,0s0,0,0,0c.29.31,0,.81-.32.87a.42.42,0,0,0-.29.14c-.74.87-.76.13-.61.06s.15-.2-.16-.17c0,0-.05,0,0-.06l.41-.38h0l0-.06c0-.05.05-.12.08-.18l.07-.18,0,0s0,0,0,0,0,0,0,0c.18.43.41-.15.15-.35,0,0,0,0,0-.05h.09l.14.19.07.09Z"/><path class="cls-1" d="M27.12,26.36h0a.15.15,0,0,1,0-.06.11.11,0,0,1-.05,0l0,0,0,0c-.2-.18-.57.13-.58.13a0,0,0,1,1,0,0,.89.89,0,0,1,.53-.28.32.32,0,0,1,.37.13h.08a.41.41,0,0,0,.11,0,.56.56,0,0,0,.24-.15,2.26,2.26,0,0,0,.26-.37c0-.06.06-.11.07-.14l0,0h0s0,0,0,0,0,0,0,0v.12a1.74,1.74,0,0,1-.09.34.87.87,0,0,1-.9.45"/><path class="cls-1" d="M19.7,28.45a.31.31,0,0,1,.33.13s0,0,0,0a.48.48,0,0,0-.21.1l-.25.17c-.2.11-.3.06-.2-.32l0,0a1.31,1.31,0,0,1,.33-.1"/><path class="cls-1" d="M26.13,31.32l0,0-.11.05-.36.2a1.74,1.74,0,0,0-.65.6.78.78,0,0,0-.08.37,1.7,1.7,0,0,0,0,.28c0,.18,0,.26-.36.26a3.25,3.25,0,0,1-.67.21h-.14s-.06,0,0-.09a1.14,1.14,0,0,1,.65-.3.44.44,0,0,0,.37-.44c0-1,.19-2.37,1.44-2.06.22.05.52.45.73.8a4.71,4.71,0,0,1,.25.45.58.58,0,0,1,0,.13v0a0,0,0,0,1,0,0s0,0,0,0h0a1.66,1.66,0,0,0-.63-.39l-.26-.09-.08,0Z"/><path class="cls-1" d="M21.68,32.47c.07-.24-.13-.44-.4-.65l-.2-.16-.19-.17a.72.72,0,0,1-.23-.4.61.61,0,0,1,.35-.6c.19-.14.35-.25.28-.5v0c.28-.74,1.45.34,1,.69s-.87.87-.65,1.11a1.92,1.92,0,0,1,.55,1,.15.15,0,0,1-.06.11l-.05,0,0,0h0a1.5,1.5,0,0,0-1.22,0h0c-.12-.09-.16-.18-.06-.24a.94.94,0,0,1,.36-.09l.45,0,.16,0h.05Z"/><path class="cls-1" d="M20.51,29.32h0l.07,0,.07,0h0s0,0,0,0c.29.32,0,.81-.32.87a.44.44,0,0,0-.28.14c-.74.87-.76.14-.62.06s.15-.19-.15-.17c0,0-.05,0,0-.05l.41-.39h0l0-.06a1.71,1.71,0,0,0,.07-.18l.08-.18a.17.17,0,0,0,0-.05l0,0s0,0,0,0c.18.43.41-.14.16-.34,0,0,0-.05,0-.05l.05,0h0l.14.2.07.09Z"/><path class="cls-1" d="M26.27,33.58h0l0-.06a.1.1,0,0,1-.05,0l0,0,0,0c-.2-.17-.57.13-.58.14s-.07,0,0,0a.89.89,0,0,1,.54-.28.31.31,0,0,1,.36.13h.19a.46.46,0,0,0,.25-.15,1.67,1.67,0,0,0,.25-.36l.08-.15,0-.05h0s0,0,0,0,0,0,0,0v0s0,.06,0,.1a1.23,1.23,0,0,1-.09.34.87.87,0,0,1-.89.45"/><path class="cls-1" d="M12.9,26.16l-.06,3.06-2.84,0,.05-2.72,1.47-.12.5.61-.57.8,1.39-.46-.5.74-.89-.28,1,1.31-1.87,0,.92-1.27-1,.32-.44-.8,1.47.48V26.22Zm0,3-.06,3.05L10,32.15l.05-2.71,1.47-.12.5.6-.57.8,1.39-.45-.5.73-.89-.28,1,1.31-1.87,0,.92-1.27-1,.32-.44-.8,1.47.48V29.2Zm0,3-.06,3.06-2.84,0,0-2.71,1.47-.13.51.61-.58.8,1.39-.45-.5.73-.89-.28,1,1.31-1.88,0,.92-1.27-1,.32-.43-.8,1.46.48V32.18Zm0-11.92-.05,3.05L10,23.2l0-2.71,1.47-.12.5.6-.57.81,1.39-.46-.5.73-.89-.27,1,1.3-1.88,0,.93-1.26-1,.32L10,21.29l1.47.49V20.26Zm0,3-.06,3.06-2.84,0,.05-2.71,1.47-.12.5.6-.57.8,1.39-.45-.5.73-.89-.28,1,1.31-1.87,0,.92-1.27-1,.32-.44-.8,1.47.48V23.24Zm-4,3-.06,3.06L6,29.17l0-2.71,1.47-.13.5.61-.57.8,1.39-.45-.5.73-.89-.28,1,1.31L6.52,29l.93-1.27-1,.32L6,27.26l1.47.48V26.22Zm0,3-.06,3.06L6,32.14l0-2.71,1.47-.13.5.61-.57.8,1.39-.45-.5.73-.89-.28L8.4,32,6.52,32l.92-1.27-1,.32L6,30.23l1.46.48V29.19Zm0-8.93-.06,3.05L6,23.2l0-2.71,1.47-.12L8,21l-.57.8,1.39-.45-.5.73-.89-.28,1,1.31L6.52,23l.92-1.27-1,.33L6,21.29l1.47.48V20.25Zm0,3-.06,3.05L6,26.18l0-2.71,1.47-.12L8,24l-.57.81,1.39-.46-.5.73-.89-.27,1,1.3L6.52,26l.93-1.26-1,.32L6,24.27l1.47.49V23.24Zm7.8,3-.06,3.06-2.84-.05,0-2.71,1.47-.13.5.61-.57.8,1.39-.45-.5.73-.89-.28,1,1.31-1.88,0,.92-1.27-1,.32-.43-.8,1.46.48V26.21Zm0,3-.05,3.06-2.84-.05,0-2.71,1.47-.13.5.61-.57.8,1.39-.45-.5.73-.89-.28L16.2,32l-1.88,0,.93-1.27-1,.32-.44-.8,1.47.48V29.2Zm0-8.93-.05,3.05-2.84-.05,0-2.71,1.47-.12.5.6-.57.8,1.39-.45-.5.73-.89-.28.95,1.31-1.88,0,.93-1.27-1,.32-.44-.8,1.47.48V20.26Zm0,3-.05,3.06L13.8,26.2l0-2.71,1.47-.13.5.61-.57.8,1.39-.45-.5.73-.89-.28.95,1.31-1.88,0,.93-1.27-1,.32-.44-.8,1.47.48V23.25Z"/><path class="cls-1" d="M11.32,9.21l1.26-1,1.39,1ZM13,7.85l1.45-1.13-.15,2Zm-.89,0-1.37,1-.09-2.08Zm.43-.36s-1.47-1-1.47-1l3.05-.18s-1.58,1.21-1.58,1.23m-3.15,3s-.05,0-.05,0h0v-.06l0-.17,0-.25s0,0,0,0L9,9.92,8.71,10l-.32.07,0,0L8,13.49l0,0s-.14.07-.15.14a.24.24,0,0,0,.12.17v0l-.55,5.22a0,0,0,0,1,0,0,16.4,16.4,0,0,0-1.88.45s0,0,0,0V5.35a0,0,0,0,1,0,0H17.11a0,0,0,0,1,0,0V19.48s0,0,0,0l-1.87-.39s0,0,0,0l-.66-5.2s0,0,0,0,.13-.12.12-.15,0-.07-.07-.1l0,0h0l0,0-.35-2.79a1.5,1.5,0,0,1,0-.5.62.62,0,0,1,0-.14v0l-.07,0-.07,0h0l-.56-.13-.14.05a.54.54,0,0,0,0,.15v.11s0,0,0,0,0,0,0,0h-.22l-.3,0,0,0c0-.11,0-.29,0-.38s0,0,0,0h0l-.91-.07s0,0,0,0,0,.28,0,.42l0,0a5,5,0,0,0-.59.05,0,0,0,0,1,0,0c0-.12-.05-.29-.07-.42l-.09,0-.09,0h-.15l-.25,0a0,0,0,0,1,0,0s-.14-3.16-.15-3.21,0,0,0,0h0a.17.17,0,0,1-.16-.16.21.21,0,0,1,0-.11.19.19,0,0,0-.09.14.14.14,0,0,0,.12.14l0,0c0,.08,0,3.16,0,3.23a0,0,0,0,1,0,0l-.27,0h0a0,0,0,0,0,0,0s0,0,0,.07l0,.23c0,.16,0,.32,0,.34a0,0,0,0,1,0,0l-.35,0Z"/><path class="cls-1" d="M24.88,18.81h0a3.11,3.11,0,0,1-.52-2.35v0a.3.3,0,0,1,.15-.05c.12,0,.13.05.12.1h.06c.11,0,.14,0,.16,0h.22l0,0a.25.25,0,0,1,.17,0c.11,0,.14,0,.16.07l0,0a.14.14,0,0,0,.09,0c.07,0,.08,0,.1-.11a.11.11,0,0,1,0-.05.08.08,0,0,1,0-.05.21.21,0,0,1,.31-.06l.05,0h.1a1.16,1.16,0,0,1,.15,0l0,0,.09-.06a.27.27,0,0,0,.06-.07.13.13,0,0,0,0-.06.19.19,0,0,1,.09-.18l.1-.06h.05a0,0,0,0,1,0,0l.05-.07c.06-.1.1-.11.15-.12l.05,0,.06-.07a.56.56,0,0,1,0-.08s0,0,0,0v-.06a.24.24,0,0,1,0-.12.46.46,0,0,1,.07-.16l.05-.06L27.2,15a.56.56,0,0,0,.17-.25c0-.09,0-.11,0-.14l0,0,0,0a.33.33,0,0,1-.05-.12.21.21,0,0,1,0-.18l0,0a.14.14,0,0,0,0-.09c0-.11,0-.13,0-.14l0-.05-.07-.09a.21.21,0,0,0-.05-.08l0,0s-.06,0-.12-.12a.76.76,0,0,1,0-.11v-.09a.22.22,0,0,0-.07-.07.27.27,0,0,0-.07-.06h0s-.06,0-.14-.08-.05,0-.07,0l0,0,0,0,0,0a.16.16,0,0,1-.13,0,.15.15,0,0,1-.09-.1V13a.13.13,0,0,1,0-.06.4.4,0,0,0,0-.11s0,0-.05-.06a.07.07,0,0,0-.08,0s-.05,0-.05,0a.26.26,0,0,0,0-.07h0l0,0s-.06-.07,0-.17a.52.52,0,0,1,.05-.13v0a.41.41,0,0,0,0-.1c0-.1.08-.12.12-.12l0,0a.14.14,0,0,0,0-.07.33.33,0,0,0,0-.1.08.08,0,0,0,0,0h0v0a.89.89,0,0,0,0-.11c0-.08-.06-.09-.12-.1l-.05,0-.05,0a.2.2,0,0,1-.07-.12.17.17,0,0,1,0-.13l0,0,0,0,0,0v0a.14.14,0,0,0,0-.07s-.05-.06-.06-.06h-.06c-.05,0-.1,0-.16-.11a.24.24,0,0,1,0-.12s0,0,0,0a.05.05,0,0,1,0,0,.11.11,0,0,0,0,0s0,0-.05-.06l-.08-.06,0,0-.13-.09-.08-.09,0,0v0s0-.06-.11-.09A.52.52,0,0,1,25,9.64a.81.81,0,0,0,0-.09h0s0,0,0-.14a.2.2,0,0,0,0-.09,0,0,0,0,0,0,0v0s0,0,0,0a.32.32,0,0,1,0-.11.25.25,0,0,1,0-.19.14.14,0,0,0,0-.06.16.16,0,0,0,0-.1c0-.08-.05-.09-.12-.09h-.05l-.06,0a.21.21,0,0,1-.11-.08.48.48,0,0,0-.09-.13l-.1-.14a.24.24,0,0,1,0-.13s0,0,0-.06l0,0c0-.05,0-.09,0-.13l-.09-.06h0a.38.38,0,0,1-.16-.08c-.07,0-.09,0-.13,0l0,0,0,0a.31.31,0,0,1-.14,0,.27.27,0,0,1-.17-.07l0,0-.1,0-.15,0-.13,0a.21.21,0,0,1-.14,0l0,0,0,0c-.05-.06-.09-.11-.17-.09s-.08.06-.09.14v.06s0,0,0,.06a.28.28,0,0,1-.09.13.18.18,0,0,1-.14,0l-.06,0a.1.1,0,0,1-.05,0c-.07,0-.12-.07-.19,0a.52.52,0,0,0-.13.12,1.15,1.15,0,0,1-.08.14c.24.08.15.35.05.51l-.11.12-.13.12a.53.53,0,0,0-.17.24c0,.06,0,.08,0,.1a0,0,0,0,0,0,0h0l0,0a.28.28,0,0,1,.05.11s0,.07,0,.09,0,0,.06.14a.13.13,0,0,1-.09.18l0,0h0s0,0,0,.08a.47.47,0,0,1,0,.12s0,0,0,.13,0,0,0,0l-.07,0,0,0v0s0,.06-.14.09a.15.15,0,0,0-.07.05v.13a.23.23,0,0,1-.07.11c-.09.07-.11.08-.14.08h0l-.08.06-.06.06s0,.07,0,.16a.17.17,0,0,1-.1.09h-.11c-.06,0-.11,0-.15.05a.27.27,0,0,0,0,.08l0,0,0,0a.05.05,0,0,1,0,0,.18.18,0,0,1,0,.13.18.18,0,0,1-.12.16l-.06,0a.16.16,0,0,0,0,.08.27.27,0,0,1-.05.12l0,0,0,0s0,.05,0,.14a1.78,1.78,0,0,1-.29,1,.13.13,0,0,0,0,.07.24.24,0,0,0,0,.08.15.15,0,0,1,0,.21.2.2,0,0,1-.13,0h0l-.05,0c-.05,0-.08,0-.12.05s0,.06,0,.08,0,0,0,0a.15.15,0,0,1,0,.2.19.19,0,0,1-.09.09l-.05,0H19.5s-.08,0-.09.1a.39.39,0,0,0,0,.09l0,0s0,.07,0,.18a.83.83,0,0,1,0,.12l0,.07a.18.18,0,0,0,0,.16c0,.2,0,.4.06.6a.34.34,0,0,0,.07.17l.05.06.08.1a.23.23,0,0,0,.06.07h.06a.21.21,0,0,1,.18.11L20,16l0,0,0,0,.08.06a.31.31,0,0,0,.09,0l.07,0a.17.17,0,0,1,.2,0l.09.07,0,0v0h0l.1,0a.21.21,0,0,1,.16.16.25.25,0,0,0,0,.07l.08,0,.16,0h.28s0,0,.16,0a.22.22,0,0,0,.1,0,.1.1,0,0,0,.05,0l0,0,0,0,.13,0,0,0a3,3,0,0,1-.57,2.4h0a26.25,26.25,0,0,0-3.94.65s0,0,0,0V5.35a0,0,0,0,1,0,0H29.24a0,0,0,0,1,0,0V19.47s0,0,0,0a19.92,19.92,0,0,0-4.35-.69"/><path class="cls-1" d="M25.84,13a.13.13,0,0,1,0,.06.17.17,0,0,0,0,.07.38.38,0,0,0,0,.1.07.07,0,0,0,.06.06.18.18,0,0,0,.09,0h0l0,0s.09-.06.18,0l.08.06h0s.06,0,.13.08.1.11.09.15v.05a.31.31,0,0,0,0,.09.21.21,0,0,0,.05.08h0s.07,0,.12.12a.58.58,0,0,0,0,.09l0,.05a.41.41,0,0,1,.05.16c0,.14-.07.14-.12.14h-.06s0,0,0,0a.58.58,0,0,0,.05.14c0,.05,0,.09.07.14a.44.44,0,0,1,.08.3,0,0,0,0,1-.05,0s0,0-.06,0a.5.5,0,0,0-.07.13l-.06.17a1,1,0,0,1-.08.15,4.5,4.5,0,0,1-.5.46c-.13.09-.25.12-.31,0s0,0-.06,0a.55.55,0,0,0-.15.13.6.6,0,0,0-.08.08l-.08.06c-.05,0-.12.05-.15,0s-.08-.07-.15-.07H25a.14.14,0,0,1-.1-.1.1.1,0,0,0-.09,0l-.2,0-.1,0h-.1a.15.15,0,0,1-.16-.08s0,0-.09,0l-.21.12-.11.06-.1.05a.12.12,0,0,1-.17,0s0,0-.08,0a.51.51,0,0,0-.17.08l-.09.05-.09,0a.11.11,0,0,1-.15-.06s-.06,0-.16-.06a1.51,1.51,0,0,0-.31,0h-.28a.19.19,0,0,1-.09,0s0-.05,0-.09c.12-.19.06-.29,0-.36l-.08-.06-.08,0a.44.44,0,0,1-.14-.13s-.08-.05-.17-.06a2.44,2.44,0,0,1-.26-.06c-.2-.05-.27-.18,0-.46.05-.06,0-.12,0-.22a.69.69,0,0,1-.11-.13.76.76,0,0,1-.11-.14.11.11,0,0,1,0-.14l.07,0,.08,0a.37.37,0,0,0,.14-.06s0,0,0-.06a.25.25,0,0,1,0-.14s0,0,0-.06a.43.43,0,0,1,0-.05c0-.08,0-.14,0-.21a.32.32,0,0,1,0-.16v-.1s0,0,0,0a.7.7,0,0,0-.24.07c-.25.06-.32-.07-.32-.21a1,1,0,0,1,0-.18.25.25,0,0,1,0-.09,0,0,0,0,1,0,0c.24,0,.28-.18.28-.32s0-.14,0-.2a.13.13,0,0,1,.08-.14,1.33,1.33,0,0,0,.54-.24.06.06,0,0,0,0-.06l-.08-.09a.39.39,0,0,1,0-.52.46.46,0,0,1,.17-.17.12.12,0,0,1,.17.05c.12.24.29.27.4.23a.28.28,0,0,0,.12-.08.06.06,0,0,0,0-.08c-.27-.19-.19-.35-.06-.48l.18-.15s0,0,0-.06a0,0,0,0,0,0,0l-.07-.09-.06,0a.51.51,0,0,1-.15-.15.09.09,0,0,1,0-.13l.05,0,.06,0s.07,0,.09-.07,0,0,0-.06a.13.13,0,0,0-.08-.07h-.09c-.07,0-.12,0-.11-.17l0-.41a.35.35,0,0,1,.06-.14.21.21,0,0,1,0-.06l0,0a.35.35,0,0,0,.12-.21c0-.13.08-.14.14-.15h0l0,0s0,0,0-.07,0-.13.08-.15h0a.55.55,0,0,0,0-.09c0-.06,0-.09.09-.08l.06,0,.06,0,.06,0,0,0s0,0,0,0a.05.05,0,0,1,0,0l0,0h.1a.49.49,0,0,1,.27.08s.05,0,.07,0a.35.35,0,0,0,.08-.11l0-.06L24,8a.13.13,0,0,1,.15,0,.16.16,0,0,1,.06.21s0,0,0,0,0,0,0,0a.11.11,0,0,0,0,.09.48.48,0,0,0,.09.13l.1.14a.14.14,0,0,0,.08.06h.1a.15.15,0,0,1,.17.13.28.28,0,0,1,0,.2.14.14,0,0,0,0,.06.16.16,0,0,0,0,.1.3.3,0,0,0,0,.09l0,0v0s0,.07,0,.17a.51.51,0,0,0,0,.09h0a.53.53,0,0,1,0,.13.48.48,0,0,0,.21.54c.1,0,.13.07.15.12v.06a.23.23,0,0,0,.07.08l.08.06,0,0,.12.09c.1.08.08.13.05.19l0,0a0,0,0,0,1,0,0,.23.23,0,0,0,0,.09s0,.06.06.06h.05c.06,0,.11,0,.17.11a.12.12,0,0,1,0,.19l0,0,0,0a.2.2,0,0,0,0,.09c0,.08.06.09.12.1l.05,0,0,0a.16.16,0,0,1,.07.12.84.84,0,0,1,0,.1V12a.11.11,0,0,1,0,.05.33.33,0,0,1,0,.1c0,.11-.07.12-.12.13h0l0,.08a.52.52,0,0,1-.05.13v0a.33.33,0,0,1,0,.1.28.28,0,0,0,0,.08l0,0,0,0s0,0,0,0a.07.07,0,0,1,0,0l.08,0c.06,0,.09.06.09.11m-3.08,4.64c0-.2,0-.39.06-.52s0-.12,0-.16a.07.07,0,0,1,0-.05v0s0,0,0,0h0s0,0,0,0a.41.41,0,0,0,.14,0s0,0,0,0h0l0,0h0s0,0,0,0,0,0,0-.11a0,0,0,0,1,0,0h.21s0,0,0,0h0a.17.17,0,0,0,0,.07.18.18,0,0,0,.06.08l0,0,0,0v0l0,0h.05l.05,0,.09,0s0,0,0,0,0,0,0-.05.07-.05.13,0v0A2.41,2.41,0,0,0,24.25,18c.12.31.26.57.32.77,0,0,0,0,0,0h-2s0,0,0,0a5.28,5.28,0,0,0,.24-1.14"/><path class="cls-1" d="M9.11,10a0,0,0,0,1,0,0l.1,0,0,0,.09.46a0,0,0,0,1,0,0H9.2l0,0Zm1.79.36,0,0-.06-.57s0,0,0,0l.09,0,0,0,.08.56a0,0,0,0,1,0,0ZM8.49,12.46a.07.07,0,0,1,0,0v-.09c0-.19,0-.39,0-.58a1.14,1.14,0,0,0,0-.15,1.36,1.36,0,0,1,0-.16c0-.08,0-.33,0-.58a2,2,0,0,1,.12-.59A.62.62,0,0,1,9,10s0,0,0,0,0,.26.07.38l0,.13v0l.37,0h.34c0-.08.06-.55.07-.65l0,0h.22a.69.69,0,0,1,.65.64h.89a.07.07,0,0,0,0,0c0-.16.07-.46.08-.58a0,0,0,0,1,0,0l.75.08s0,0,0,0h0V10s0,.12,0,.19,0,.29,0,.34,0,0,0,0l.65.11h0c0-.2.08-.56.08-.6l0,0,.48.12,0,0c0,.08.12,1,.13,1.38,0,0,0,0,0,0l-.2-.06c-.05,0-.08,0-.08.06l.05.79.32.14,0,0s.07.53.1,1c0,0,0,0,0,0a17.5,17.5,0,0,0-2.71-.22,20.44,20.44,0,0,0-2.72.12H8.7s-.12,0-.12-.1a.08.08,0,0,0,0-.1l0,0v0a.2.2,0,0,1,0-.09.15.15,0,0,0,0-.07s0,0,0,0a.15.15,0,0,1-.06-.16.48.48,0,0,1,0-.15h0v0a.64.64,0,0,0,0-.09v-.07M8.38,15s0,0,0,0a.16.16,0,0,1,0-.1.6.6,0,0,0,0-.2.36.36,0,0,0,0-.1.56.56,0,0,1,0-.13.82.82,0,0,1,.08-.25.41.41,0,0,0,0-.09l0-.06a.48.48,0,0,1,.1-.28l.06-.06a0,0,0,0,1,0,0h0a24.81,24.81,0,0,1,2.74-.18h.07a15.13,15.13,0,0,1,2.86.21l0,0,.22,2c.11,1,.22,2,.21,2.09s.07,1,.08,1,0,.22-.11.26L14.14,19,13.58,19a0,0,0,0,1,0,0c.13-2.26-2.27-2.33-2.12-.05l-.06,0h-.84a7,7,0,0,1-.91,0,.35.35,0,0,1-.12-.07l0-.05s0,0,0-.05-.06-.11-.14-.14h-.1l-.09,0a.17.17,0,0,1-.2-.05.25.25,0,0,1-.06-.2.08.08,0,0,0,0-.07.12.12,0,0,0,0-.08s-.05,0-.07,0H8.68s-.1,0-.14-.1,0-.12.08-.15a.55.55,0,0,0,.23-.06s0,0,0-.05a.27.27,0,0,0-.19-.09c-.09,0-.23-.1-.18-.23s0,0,0-.06l-.07-.11-.07-.12,0-.05v-.27a0,0,0,0,1,0,0h0a.11.11,0,0,0,0-.05v-.11s0-.09,0-.13a.31.31,0,0,1,0-.09c0-.1,0-.12.05-.15l0,0a.38.38,0,0,0,0-.08.34.34,0,0,0,0-.19.94.94,0,0,1,0-.09.23.23,0,0,1,0-.12.06.06,0,0,1,0-.06h.06c.2,0,.17-.13.06-.17a.22.22,0,0,1-.14-.23c0-.09,0-.2,0-.3V15"/><path class="cls-3" d="M29.94,2.84a.46.46,0,0,1,.16.24l.22.53c.09.21.13.32.18.34s.16,0,.16.09,0,0-.06,0l-.23,0-.17,0c-.08,0-.09,0-.12-.13l-.35-.87c-.05-.14-.09-.17-.21-.17h0a0,0,0,0,0-.05,0v.76c0,.15,0,.24.17.24s.08,0,.08.06a.07.07,0,0,1-.07.06,2.66,2.66,0,0,0-.35,0,3.45,3.45,0,0,0-.37,0A.07.07,0,0,1,28.81,4c0-.07.08,0,.15-.06s.12-.07.12-.23V2c0-.13,0-.15-.08-.18s-.18,0-.18-.07,0-.05.1-.05h.26l.54,0a.56.56,0,0,1,.63.6.56.56,0,0,1-.41.59m-.51-.14c0,.08.05.09.18.09S30,2.62,30,2.3s-.13-.52-.38-.52-.19.06-.19.19ZM27.26,2V3.3c0,.46.09.71.5.71a.54.54,0,0,0,.45-.2,1.09,1.09,0,0,0,.09-.59V2.29c0-.29,0-.44-.07-.49s-.2,0-.2-.09,0-.05.06-.05h.53c.05,0,.08,0,.08.05s0,.06-.11.06-.17.13-.17.51v.94a1.23,1.23,0,0,1-.11.64.66.66,0,0,1-.61.29A.75.75,0,0,1,27,3.87a1,1,0,0,1-.11-.56V2c0-.13,0-.15-.09-.18s-.17,0-.17-.07,0-.05.06-.05a2.79,2.79,0,0,0,.38,0,3.22,3.22,0,0,0,.38,0,0,0,0,0,1,.05.05c0,.08-.09,0-.18.07s-.08.05-.08.18m-.71-.35,0,.5c0,.09,0,.11-.05.11s-.06-.11-.11-.26-.18-.19-.42-.19h-.06s-.05,0-.05.06V3.72c0,.16,0,.19.11.22s.17,0,.17.08,0,.06-.08.06-.21,0-.37,0-.28,0-.36,0-.08,0-.08-.07.08,0,.16-.07.11-.06.11-.22V1.85s0-.08,0-.08h-.11A.37.37,0,0,0,25,2c-.1.15-.13.24-.19.24s0,0,0-.05a.26.26,0,0,1,0-.07l.1-.39c0-.11,0-.19.07-.19s0,.12.09.13a.36.36,0,0,0,.18,0h1.05a.29.29,0,0,0,.12,0c.07,0,.09-.16.12-.16s.05.05.05.07ZM24.37,2V3.72c0,.16,0,.2.11.22s.17,0,.17.08,0,.06-.08.06a3.45,3.45,0,0,0-.37,0,2.92,2.92,0,0,0-.36,0c-.06,0-.08,0-.08-.07s.07,0,.15-.06.12-.07.12-.23V2c0-.13,0-.15-.09-.18s-.18,0-.18-.07,0-.05.06-.05a3,3,0,0,0,.38,0,3,3,0,0,0,.38,0,.06.06,0,0,1,.06.05c0,.07-.07.05-.17.07s-.1.05-.1.18M22.85,3l-.07,0h0s0,0,0,.07v.72c0,.13,0,.17.08.21S23,3.93,23,4s0,.06-.08.06a2.12,2.12,0,0,0-.71,0,.08.08,0,0,1-.07,0s0,0-.08,0-.16,0-.32,0-.34,0-.39,0-.07,0-.07,0,0-.06.08-.06.16,0,.16-.09a1,1,0,0,0,0-.18l-.15-.49a.06.06,0,0,0-.06,0h-.47a0,0,0,0,0,0,0l-.1.34a2.43,2.43,0,0,0-.05.29c0,.08,0,.09.1.11s.15,0,.15.08,0,0-.07,0a3.12,3.12,0,0,0-.33,0l-.25,0c-.05,0-.07,0-.07,0s.11,0,.19-.09.1-.14.14-.28l.61-2c0-.06,0-.09.06-.09s.06.07.1.18l.57,1.83c.06.17.09.28.19.34s.11,0,.13.06.08,0,.15,0,.11-.09.11-.26V2c0-.11,0-.15-.08-.17s-.17,0-.17-.08,0-.05.07-.05h.75c.45,0,.67.24.67.7a.61.61,0,0,1-.53.68A.59.59,0,0,1,22.85,3m-.13-.27a.18.18,0,0,0,.2.17c.17,0,.33-.21.33-.52s-.17-.58-.35-.58-.18.05-.18.19ZM21,2.3s0,0,0,0a.07.07,0,0,0,0,0L20.8,3V3s0,0,0,0h.39a0,0,0,0,0,0,0s0,0,0,0Zm-2.72.56a1.21,1.21,0,0,1,1.16-1.27,1,1,0,0,1,.56.14.88.88,0,0,1,0,.4s0,.07,0,.07S20,2.14,19.93,2s-.28-.35-.48-.35c-.41,0-.74.48-.74,1.19S19,4,19.42,4c.23,0,.39-.13.51-.4s.09-.22.13-.22,0,0,0,.08,0,.15,0,.33-.27.33-.66.33a1.2,1.2,0,0,1-1.12-1.29m-2.37-.6a.63.63,0,0,1,.68-.67.66.66,0,0,1,.43.12,1.32,1.32,0,0,1,0,.42c0,.05,0,.08,0,.08S17,2.14,16.92,2s-.16-.31-.34-.31a.35.35,0,0,0-.37.39c0,.21.12.32.36.45.41.21.64.41.64.84a.74.74,0,0,1-.74.78c-.34,0-.57-.11-.57-.33s0-.17,0-.24v-.1c0-.08,0-.12.05-.12s.05.12.1.27a.51.51,0,0,0,.46.41.43.43,0,0,0,.41-.46c0-.24-.15-.42-.44-.58s-.55-.29-.55-.74m-1.18,0s0,0,0,0,0,0,0,0L14.53,3a.1.1,0,0,0,0,0,0,0,0,0,0,0,0h.39a0,0,0,0,0,0,0s0,0,0,0Zm.18-.53.58,1.83c.06.17.09.28.19.34s.14,0,.14.09,0,0-.08,0l-.32,0c-.22,0-.35,0-.4,0S15,4.06,15,4,15,4,15.07,4s.15,0,.15-.09a.82.82,0,0,0,0-.18L15,3.21a.06.06,0,0,0-.06,0h-.47a.07.07,0,0,0,0,0l-.09.34a1.59,1.59,0,0,0-.06.29c0,.08,0,.09.1.11s.16,0,.16.08,0,0-.07,0-.17,0-.33,0l-.26,0s-.06,0-.06,0S14,4,14,3.94s.09-.14.14-.28l.61-2c0-.06,0-.09.06-.09s.06.07.09.18m-.8-.16,0,.5c0,.09,0,.11,0,.11S14,2.11,14,2s-.18-.19-.42-.19h-.06s-.05,0-.05.06V3.72c0,.16,0,.19.11.22s.17,0,.17.08,0,.06-.08.06-.21,0-.37,0-.28,0-.36,0-.08,0-.08-.07.08,0,.16-.07.11-.06.11-.22V1.85s0-.08-.05-.08h-.11a.37.37,0,0,0-.34.19c-.1.15-.13.24-.19.24s0,0,0-.05a.26.26,0,0,1,0-.07l.1-.39c0-.11,0-.19.07-.19s.05.12.09.13a.36.36,0,0,0,.18,0h1a.29.29,0,0,0,.12,0c.07,0,.09-.16.12-.16s.05.05.05.07ZM11.76,2.84a.46.46,0,0,1,.16.24l.22.53c.09.21.13.32.18.34s.16,0,.16.09,0,0-.06,0l-.23,0-.17,0c-.08,0-.09,0-.12-.13l-.35-.87c-.05-.14-.09-.17-.21-.17h0a0,0,0,0,0-.05,0v.76c0,.15,0,.24.17.24s.08,0,.08.06a.07.07,0,0,1-.07.06,2.66,2.66,0,0,0-.35,0,3.45,3.45,0,0,0-.37,0A.07.07,0,0,1,10.63,4c0-.07.08,0,.15-.06s.12-.07.12-.23V2c0-.13,0-.15-.08-.18s-.18,0-.18-.07,0-.05.1-.05H11l.54,0a.56.56,0,0,1,.63.6.56.56,0,0,1-.41.59m-.51-.14c0,.08.05.09.18.09s.4-.17.4-.49-.14-.52-.39-.52-.19.06-.19.19Zm-.88-.91v.33c0,.06,0,.1,0,.1s-.05-.17-.19-.29a.65.65,0,0,0-.47-.15c-.2,0-.21.05-.21.24v.63c0,.06,0,.07.07.07H9.7A.62.62,0,0,0,10,2.66c.1-.1.05-.24.13-.24s0,0,0,.06,0,.22,0,.38,0,.29,0,.32,0,.07,0,.07S10.1,3.13,10,3s-.16-.12-.33-.12H9.53c-.06,0-.07,0-.07.07v.79c0,.21,0,.24.27.24s.37,0,.49-.22.12-.26.18-.26a0,0,0,0,1,0,0,.24.24,0,0,0,0,.07l0,.37c0,.12,0,.14-.12.14s-.49,0-1,0c-.22,0-.34,0-.37,0s-.09,0-.09-.07S8.9,4,9,4s.11-.08.11-.23V2c0-.12,0-.15-.07-.18s-.17,0-.17-.07,0-.05.07-.05h1.32c.11,0,.11,0,.11.11ZM7.51,2.85a0,0,0,0,0,0,0v.78c0,.2.08.29.31.29s.49-.21.49-.58a.48.48,0,0,0-.51-.54Zm.63-.1a.61.61,0,0,1,.51.66.68.68,0,0,1-.72.7c-.28,0-.5-.06-.69-.06a2.9,2.9,0,0,0-.29,0A.06.06,0,0,1,6.88,4S6.9,4,7,4s.15-.06.15-.17V2c0-.1,0-.15-.1-.15l-.13,0s0,0,0-.06.24-.12.72-.12c.64,0,1,.18,1,.6a.49.49,0,0,1-.38.5m-.68-.14c0,.11,0,.11.12.11h0c.33,0,.52-.16.52-.45a.43.43,0,0,0-.47-.49c-.19,0-.22.05-.22.19ZM6.41,2V3.72c0,.16,0,.2.11.22s.17,0,.17.08,0,.06-.08.06a3.45,3.45,0,0,0-.37,0,2.92,2.92,0,0,0-.36,0c-.06,0-.08,0-.08-.07S5.87,4,6,4s.12-.07.12-.23V2c0-.13,0-.15-.08-.18s-.18,0-.18-.07,0-.05.05-.05a3,3,0,0,0,.38,0,3,3,0,0,0,.38,0s.06,0,.06.05-.07.05-.17.07-.1.05-.1.18M4.83,2V3.72A.23.23,0,0,0,5.08,4a.46.46,0,0,0,.4-.22c.11-.15.15-.25.2-.25a0,0,0,0,1,0,0V3.6l0,.36a.18.18,0,0,0,0,.06.07.07,0,0,1-.08.07c-.16,0-.47,0-.92,0a2.92,2.92,0,0,0-.36,0c-.06,0-.09,0-.09-.07S4.29,4,4.36,4s.13-.07.13-.23V2c0-.12,0-.15-.08-.18s-.16,0-.16-.07,0-.05,0-.05a2.29,2.29,0,0,0,.35,0,3,3,0,0,0,.39,0,.06.06,0,0,1,.06.05c0,.07-.07.05-.17.07s-.1.05-.1.18M30.56,20.87h.34c.07,0,.1,0,.1,0s-.16.05-.3.2a.7.7,0,0,0-.15.49c0,.21.06.23.24.23h.67c.07,0,.08,0,.08-.07v-.19a.61.61,0,0,0-.07-.34c-.11-.11-.25-.05-.25-.14s0,0,.06,0H32s.07,0,.07.05-.12,0-.28.14-.13.17-.13.34v.18s0,.07.07.07h.83c.22,0,.26,0,.26-.29s0-.39-.23-.51-.28-.13-.28-.2l0,0h.07l.39.05c.13,0,.14,0,.14.12s0,.51,0,1c0,.24,0,.36,0,.4s0,.09-.06.09,0-.08-.07-.18-.09-.12-.25-.12H30.73c-.12,0-.16,0-.18.08s0,.17-.07.17-.06,0-.06-.07,0-.23,0-.6,0-.74,0-.79,0-.11.12-.11Zm.17,2.82h1.85a.23.23,0,0,0,.26-.26.51.51,0,0,0-.22-.42c-.16-.12-.27-.16-.27-.21a0,0,0,0,1,0,0h.08l.38,0h.07s.06,0,.06.08,0,.5,0,1c0,.21,0,.34,0,.39s0,.08-.06.08,0-.08-.07-.16-.07-.13-.25-.13H30.73c-.12,0-.16,0-.18.09s0,.17-.07.17-.06,0-.06,0a3,3,0,0,0,0-.37,3.4,3.4,0,0,0,0-.42.06.06,0,0,1,.06-.06c.07,0,0,.08.06.18s.07.1.19.1m0,1.3h1.85c.17,0,.21,0,.24-.11s0-.17.09-.17.05,0,.05.08,0,.17,0,.38,0,.34,0,.39,0,.08-.06.08,0-.08-.07-.16-.07-.13-.25-.13H30.73c-.12,0-.16,0-.18.09s0,.19-.07.19a.05.05,0,0,1-.06-.06,3.3,3.3,0,0,0,0-.4,3.54,3.54,0,0,0,0-.4.06.06,0,0,1,.06-.06c.07,0,0,.07.06.18s.07.1.19.1m0,2.68h.74s.05,0,.05-.05v-.91s0-.05-.06-.05h-.73c-.12,0-.16,0-.18.08s0,.19-.07.19a.05.05,0,0,1-.06-.06,3.3,3.3,0,0,0,0-.4,3.54,3.54,0,0,0,0-.4.05.05,0,0,1,.06-.06c.07,0,0,.07.06.18s.07.1.19.1h1.85c.17,0,.21,0,.24-.1s0-.19.09-.19.05,0,.05.09,0,.17,0,.38,0,.34,0,.38,0,.09-.06.09,0-.08-.07-.15-.07-.13-.25-.13h-.86s-.06,0-.06.05v.91a.06.06,0,0,0,.06.05h.86c.17,0,.21,0,.24-.11s0-.17.09-.17.05,0,.05.08,0,.18,0,.38,0,.34,0,.39,0,.08-.06.08,0-.08-.07-.15-.07-.13-.25-.13H30.73c-.12,0-.16,0-.18.08s0,.2-.07.2-.06,0-.06-.07a3.3,3.3,0,0,0,0-.4,3,3,0,0,0,0-.39.05.05,0,0,1,.06-.06c.07,0,0,.07.06.17s.07.1.19.1m1,3a1.27,1.27,0,0,1-1.34-1.21,1,1,0,0,1,.15-.6.87.87,0,0,1,.41-.05c.05,0,.07,0,.07,0s-.06.07-.16.13-.36.29-.36.5c0,.44.49.79,1.25.79s1.2-.35,1.2-.75c0-.25-.14-.41-.42-.54s-.23-.09-.23-.14,0,0,.09,0h.34c.19,0,.35.29.35.69a1.25,1.25,0,0,1-1.35,1.18m-1.18,1.94h.34c.07,0,.1,0,.1,0s-.17.05-.31.19a.71.71,0,0,0-.17.49c0,.21.05.22.24.23l.67,0c.07,0,.08,0,.08-.07v-.18a.75.75,0,0,0-.06-.34c-.11-.11-.25-.06-.25-.15s0-.05.06,0l.4,0a3.38,3.38,0,0,0,.34,0s.08,0,.08.05-.13,0-.29.13-.14.16-.15.33v.18c0,.06,0,.07.07.07l.83,0c.22,0,.26,0,.27-.28a.47.47,0,0,0-.22-.51c-.14-.11-.27-.14-.27-.21l0,0h.07l.39.06c.13,0,.14,0,.14.13s-.05.51-.07,1a3.06,3.06,0,0,0,0,.4.07.07,0,0,1-.07.08c-.07,0,0-.07-.06-.17s-.09-.13-.24-.13l-1.85-.07c-.12,0-.16,0-.19.07s0,.18-.08.17-.05,0-.05-.07,0-.23,0-.6,0-.74,0-.79,0-.11.12-.11Zm.69,4.24-1.56-1c-.07,0-.11-.06-.15,0s0,.11-.06.15,0,0-.07,0,0-.38.38-.89a1.21,1.21,0,0,1,1.79-.29,1.16,1.16,0,0,1,.36,1.75c-.12.18-.25.3-.32.41s-.11.22-.17.3-.07.06-.1,0,0-.1,0-.17,0-.15-.13-.25m.1-.36c.23.15.35.17.48,0,.29-.43.11-1-.5-1.36s-1.16-.38-1.43,0c-.16.23-.12.3,0,.38ZM27,36.58v1.85a.23.23,0,0,0,.26.26.48.48,0,0,0,.42-.22c.12-.16.16-.27.21-.27s0,0,0,0a.32.32,0,0,1,0,.07l0,.38a.35.35,0,0,1,0,.06s0,.07-.08.07-.49,0-1,0c-.21,0-.34,0-.38,0s-.09,0-.09-.06.08,0,.16-.07.13-.07.13-.25V36.58c0-.12,0-.16-.08-.18s-.18,0-.18-.07a.05.05,0,0,1,.06-.06,2.75,2.75,0,0,0,.37,0,3.35,3.35,0,0,0,.41,0,.05.05,0,0,1,.06.06c0,.07-.07.05-.17.07s-.11.06-.11.18m-2,.36s0,0,0,0l0,0-.19.71v0a0,0,0,0,0,0,0h.4a0,0,0,0,0,0,0s0,0,0,0Zm.2-.55.61,1.92c.06.18.09.29.2.36s.15,0,.15.09,0,.06-.09.06-.18,0-.34,0-.36,0-.41,0-.07,0-.07-.05,0-.06.08-.06.17,0,.17-.1a1.25,1.25,0,0,0,0-.18l-.16-.52a.06.06,0,0,0-.06,0h-.5a0,0,0,0,0,0,0l-.1.36a1.54,1.54,0,0,0-.06.31c0,.08,0,.09.1.11s.17,0,.17.08,0,0-.07,0l-.35,0-.27,0c-.05,0-.07,0-.07,0s.12,0,.2-.1a.52.52,0,0,0,.14-.29l.65-2.09c0-.06,0-.09.06-.09s.06.07.1.19m-1.94,1.12a.49.49,0,0,1,.17.25l.23.56c.1.22.14.34.19.36s.17,0,.17.09,0,0-.07,0h-.42c-.08,0-.09,0-.12-.13l-.37-.92c-.05-.14-.1-.18-.22-.18h0a.05.05,0,0,0-.06.06v.79c0,.16,0,.26.18.26s.09,0,.09.06,0,.06-.08.06-.16,0-.37,0-.33,0-.38,0-.09,0-.09-.06.08,0,.16-.07.13-.07.13-.25V36.58c0-.12,0-.16-.09-.18s-.19,0-.19-.07,0-.06.11-.06.13,0,.27,0,.39,0,.57,0a.6.6,0,0,1,.67.63.59.59,0,0,1-.44.62m-.54-.15c0,.09.05.1.19.1s.42-.18.42-.52-.14-.54-.4-.54-.21.06-.21.2Zm-.95-1.15,0,.54c0,.08,0,.11-.06.11s-.06-.11-.11-.27-.19-.2-.44-.2h-.06s-.06,0-.06.07v2c0,.17,0,.21.11.24s.18,0,.18.08,0,.06-.08.06-.22,0-.39,0-.3,0-.38,0-.08,0-.08-.06.08,0,.17-.08.11-.06.11-.24v-2s0-.08-.05-.08H20.5a.44.44,0,0,0-.37.19c-.09.17-.13.26-.19.26s-.05,0-.05-.05l0-.07.1-.41c0-.12,0-.21.08-.21s0,.13.09.14.09,0,.19,0h1.1l.13,0c.07,0,.09-.16.13-.16s.05,0,.05.07Zm-3.61.69a.66.66,0,0,1,.71-.7.75.75,0,0,1,.46.12,1.56,1.56,0,0,1,0,.44c0,.06,0,.09-.05.09s-.06-.08-.12-.22-.17-.33-.36-.33a.37.37,0,0,0-.38.42c0,.21.12.33.37.46.43.23.68.43.68.89a.78.78,0,0,1-.78.82c-.36,0-.6-.12-.6-.35s0-.18,0-.25a.8.8,0,0,0,0-.11c0-.08,0-.12.06-.12s.06.13.1.28a.54.54,0,0,0,.49.43.45.45,0,0,0,.43-.48c0-.25-.15-.44-.46-.61s-.58-.31-.58-.78m-2-.32V38c0,.5.1.75.53.75a.54.54,0,0,0,.47-.21,1.2,1.2,0,0,0,.1-.62v-1c0-.3,0-.46-.07-.51s-.22,0-.22-.09,0-.06.07-.06h.55c.06,0,.08,0,.08.06s0,.05-.11.05-.18.14-.18.54v1a1.28,1.28,0,0,1-.11.67.71.71,0,0,1-.65.3A.79.79,0,0,1,16,38.6a1,1,0,0,1-.12-.6V36.58c0-.13,0-.16-.08-.18s-.19,0-.19-.07a.05.05,0,0,1,.06-.06,2.68,2.68,0,0,0,.8,0,.05.05,0,0,1,.06.06c0,.08-.09,0-.19.07s-.09.06-.09.18m-1.84.36s0,0,0,0,0,0,0,0l-.19.71a.1.1,0,0,0,0,0,0,0,0,0,0,0,0h.4a0,0,0,0,0,0,0s0,0,0,0Zm.2-.55.61,1.92c.06.18.09.29.2.36s.15,0,.15.09,0,.06-.09.06-.17,0-.34,0-.36,0-.41,0-.07,0-.07-.05,0-.06.08-.06.17,0,.17-.1a1.25,1.25,0,0,0,0-.18l-.16-.52a.06.06,0,0,0-.06,0h-.5s0,0,0,0l-.1.36a1.54,1.54,0,0,0-.06.31c0,.08,0,.09.11.11s.16,0,.16.08,0,0-.07,0l-.35,0-.27,0c-.05,0-.07,0-.07,0s.12,0,.2-.1a.52.52,0,0,0,.14-.29l.65-2.09c0-.06,0-.09.06-.09s.07.07.1.19m-5.41,2V36.56c0-.09,0-.13-.08-.13s-.11,0-.15,0,0,0,0-.06.34-.18.95-.18a1.21,1.21,0,0,1,1.25,1.32,1.16,1.16,0,0,1-1.25,1.28c-.21,0-.39,0-.53,0s-.24,0-.34,0-.08,0-.08-.06.08,0,.15-.07.13-.07.13-.25m.37-.11c0,.27.05.38.29.38.51,0,.85-.45.85-1.18s-.34-1.17-.83-1.17c-.28,0-.31.07-.31.23Zm-2-1.38,0,0a0,0,0,0,0,0,0l-.19.71v0s0,0,0,0h.41a0,0,0,0,0,0,0v0Zm.2-.55.61,1.92a.59.59,0,0,0,.19.36c.08,0,.15,0,.15.09s0,.06-.08.06-.18,0-.34,0-.36,0-.42,0-.07,0-.07-.05,0-.06.09-.06.16,0,.16-.1a.59.59,0,0,0,0-.18l-.15-.52a.06.06,0,0,0-.06,0H7.3a.07.07,0,0,0,0,0l-.09.36a1.18,1.18,0,0,0-.07.31c0,.08,0,.09.11.11s.16,0,.16.08,0,0-.07,0l-.35,0-.26,0s-.08,0-.08,0,.12,0,.2-.1.11-.15.15-.29l.64-2.09c0-.06,0-.09.07-.09s.06.07.1.19M4,37.7,4.84,36c0-.07,0-.12,0-.15s-.11,0-.15,0a0,0,0,0,1,0-.07c0-.09.38,0,.93.26a1.2,1.2,0,0,1,.54,1.73,1.17,1.17,0,0,1-1.69.6c-.18-.09-.32-.2-.45-.27S3.76,38,3.67,38s-.06-.06,0-.09.09,0,.17,0,.14,0,.22-.16m.38,0c-.12.25-.13.37.09.47.47.23,1,0,1.28-.68s.22-1.2-.23-1.42c-.25-.12-.31-.07-.38.07Zm-.21-2.51-1.57,1c-.14.09-.17.11-.14.22s.1.15,0,.19-.06,0-.09,0-.07-.16-.18-.34L2,35.94a.08.08,0,0,1,0-.11c.07,0,.09.05.14.1s.13.07.28,0l1.57-1c.11-.07.13-.09.11-.17s-.11-.16,0-.2a.05.05,0,0,1,.08,0,2.65,2.65,0,0,0,.18.36c.13.19.22.28.24.32a.06.06,0,0,1,0,.08c-.06,0-.08,0-.15-.11s-.11-.06-.22,0m-.85-2a.67.67,0,0,1,.83.56.77.77,0,0,1,0,.48,1.92,1.92,0,0,1-.42.12c-.06,0-.09,0-.1,0s.07-.07.19-.16.29-.22.26-.41a.38.38,0,0,0-.48-.3c-.21,0-.3.18-.39.46-.14.46-.29.74-.74.83a.77.77,0,0,1-1-.61c-.07-.35,0-.61.22-.65L2,33.48l.1,0c.08,0,.12,0,.13,0s-.11.07-.26.15a.53.53,0,0,0-.33.55.46.46,0,0,0,.56.34c.24,0,.4-.24.51-.57s.19-.63.65-.72m-.51-1a.54.54,0,0,1-.25.16L2,32.6c-.22.09-.34.13-.36.19s0,.17-.09.17,0,0,0-.07,0-.16,0-.25,0-.12,0-.18,0-.08.13-.12L2.58,32c.14-.06.18-.11.18-.23v0a.06.06,0,0,0-.06-.05H1.91c-.16,0-.26,0-.26.17s0,.09-.07.09-.05,0-.05-.08,0-.15,0-.36,0-.34,0-.39,0-.08.06-.08,0,.08.07.15.07.13.25.13H3.75c.13,0,.17,0,.19-.08s0-.2.07-.2.06,0,.06.11,0,.13,0,.27,0,.4,0,.58a.59.59,0,0,1-.63.66.59.59,0,0,1-.62-.43M3,31.66c-.09,0-.1.05-.1.18s.18.42.51.42.55-.14.55-.4-.07-.2-.2-.2Zm1-1.13H3.58c-.06,0-.1,0-.1,0s.17,0,.31-.2a.7.7,0,0,0,.15-.49c0-.22-.06-.23-.25-.23H3c-.07,0-.08,0-.08.08v.18a.61.61,0,0,0,.07.34c.1.1.25,0,.25.14s0,0-.06,0l-.4,0c-.19,0-.31,0-.34,0s-.08,0-.08-.05.13-.05.29-.14.13-.17.13-.34v-.17c0-.06,0-.08-.07-.08H1.91c-.23,0-.26.05-.26.29s0,.39.23.51.28.13.28.2l0,0H2.05l-.39-.05c-.13,0-.15,0-.15-.12s0-.51,0-1c0-.24,0-.36,0-.4s0-.08.06-.08,0,.07.07.17.09.12.25.12H3.75c.13,0,.17,0,.19-.08S3.93,29,4,29s.06,0,.06.07,0,.23,0,.6,0,.74,0,.79,0,.11-.12.11Zm-.2-2.05-2.16-.7c-.05,0-.08,0-.08-.06s.09,0,.19-.09L3.57,27c.2-.06.33-.1.37-.18s0-.16.06-.16a.05.05,0,0,1,.06.06s0,.19,0,.51c0,.12,0,.21,0,.26s0,.05,0,.05,0-.2-.17-.2l-.17,0-1.3.45c-.06,0-.09,0-.09.05s0,0,.09,0l1.18.35.26.05c.21,0,.09-.24.21-.24s.05,0,.05.08,0,.13,0,.28a2.07,2.07,0,0,0,0,.28c0,.05,0,.08-.06.08s0-.1-.07-.17-.1-.09-.21-.13m0-2.3H1.91c-.17,0-.21,0-.25.11s0,.18-.08.18-.05,0-.05-.09,0-.17,0-.38,0-.34,0-.38,0-.09.06-.09,0,.08.07.16.07.13.25.13H3.75c.13,0,.17,0,.19-.09s0-.19.07-.19a.05.05,0,0,1,.06.06A3.3,3.3,0,0,0,4,26a3.54,3.54,0,0,0,0,.4.06.06,0,0,1-.06.06c-.07,0,0-.07-.07-.18s-.06-.1-.19-.1m.32-3.12v.52s0,0,0,.06L2.27,24.73l0,0H3.63c.29,0,.32,0,.32-.23A.07.07,0,0,1,4,24.44s.06,0,.06.1,0,.17,0,.28,0,.19,0,.25,0,.09-.06.09,0,0,0-.07v0c0-.14-.13-.15-.43-.15h-2c-.05,0-.1,0-.1-.06a.09.09,0,0,1,.06-.08l2.17-1.33s0,0,0,0H2c-.31,0-.4,0-.4.18s0,.05,0,.07a.07.07,0,0,1-.07.06s-.06,0-.06-.11,0-.16,0-.28,0-.18,0-.25,0-.1.06-.1.07,0,.07.07v0c0,.17.11.18.43.18H3.76c.12,0,.16,0,.18-.08S3.94,23,4,23a.05.05,0,0,1,.06.06m-.31-1.9H2.35c-.49,0-.75.1-.75.52a.52.52,0,0,0,.21.47,1.1,1.1,0,0,0,.62.11h1c.31,0,.47,0,.52-.08S3.92,22,4,22a.05.05,0,0,1,.06.06s0,.14,0,.28,0,.24,0,.28,0,.08-.06.08,0,0,0-.12-.14-.17-.54-.17h-1a1.39,1.39,0,0,1-.67-.11.72.72,0,0,1-.3-.65.79.79,0,0,1,.29-.71,1,1,0,0,1,.6-.12H3.76c.13,0,.16,0,.18-.09s0-.18.07-.18a.05.05,0,0,1,.06.06A3.3,3.3,0,0,0,4,21a3.54,3.54,0,0,0,0,.4.05.05,0,0,1-.06.06c-.08,0,0-.1-.07-.19s-.06-.09-.18-.09m16.51.17c-.21.74.39,0,.62,0-.1-.21-.5-.08-.62,0M28,24.67c.19.2-.54-1.25-1-1.36-1.21-.3-1.42,1.06-1.39,2a.49.49,0,0,1-.4.48c-.63.1-1.12.62.19.11.64,0,.11-.31.37-.9C26,24.6,27,24.14,27,24.15a2.17,2.17,0,0,1,1,.52m-5.82-1.83c.14.55-.71.5-.63,1.1s1.2.86,1,1.41c0,.09-1.45,0-1,.34a1.52,1.52,0,0,1,1.25,0c.07,0,.14-.06.14-.15a1.9,1.9,0,0,0-.54-.93c-.24-.27.24-.84.65-1.16s-.66-1.35-.92-.65m-1.77.46c-.14.07-.1.69.58-.11a.44.44,0,0,1,.3-.15c.27-.06.57-.53.31-.82,0,0-.22-.11-.21-.09s-.18-.24-.23-.32h-.06c.34.26,0,.8-.2.38,0-.06-.19.51-.25.48l-.41.38c.35,0,.28.18.17.24M28,25.9a1.06,1.06,0,0,0,.09-.46,2.23,2.23,0,0,1-.37.58.47.47,0,0,1-.46.16.3.3,0,0,0-.35-.13.85.85,0,0,0-.52.27s.39-.33.62-.14a.18.18,0,0,0,.09.08l0,.07A.86.86,0,0,0,28,25.9M20.5,23.68a.92.92,0,0,1-.38.08.75.75,0,0,1-.8-.69c0-.05.19-.11.2-.15l.2-.77a.84.84,0,0,1,0-.21.37.37,0,0,1,0-.14c-.82-.32-.41-1.21-.31-1.34s0,.57.29.68a1,1,0,0,0,.37.05,1.85,1.85,0,0,1,.61-.13c.25,0,.55.25.58.22.79.06.66-.77.79-.81s.29,1,0,1.11l1.22.6a14.12,14.12,0,0,1,2.53.58c.4.13,1-.05,1.34.14a5.52,5.52,0,0,1,.77.75,3,3,0,0,1,.46,2,1.26,1.26,0,0,1-1.28,1.12c-.15.25-.35.17-.71.13-.6,0-1,0-1.73,0-.34,0-.14-.37-.24-.37H20.58c-.27,0-.14-.24-.07-.49s0-.4.26-.5.08-.07.17-.25a.47.47,0,0,0-.05-.49c-.14-.26-.23-.33-.25-.48s0-.68-.14-.59Zm-1.12,4.9c-.2.74.4,0,.63,0-.1-.2-.51-.08-.63,0m7.76,3.23c.19.2-.54-1.25-1-1.35-1.21-.3-1.42,1.05-1.39,2a.49.49,0,0,1-.4.47c-.63.1-1.12.62.19.11.64,0,.1-.31.37-.9.19-.43,1.18-.89,1.19-.88a2.17,2.17,0,0,1,1,.52M21.32,30c.14.55-.71.5-.63,1.1s1.2.86,1,1.41c0,.09-1.45,0-1,.34a1.52,1.52,0,0,1,1.25,0c.07,0,.14-.06.14-.14a1.88,1.88,0,0,0-.54-.94c-.24-.27.24-.84.65-1.16s-.66-1.35-.92-.65m-1.81.54c-.13.07-.1.69.59-.11a.46.46,0,0,1,.3-.15c.26-.06.57-.53.3-.82,0,0-.22-.11-.21-.09s-.18-.24-.23-.32H20.2c.35.27,0,.81-.2.38,0-.06-.19.51-.25.49l-.41.38c.35,0,.29.17.17.23m7.62,2.6a.89.89,0,0,0,.09-.46,2.38,2.38,0,0,1-.36.58.53.53,0,0,1-.47.17.29.29,0,0,0-.35-.14.87.87,0,0,0-.52.28s.4-.34.62-.14c0,0,.05.06.09.08a.61.61,0,0,0,0,.06.84.84,0,0,0,.86-.43m-7.49-2.21a.9.9,0,0,1-.37.07.76.76,0,0,1-.81-.69c0-.05.2-.1.21-.14l.19-.78s0-.12,0-.21a.28.28,0,0,1,.05-.13c-.83-.33-.41-1.21-.31-1.35s0,.58.28.68a.79.79,0,0,0,.37.05,1.75,1.75,0,0,1,.61-.12c.25,0,.56.25.58.21.8.07.66-.77.79-.81s.29,1,0,1.11l1.21.6A13.93,13.93,0,0,1,25,30c.4.13,1-.05,1.34.15a5.07,5.07,0,0,1,.77.74,2.89,2.89,0,0,1,.46,1.95A1.29,1.29,0,0,1,26.25,34c-.15.25-.35.17-.7.13-.5,0-1.06,0-1.73,0-.35,0-.15-.38-.25-.38H19.72c-.27,0-.13-.24-.07-.48s0-.41.26-.51.09-.06.17-.25.09-.22,0-.49-.23-.33-.25-.47,0-.69-.13-.6ZM11,11.33h.8a.11.11,0,0,1,.11.11v.81a.1.1,0,0,1-.11.1l-.1-.16h-.63v-.62l-.18-.13a.11.11,0,0,1,.11-.11M9.14,12.41l-.28-.1H8.7v-.38l-.13-.27a.06.06,0,0,1,0-.06l.52-.17s0,0,0,.06v.85a.08.08,0,0,1,0,.07M29.26,31.53V19.92H17.43V35.09H25.7a3.56,3.56,0,0,0,3.56-3.56m0-12.07V5.34H17.43V19.46a23.83,23.83,0,0,1,3.95-.65,2.92,2.92,0,0,0,.56-2.38c-.2,0-.14.15-.35.15s-.07,0-.28,0h-.16l-.16,0c-.2,0-.08-.22-.28-.26s-.07,0-.24-.15-.19.07-.36-.05L20,16a.88.88,0,0,1-.08-.14c-.12-.17-.19,0-.3-.19s-.16-.14-.2-.34,0-.4-.06-.6.06-.16.09-.36-.07-.1,0-.31.19,0,.29-.22-.11-.15,0-.33.2.05.35-.09-.09-.22.06-.36a1.65,1.65,0,0,0,.27-1c-.06-.19.08-.14.11-.34s.18-.07.22-.27-.15-.15-.05-.33.26.05.36-.13-.06-.1.1-.23.09,0,.25-.16,0-.22.15-.29.08-.11.25-.17a1.61,1.61,0,0,1-.07-.25c-.06-.2.19-.09.14-.29s0,0-.09-.22-.14-.1-.1-.3.29-.33.41-.5.18-.41-.07-.46c.12-.17.07-.2.24-.31s.27.18.44.06,0-.35.2-.39.19.25.39.21.09,0,.29,0,.12.08.32.13.19-.21.36-.09.13,0,.3.15-.07.21.05.38.08.1.19.26.3,0,.34.21-.07.15,0,.35.11.1.06.3,0,0-.05.23a.53.53,0,0,0,.23.58c.2.07.08.12.24.25s.08,0,.24.17-.07.16,0,.33.18,0,.28.18-.13.12-.09.32.25.06.29.26.05.11,0,.3-.13,0-.19.22,0,0-.09.24.09.11.05.27a.15.15,0,0,1,.11,0c.18.08-.06.32.13.4s.17-.14.32,0,.09,0,.24.15,0,.11.12.28.1,0,.2.22.1.08.14.28-.09.11,0,.31.19.14.15.34-.3.34-.34.54.09.14,0,.31-.15,0-.26.21-.05,0-.22.15,0,.18-.16.31-.08.06-.28.12-.15-.1-.34-.05-.05.3-.26.3-.07-.12-.28-.12-.08.08-.28.08-.08-.07-.28-.06,0-.14-.19-.14a.22.22,0,0,0-.12.05,3.06,3.06,0,0,0,.51,2.33,19,19,0,0,1,4.37.69M17.13,5.34H5.51V19.49a18.78,18.78,0,0,1,1.89-.44L8,13.83a.22.22,0,0,1-.13-.2c0-.09.17-.16.17-.16l.37-3.42s0,0,0,0S9,9.87,9,9.88l.27,0s.05,0,.05.05l.09.49.35,0a5.28,5.28,0,0,1,.09-.68s.05,0,.34,0V6.47a.16.16,0,0,1-.14-.16.17.17,0,0,1,.17-.18.17.17,0,0,1,.12,0,.12.12,0,0,0-.19.11.14.14,0,0,0,.13.12.12.12,0,0,0,.12-.09.18.18,0,0,1-.12.16s.15,3.19.15,3.21l.4,0,.2.07c0,.14.05.31.07.44l.6-.05c0-.14,0-.35.05-.42s0,0,.05,0l.91.07s0,0,0,.06,0,.27,0,.38l.53.06s0-.24,0-.3a.91.91,0,0,1,.17-.05l.56.13s.21.05.21.07a1.32,1.32,0,0,0-.08.68l.35,2.78s.15.05.16.16a.24.24,0,0,1-.14.18l.66,5.2,1.87.4ZM29.56,31.53A3.86,3.86,0,0,1,25.7,35.4H9.07a3.86,3.86,0,0,1-3.86-3.87V5H29.56Zm-20.35-21h.12L9.25,10l-.1,0ZM11,10.35,11,9.79l-.1,0,.07.57ZM9,10a.63.63,0,0,0-.32.26,4.56,4.56,0,0,0-.15,1.16c0,.19,0,.12,0,.31s0,.39-.05.58,0,0,0,.2,0,.08-.06.27.11.06.09.25.11.14.07.25.16.06.24.07a20.27,20.27,0,0,1,2.72-.13,20.82,20.82,0,0,1,2.73.22c0-.43-.11-1-.11-1l-.34-.15,0-.8a.09.09,0,0,1,.11-.09l.2.06A12.72,12.72,0,0,0,14,10.13L13.54,10s-.06.4-.08.59c0,0,0,.05-.06,0l-.65-.1s-.07,0-.07,0,0-.61-.06-.61-.47-.05-.73-.07c0,.11-.06.42-.08.58a.11.11,0,0,1-.09.06l-.92,0a.64.64,0,0,0-.61-.64H10c0,.1-.06.57-.07.65s0,0,0,0-.61,0-.73.05,0-.33-.09-.57m2.37,8.86c-.14-2.31,2.32-2.27,2.19.05,0,0,1.12.14,1.16.13s.1-.13.09-.22-.08-1-.08-1-.44-4.07-.44-4.07a15.19,15.19,0,0,0-2.85-.2H11.4a27.29,27.29,0,0,0-2.73.19A.42.42,0,0,0,8.5,14c0,.08-.14.21-.16.4s.07.25.05.43,0,0,0,.18-.08.43.09.49.2.2-.06.24c0,0-.08,0-.08,0,0,.19.1.22.09.41s-.08.07-.09.26.09.36,0,.4a1,1,0,0,0,0,.24c0,.06.22.32.19.4s.07.21.13.19.51.19,0,.26c-.06,0-.09.05-.07.1s.14,0,.27.13,0,.22.11.35.2,0,.37,0,.13.24.31.31,1.76,0,1.77,0m14.35-6a.13.13,0,0,0-.11,0c0-.17-.11-.08,0-.27s0,0,.09-.24.12,0,.19-.22,0-.1,0-.3-.25-.06-.29-.26.2-.15.09-.32-.18,0-.28-.18.12-.2,0-.33-.08,0-.24-.17,0-.19-.24-.25a.53.53,0,0,1-.23-.58c.06-.2,0,0,.05-.24s0-.09-.06-.29.08-.16,0-.36-.22,0-.34-.2-.08-.09-.19-.26.12-.27,0-.39-.22.36-.39.24-.38-.08-.38,0c0,.21-.32-.18-.33,0s-.09,0-.11.25-.2,0-.22.24-.24.27-.26.47l0,.41c0,.21.15.07.27.24s-.31.17-.19.34.16.11.28.27-.66.36-.17.72c.17.12-.3.47-.55,0-.11-.22-.58.33-.27.61.15.13.22.22-.47.44-.2.06.16.55-.36.66,0,0-.22.54.22.43s.25,0,.36.22-.08.29,0,.47-.43.16-.33.33.39.37.25.52c-.51.56.34.38.44.55s.58.22.33.63c-.1.18.77,0,.85.2s.5-.27.58-.09.61-.36.69-.17.56-.15.64,0,.28,0,.36.18.44-.44.52-.25.37-.06.76-.47c.11-.12.15-.55.31-.47,0-.2-.16-.35-.19-.55s.22,0,.19-.21,0-.11-.14-.29-.1,0-.2-.21,0-.15-.12-.28-.09,0-.24-.15-.13.08-.32,0,.05-.33-.13-.41m-3.19,5.87h2a4.14,4.14,0,0,1-.48-1.89c-.09-.09-.07.05-.14.08l-.19-.08s0,.12-.1.1-.1-.16-.1-.16a.51.51,0,0,0-.21,0c0,.29-.22,0-.21.1-.18,0-.21-.05-.22-.05a12.33,12.33,0,0,1-.33,1.88M34.74,34.58c0,2.85-3.26,5.6-6.18,5.6H19.14c-.05,0-1.41-.07-1.68,1l-.23.87L17,41.14c-.29-1-1.54-1-1.57-1H6.28C3.34,40.18,0,37.43,0,34.58V0H34.74Zm-.49,0V.49H.49V34.58c0,2.51,3.05,5.12,5.79,5.11H15.4a2.06,2.06,0,0,1,1.82.81,2.25,2.25,0,0,1,1.93-.81h9.41c2.71,0,5.69-2.58,5.69-5.11"/><polygon class="cls-1" points="8.25 22.89 7.44 22.38 6.63 22.89 6.86 21.96 6.13 21.35 7.08 21.28 7.44 20.39 7.8 21.28 8.75 21.35 8.02 21.96 8.25 22.89"/><polygon class="cls-1" points="8.25 25.86 7.44 25.36 6.63 25.86 6.86 24.94 6.13 24.33 7.08 24.26 7.44 23.38 7.8 24.26 8.75 24.33 8.02 24.94 8.25 25.86"/><polygon class="cls-1" points="8.25 28.84 7.44 28.34 6.63 28.84 6.86 27.92 6.13 27.31 7.08 27.24 7.44 26.36 7.8 27.24 8.75 27.31 8.02 27.92 8.25 28.84"/><polygon class="cls-1" points="8.25 31.82 7.44 31.32 6.63 31.82 6.86 30.9 6.13 30.29 7.08 30.22 7.44 29.34 7.8 30.22 8.75 30.29 8.02 30.9 8.25 31.82"/><polygon class="cls-1" points="16.05 22.89 15.25 22.38 14.44 22.89 14.67 21.96 13.94 21.35 14.89 21.28 15.25 20.39 15.6 21.28 16.55 21.35 15.82 21.96 16.05 22.89"/><polygon class="cls-1" points="16.05 25.86 15.25 25.36 14.44 25.86 14.67 24.94 13.94 24.33 14.89 24.26 15.25 23.38 15.6 24.26 16.55 24.33 15.82 24.94 16.05 25.86"/><polygon class="cls-1" points="16.05 28.84 15.25 28.34 14.44 28.84 14.67 27.92 13.94 27.31 14.89 27.24 15.25 26.36 15.6 27.24 16.55 27.31 15.82 27.92 16.05 28.84"/><polygon class="cls-1" points="16.05 31.82 15.25 31.32 14.44 31.82 14.67 30.9 13.94 30.29 14.89 30.22 15.25 29.34 15.6 30.22 16.55 30.29 15.82 30.9 16.05 31.82"/><polygon class="cls-1" points="12.26 22.89 11.45 22.38 10.64 22.89 10.87 21.96 10.14 21.35 11.09 21.28 11.45 20.39 11.81 21.28 12.76 21.35 12.03 21.96 12.26 22.89"/><polygon class="cls-1" points="12.26 25.86 11.45 25.36 10.64 25.86 10.87 24.94 10.14 24.33 11.09 24.26 11.45 23.38 11.81 24.26 12.76 24.33 12.03 24.94 12.26 25.86"/><polygon class="cls-1" points="12.26 28.84 11.45 28.34 10.64 28.84 10.87 27.92 10.14 27.31 11.09 27.24 11.45 26.36 11.81 27.24 12.76 27.31 12.03 27.92 12.26 28.84"/><polygon class="cls-1" points="12.26 31.82 11.45 31.32 10.64 31.82 10.87 30.9 10.14 30.29 11.09 30.22 11.45 29.34 11.81 30.22 12.76 30.29 12.03 30.9 12.26 31.82"/><polygon class="cls-1" points="12.26 34.81 11.45 34.3 10.64 34.81 10.87 33.88 10.14 33.27 11.09 33.2 11.45 32.32 11.81 33.2 12.76 33.27 12.03 33.88 12.26 34.81"/></svg>